<svg xmlns="http://www.w3.org/2000/svg" width="24" height="24" fill="none" viewBox="0 0 24 24">
  <path fill="#000" d="M8.235 10.352a.75.75 0 0 0-.588-.587L7.5 9.75a.75.75 0 0 0-.75.75l.015.148A.75.75 0 0 0 8.25 10.5l-.015-.148ZM12.75 15a.75.75 0 1 0-1.5 0 .75.75 0 0 0 1.5 0Zm4.5-6.75a.75.75 0 0 0-.602-.735L16.5 7.5a.75.75 0 0 0-.75.75l.015.147a.75.75 0 0 0 1.485-.147Zm-3 6.75a2.25 2.25 0 0 1-1.5 2.118V18a.75.75 0 0 1-1.5 0v-.882a2.25 2.25 0 0 1 0-4.237V6a.75.75 0 0 1 1.5 0v6.88a2.246 2.246 0 0 1 1.5 2.12Zm-4.51-4.277a2.25 2.25 0 0 1-1.49 1.895V18a.75.75 0 0 1-1.5 0v-5.382a2.247 2.247 0 0 1-1.49-1.895l-.01-.223a2.25 2.25 0 0 1 1.5-2.12V6a.75.75 0 0 1 1.5 0v2.38a2.247 2.247 0 0 1 1.5 2.12l-.01.223Zm9.01-2.473a2.25 2.25 0 0 1-1.5 2.118V18a.75.75 0 0 1-1.5 0v-7.632a2.25 2.25 0 0 1-1.49-1.896l-.01-.222a2.25 2.25 0 0 1 1.5-2.12V6a.75.75 0 0 1 1.5 0v.13a2.247 2.247 0 0 1 1.5 2.12Z"/>
</svg>
