<svg xmlns="http://www.w3.org/2000/svg" width="24" height="24" fill="none" viewBox="0 0 24 24">
  <path fill="#000" d="M13.676 17.25a.75.75 0 0 1 .559 1.251 2.994 2.994 0 0 1-3.46.738 2.994 2.994 0 0 1-1.01-.738.75.75 0 0 1 .476-1.246l.082-.004 3.353-.001ZM12 4.5a2.25 2.25 0 0 1 2.156 1.606l.035.128.006.032a6.01 6.01 0 0 1 3.018 4.552l.02.215.015.217v2.198l.016.102a2.25 2.25 0 0 0 .857 1.385l.125.088.122.075c.645.365.42 1.324-.283 1.397L18 16.5H6c-.771 0-1.04-1.023-.37-1.402a2.25 2.25 0 0 0 1.104-1.548l.016-.107v-2.227a6 6 0 0 1 2.866-4.841l.186-.11.008-.032a2.252 2.252 0 0 1 1.921-1.717l.137-.013L12 4.5Z"/>
</svg>
