<svg xmlns="http://www.w3.org/2000/svg" width="24" height="24" fill="none" viewBox="0 0 24 24">
  <path fill="#000" d="M7.25 10.75V10A2.75 2.75 0 0 1 10 7.25h.75a.75.75 0 0 1 0 1.5H10c-.69 0-1.25.56-1.25 1.25v.75a.75.75 0 0 1-1.5 0Zm8.5 0V10c0-.69-.56-1.25-1.25-1.25h-.75a.75.75 0 0 1 0-1.5h.75A2.75 2.75 0 0 1 17.25 10v.75a.75.75 0 0 1-1.5 0Zm0 3.75v-.75a.75.75 0 0 1 1.5 0v.75a2.75 2.75 0 0 1-2.75 2.75h-.75a.75.75 0 0 1 0-1.5h.75c.69 0 1.25-.56 1.25-1.25Zm-8.5 0v-.75a.75.75 0 0 1 1.5 0v.75c0 .69.56 1.25 1.25 1.25h.75a.75.75 0 0 1 0 1.5H10a2.75 2.75 0 0 1-2.75-2.75Z"/>
</svg>
