<svg xmlns="http://www.w3.org/2000/svg" width="24" height="24" fill="none" viewBox="0 0 24 24">
  <path fill="#000" d="M12 6a6 6 0 1 1 0 12 6 6 0 0 1 0-12Zm0 8.667A.667.667 0 1 0 12 16a.667.667 0 0 0 0-1.333Zm1.788-6.03c-.587-.546-1.485-.753-2.283-.573-.847.191-1.604.823-1.825 1.93a.667.667 0 0 0 1.307.262c.112-.56.446-.809.811-.891.413-.094.85.032 1.08.248.46.428.446 1.162-.248 1.624-.62.413-.95.908-1.12 1.321-.07.166-.12.34-.152.517-.013.074-.02.148-.024.224v.034a.667.667 0 0 0 1.33.068l.003-.062v.006c.012-.095.037-.189.074-.278.079-.19.248-.467.629-.72 1.306-.872 1.595-2.612.418-3.71Z"/>
</svg>
