<svg xmlns="http://www.w3.org/2000/svg" width="24" height="24" fill="none" viewBox="0 0 24 24">
  <path fill="#000" d="M11.875 10.5a1.5 1.5 0 1 1 0 3 1.5 1.5 0 0 1 0-3Z"/>
  <path fill="#000" fill-rule="evenodd" d="M17 3a4 4 0 0 1 4 4v10a4 4 0 0 1-4 4H7a4 4 0 0 1-4-4V7a4 4 0 0 1 4-4h10Zm-5.125 5c-2.198 0-4.02 1.274-5.435 3.752a.5.5 0 0 0 0 .496C7.856 14.726 9.677 16 11.875 16l.156-.002c2.128-.06 3.896-1.332 5.278-3.75l.007-.015.019-.037.02-.054a.51.51 0 0 0 .012-.055l.007-.056v-.054l-.005-.05-.007-.041-.007-.028-.015-.042-.023-.05-.11-.189C15.807 9.215 14.02 8 11.875 8Z" clip-rule="evenodd"/>
</svg>
