<svg xmlns="http://www.w3.org/2000/svg" width="24" height="24" fill="none" viewBox="0 0 24 24">
  <path fill="#000" d="M12 4.5a7.5 7.5 0 1 1 0 15 7.5 7.5 0 0 1 0-15Zm1.5 3.75a2.25 2.25 0 0 0-2.235 1.988l-.011.13-.004.132.004.132c.014.24.065.468.148.681l.067.157-2.625 2.625-.061.07a.75.75 0 0 0 0 .92l.062.07L9.97 16.28l.07.063a.75.75 0 0 0 .92 0l.07-.063.063-.07a.75.75 0 0 0 0-.92l-.063-.07-.594-.595.439-.439.595.594.07.063a.75.75 0 0 0 1.053-1.053l-.063-.07-.594-.595.594-.594a2.25 2.25 0 1 0 .97-4.281Zm0 1.5a.75.75 0 1 1 0 1.5.75.75 0 0 1 0-1.5Z"/>
</svg>
