<svg xmlns="http://www.w3.org/2000/svg" width="24" height="24" fill="none" viewBox="0 0 24 24">
  <path fill="#000" d="M12.066 6.692a7.5 7.5 0 0 1 7.059.236.75.75 0 0 1 .37.56l.005.09v9.75a.75.75 0 0 1-1.125.649 6 6 0 0 0-6 0 .75.75 0 0 1-.75 0 6 6 0 0 0-5.8-.111L5.58 18l-.077.033-.037.012-.083.02-.045.007-.088.004h-.032l-.082-.009-.058-.01-.08-.024-.095-.042-.071-.042-.067-.05-.045-.042-.055-.062-.048-.067-.016-.027-.024-.045-.034-.077-.011-.037-.02-.082-.007-.046-.003-.037-.002-.05v-9.75a.75.75 0 0 1 .375-.65 7.5 7.5 0 0 1 7.059-.236l.066.033.066-.033Z"/>
</svg>
