<svg xmlns="http://www.w3.org/2000/svg" width="24" height="24" fill="none" viewBox="0 0 24 24">
  <path fill="#000" fill-rule="evenodd" d="M17 3a4 4 0 0 1 4 4v10a4 4 0 0 1-4 4H7a4 4 0 0 1-4-4V7a4 4 0 0 1 4-4h10Zm-8.257 7.33a1 1 0 0 0-1.414 0 4.536 4.536 0 0 0 0 6.413l.17.161a4.538 4.538 0 0 0 6.244-.16 1 1 0 0 0-1.414-1.415A2.537 2.537 0 0 1 8 13.536c0-.672.267-1.317.743-1.793a1 1 0 0 0 0-1.414Zm5 0a1 1 0 0 0-1.414 0l-2 2a1 1 0 1 0 1.414 1.413l2-2a1 1 0 0 0 0-1.414ZM13.536 6a4.536 4.536 0 0 0-3.207 1.33 1 1 0 1 0 1.414 1.413 2.536 2.536 0 1 1 3.586 3.586 1 1 0 0 0 1.414 1.414 4.538 4.538 0 0 0 .161-6.245l-.16-.169A4.536 4.536 0 0 0 13.535 6Z" clip-rule="evenodd"/>
</svg>
