<svg xmlns="http://www.w3.org/2000/svg" width="24" height="24" fill="none" viewBox="0 0 24 24">
  <path fill="#000" d="M6 13.536c0-1.204.479-2.357 1.33-3.207a1 1 0 1 1 1.413 1.414 2.536 2.536 0 1 0 3.586 3.586 1 1 0 0 1 1.414 1.414 4.538 4.538 0 0 1-6.245.161l-.169-.16A4.536 4.536 0 0 1 6 13.535Zm6.33-3.207a1 1 0 1 1 1.413 1.414l-2 2a1 1 0 0 1-1.414-1.414l2-2ZM13.535 6c1.204 0 2.357.479 3.207 1.33l.161.168a4.538 4.538 0 0 1-.16 6.245 1 1 0 0 1-1.415-1.414A2.537 2.537 0 0 0 13.536 8c-.672 0-1.317.267-1.793.743A1 1 0 0 1 10.33 7.33 4.536 4.536 0 0 1 13.536 6Z"/>
</svg>
