<svg xmlns="http://www.w3.org/2000/svg" width="24" height="24" fill="none" viewBox="0 0 24 24">
  <path fill="#000" d="M16.75 4.5a2.75 2.75 0 0 1 2.746 2.604l.004.146v9.5a2.75 2.75 0 0 1-2.604 2.746l-.146.004h-9.5a2.75 2.75 0 0 1-2.746-2.604L4.5 16.75v-9.5a2.75 2.75 0 0 1 2.604-2.746L7.25 4.5h9.5Zm-2.125 9a1.125 1.125 0 1 0 0 2.25 1.125 1.125 0 0 0 0-2.25Zm-5.25 0a1.125 1.125 0 1 0 0 2.25 1.125 1.125 0 0 0 0-2.25Zm0-5.25a1.125 1.125 0 1 0 0 2.25 1.125 1.125 0 0 0 0-2.25Zm5.25 0a1.125 1.125 0 1 0 0 2.25 1.125 1.125 0 0 0 0-2.25Z"/>
</svg>
