<svg xmlns="http://www.w3.org/2000/svg" width="24" height="24" fill="none" viewBox="0 0 24 24">
  <path fill="#000" d="M7.72 15.22a.75.75 0 1 1 1.06 1.06l-.97.97.97.97a.75.75 0 1 1-1.06 1.06l-.97-.97-.97.97a.75.75 0 1 1-1.06-1.06l.97-.97-.97-.97a.75.75 0 1 1 1.06-1.06l.97.97.97-.97Zm9.53-.595a1.875 1.875 0 0 0-1.69-1.866l-.185-.01h-6a3.375 3.375 0 1 1 0-6.75h3.375a.75.75 0 1 1 0 1.5H9.375a1.875 1.875 0 1 0 0 3.75h6a3.376 3.376 0 1 1 0 6.75H11.25a.75.75 0 1 1 0-1.5h4.125l.185-.008a1.876 1.876 0 0 0 1.69-1.866Zm.97-9.905a.75.75 0 1 1 1.06 1.06l-.97.97.97.97a.75.75 0 1 1-1.06 1.06l-.97-.97-.97.97a.75.75 0 1 1-1.06-1.06l.97-.97-.97-.97a.75.75 0 1 1 1.06-1.06l.97.97.97-.97Z"/>
</svg>
