<svg xmlns="http://www.w3.org/2000/svg" width="24" height="24" fill="none" viewBox="0 0 24 24">
  <path fill="#000" d="M8.25 16.5v-9a.75.75 0 0 0-.603-.735L7.5 6.75H6a.75.75 0 0 1 0-1.5h1.5A2.25 2.25 0 0 1 9.75 7.5v9a2.25 2.25 0 0 1-2.25 2.25H6a.75.75 0 0 1 0-1.5h1.5a.75.75 0 0 0 .735-.602l.015-.148Zm6 0v-9a2.25 2.25 0 0 1 2.25-2.25H18a.75.75 0 0 1 0 1.5h-1.5a.75.75 0 0 0-.75.75v9a.75.75 0 0 0 .75.75H18a.75.75 0 0 1 0 1.5h-1.5a2.25 2.25 0 0 1-2.24-2.027l-.01-.223Zm-3-1.5V9a.75.75 0 0 1 1.5 0v6a.75.75 0 0 1-1.5 0Z"/>
</svg>
