<svg xmlns="http://www.w3.org/2000/svg" width="24" height="24" fill="none" viewBox="0 0 24 24">
  <path fill="#000" d="M12 4.128a.75.75 0 0 1 .672.418l2.14 4.336 4.785.693a.75.75 0 0 1 .415 1.28l-3.468 3.374.819 4.767a.75.75 0 0 1-1.089.79l-4.27-2.25-4.279 2.25a.75.75 0 0 1-1.088-.79l.817-4.766-3.467-3.375a.75.75 0 0 1 .416-1.28l4.784-.694 2.14-4.335.053-.092a.75.75 0 0 1 .62-.326Zm-1.642 5.771a.75.75 0 0 1-.565.41l-3.67.532 2.66 2.59a.75.75 0 0 1 .217.664l-.628 3.656 3.284-1.726.084-.038a.75.75 0 0 1 .615.038l3.272 1.724L15 14.095a.75.75 0 0 1 .215-.664l2.66-2.59-3.67-.531a.75.75 0 0 1-.564-.41L12 6.571 10.358 9.9Z"/>
</svg>
