<svg xmlns="http://www.w3.org/2000/svg" width="24" height="24" fill="none" viewBox="0 0 24 24">
  <path fill="#000" d="M4.571 12.688a.75.75 0 0 0 1.149.965l.65-.774a5.75 5.75 0 0 0 9.746 3.187.75.75 0 1 0-1.06-1.06 4.25 4.25 0 0 1-7.19-2.266l.782.656a.75.75 0 0 0 .964-1.149l-2.74-2.3-2.3 2.742ZM11.95 6.25a5.738 5.738 0 0 0-4.065 1.684.75.75 0 1 0 1.06 1.06 4.252 4.252 0 0 1 7.191 2.266l-.783-.656a.75.75 0 0 0-.964 1.149l2.74 2.3 2.3-2.742a.75.75 0 0 0-1.148-.964l-.647.772A5.753 5.753 0 0 0 11.95 6.25Z"/>
</svg>
