<svg xmlns="http://www.w3.org/2000/svg" width="24" height="24" fill="none" viewBox="0 0 24 24">
  <path fill="#000" d="M17.993 11.705a6.003 6.003 0 0 0-5.698-5.698L12 6a6 6 0 0 0-6 6l.007.295A6 6 0 0 0 12 18l.295-.007A6.003 6.003 0 0 0 18 12l-.007-.295Zm-3.008-.002A3 3 0 0 0 9 12l.015.297A3 3 0 0 0 12 15l.297-.015A3 3 0 0 0 15 12l-.015-.297ZM10.5 12a1.5 1.5 0 1 1 2.999 0 1.5 1.5 0 0 1-2.999 0Zm5.994.223a4.498 4.498 0 0 1-4.271 4.271L12 16.5a4.5 4.5 0 0 1-4.494-4.277L7.5 12a4.5 4.5 0 0 1 9 0l-.006.223Zm2.997.146a7.499 7.499 0 0 1-4.62 6.56c-.797.33-1.643.52-2.502.562L12 19.5a7.5 7.5 0 0 1-7.491-7.13L4.5 12A7.5 7.5 0 0 1 12 4.5l.37.009A7.5 7.5 0 0 1 19.5 12l-.009.37Z"/>
</svg>
