<svg xmlns="http://www.w3.org/2000/svg" width="24" height="24" fill="none" viewBox="0 0 24 24">
  <path fill="#000" d="M18.648 4.507a.75.75 0 0 1 .845.845 12.75 12.75 0 0 1-7.521 9.95A3.751 3.751 0 0 1 8.25 19.5h-3a.75.75 0 0 1-.75-.75v-3a3.75 3.75 0 0 1 4.197-3.723 12.75 12.75 0 0 1 9.951-7.52ZM11.151 10.7c-.395.567-.74 1.17-1.026 1.804a3.719 3.719 0 0 1 1.369 1.368 11.25 11.25 0 0 0 1.804-1.025A5.999 5.999 0 0 0 11.15 10.7Zm6.663-4.515a11.25 11.25 0 0 0-5.715 3.336 7.498 7.498 0 0 1 2.378 2.377c.424-.39.82-.81 1.182-1.264a11.248 11.248 0 0 0 2.155-4.45ZM6 18h2.25a2.25 2.25 0 0 0 2.174-2.825.773.773 0 0 1-.065-.204 2.25 2.25 0 0 0-1.33-1.331.748.748 0 0 1-.205-.065A2.251 2.251 0 0 0 6 15.75V18Z"/>
</svg>
