<svg xmlns="http://www.w3.org/2000/svg" width="24" height="24" fill="none" viewBox="0 0 24 24">
  <path fill="#000" d="M8.5 14a.5.5 0 0 1 .5.5v2a.5.5 0 0 1-.5.5A2.5 2.5 0 0 1 6 14.5V14h2.5Zm4 0a.5.5 0 0 1 .5.5v2a.5.5 0 0 1-.5.5h-2a.5.5 0 0 1-.5-.5v-2a.5.5 0 0 1 .5-.5h2Zm4.5.5a2.5 2.5 0 0 1-2.5 2.5.5.5 0 0 1-.5-.5v-2a.5.5 0 0 1 .5-.5H17v.5Zm0-1.5h-2.5a.5.5 0 0 1-.5-.5v-2a.5.5 0 0 1 .5-.5H17v3Zm-8.5-3a.5.5 0 0 1 .5.5v2a.5.5 0 0 1-.5.5H6v-3h2.5Zm4 0a.5.5 0 0 1 .5.5v2a.5.5 0 0 1-.5.5h-2a.5.5 0 0 1-.5-.5v-2a.5.5 0 0 1 .5-.5h2Zm2-4A2.5 2.5 0 0 1 17 8.5V9h-2.5a.5.5 0 0 1-.5-.5v-2a.5.5 0 0 1 .5-.5ZM9 8.5a.5.5 0 0 1-.5.5H6v-.5A2.5 2.5 0 0 1 8.5 6a.5.5 0 0 1 .5.5v2Zm4 0a.5.5 0 0 1-.5.5h-2a.5.5 0 0 1-.5-.5v-2a.5.5 0 0 1 .5-.5h2a.5.5 0 0 1 .5.5v2Z"/>
</svg>
