<svg xmlns="http://www.w3.org/2000/svg" width="24" height="24" fill="none" viewBox="0 0 24 24">
  <path fill="#000" d="M9 6.75A.75.75 0 0 1 9.75 6h4.5a.75.75 0 0 1 0 1.5h-4.5A.75.75 0 0 1 9 6.75Z" opacity=".4"/>
  <path fill="#000" d="M16.5 9.75a.75.75 0 0 1 1.5 0v4.5a.75.75 0 0 1-1.5 0v-4.5Z"/>
  <path fill="#000" d="M9 17.25a.75.75 0 0 1 .75-.75h4.5a.75.75 0 0 1 0 1.5h-4.5a.75.75 0 0 1-.75-.75Z" opacity=".4"/>
  <path fill="#000" d="M6 9.75a.75.75 0 0 1 1.5 0v4.5a.75.75 0 0 1-1.5 0v-4.5Z"/>
</svg>
