<svg xmlns="http://www.w3.org/2000/svg" width="24" height="24" fill="none" viewBox="0 0 24 24">
  <path fill="#000" fill-rule="evenodd" d="M17.354 6.647a2.619 2.619 0 0 1 0 3.707l-1.5 1.5a.5.5 0 0 1-.707-.707l1.5-1.5a1.621 1.621 0 1 0-2.293-2.293l-1.5 1.5a.5.5 0 1 1-.707-.707l1.5-1.5a2.62 2.62 0 0 1 3.707 0ZM6.647 17.354a2.621 2.621 0 0 1 0-3.707l1.5-1.5a.5.5 0 1 1 .707.707l-1.5 1.5a1.621 1.621 0 1 0 2.293 2.293l1.5-1.5a.5.5 0 1 1 .707.707l-1.5 1.5a2.622 2.622 0 0 1-3.707 0ZM9.5 6a.5.5 0 0 1 .5.5V8a.5.5 0 1 1-1 0V6.5a.5.5 0 0 1 .5-.5Zm-3 3a.5.5 0 0 0 0 1H8a.5.5 0 0 0 0-1H6.5Zm8 9a.5.5 0 0 1-.5-.5V16a.5.5 0 0 1 1 0v1.5a.5.5 0 0 1-.5.5Zm3-3a.5.5 0 0 0 0-1H16a.5.5 0 1 0 0 1h1.5Z" clip-rule="evenodd"/>
</svg>
