<svg xmlns="http://www.w3.org/2000/svg" width="24" height="24" fill="none" viewBox="0 0 24 24">
  <path fill="#000" d="m5.5 16.5-.354-.353A.5.5 0 0 0 5 16.5h.5Zm.004 1.996h-.5a.5.5 0 0 0 .5.5v-.5Zm1.996 0v.5a.5.5 0 0 0 .353-.147l-.353-.353ZM13 8l-.354.354.355.354.353-.355L13 8Zm3 3-.354-.352-.352.353.352.353L16 11ZM5 16.5l.004 1.996 1-.001L6 16.499 5 16.5Zm.504 2.496H7.5v-1H5.504v1Zm2.349-.147 6.001-5.995-.707-.707-6 5.995.706.707Zm6.001-6.702-2-2-.708.707 2 2 .707-.707h.001Zm-2.708-2-6 6 .708.707 6-6-.708-.707Zm-.51.197.51.51.707-.707-.51-.51-.707.707Zm3.728 2.313-.51-.51-.708.707.51.51.708-.707Zm1.98.707.02-.02-.708-.707-.02.02.708.707Zm-5.688-5.727-.02.02.707.707.02-.02-.707-.707Zm2.697.01-.01-.011-.707.708.01.01.707-.707Zm.001.706 1.87-1.88-.708-.705-1.87 1.88.708.705Zm3.01 2.304-.01-.01-.708.707.01.01.708-.707Zm1.16-1.897-1.878 1.888.709.705 1.878-1.888-.709-.705Zm-.003-2.29c.632.632.633 1.656.003 2.29l.709.705a2.62 2.62 0 0 0-.005-3.702l-.707.707Zm-6.158 1.874a.9.9 0 0 1 1.273 0l.707-.708a1.9 1.9 0 0 0-2.687.001l.707.707Zm5.001 5a1.9 1.9 0 0 0 0-2.687l-.708.707a.9.9 0 0 1 0 1.273l.708.707Zm-2.708.02a1.9 1.9 0 0 0 2.688 0l-.708-.707a.9.9 0 0 1-1.272 0l-.708.707Zm1.569-6.891a1.622 1.622 0 0 1 2.296-.003l.707-.707a2.62 2.62 0 0 0-3.712.005l.709.705Zm-3.882 3.164a.9.9 0 0 1 0-1.273l-.707-.707a1.9 1.9 0 0 0 0 2.687l.707-.707Z"/>
</svg>
