<svg xmlns="http://www.w3.org/2000/svg" width="24" height="24" fill="none" viewBox="0 0 24 24">
  <path fill="#000" fill-rule="evenodd" d="M7 8a1 1 0 0 1 1-1 .5.5 0 1 1 0 1 .5.5 0 1 1-1 0Zm2.5-.5A.5.5 0 0 1 10 7h1a.5.5 0 0 1 0 1h-1a.5.5 0 0 1-.5-.5Zm3 0A.5.5 0 0 1 13 7h1a.5.5 0 0 1 0 1h-1a.5.5 0 0 1-.5-.5Zm3 0A.5.5 0 0 1 16 7a1 1 0 0 1 1 1 .5.5 0 0 1-1 0 .5.5 0 0 1-.5-.5Zm-8 2a.5.5 0 0 1 .5.5v1a.5.5 0 0 1-1 0v-1a.5.5 0 0 1 .5-.5Zm9 0a.5.5 0 0 1 .5.5v1a.5.5 0 0 1-1 0v-1a.5.5 0 0 1 .5-.5Zm-9 3a.5.5 0 0 1 .5.5v1a.5.5 0 0 1-1 0v-1a.5.5 0 0 1 .5-.5Zm9 0a.5.5 0 0 1 .5.5v1a.5.5 0 0 1-1 0v-1a.5.5 0 0 1 .5-.5Zm-9 3a.5.5 0 0 1 .5.5.5.5 0 0 1 0 1 1 1 0 0 1-1-1 .5.5 0 0 1 .5-.5Zm9 0a.5.5 0 0 1 .5.5 1 1 0 0 1-1 1 .5.5 0 0 1 0-1 .5.5 0 0 1 .5-.5Zm-7 1a.5.5 0 0 1 .5-.5h1a.5.5 0 0 1 0 1h-1a.5.5 0 0 1-.5-.5Zm3 0a.5.5 0 0 1 .5-.5h1a.5.5 0 0 1 0 1h-1a.5.5 0 0 1-.5-.5Z" clip-rule="evenodd"/>
</svg>
