<svg xmlns="http://www.w3.org/2000/svg" width="24" height="24" fill="none" viewBox="0 0 24 24">
  <path fill="#000" fill-rule="evenodd" d="M5.5 10c.276 0 .533.223.64.477.045.102.1.218.173.348.24.435.613.938 1.12 1.414C8.443 13.184 9.954 14 12 14c2.045 0 3.558-.816 4.566-1.76.508-.477.88-.98 1.12-1.415a3.45 3.45 0 0 0 .172-.348c.11-.254.366-.477.642-.477s.495.225.417.49c-.202.682-.77 1.65-1.705 2.514l1.142 1.142a.5.5 0 0 1-.708.708l-1.217-1.218a7.42 7.42 0 0 1-1.89.958l.446 1.785a.5.5 0 0 1-.97.242l-.443-1.77c-.518.1-1.044.15-1.572.149a8.148 8.148 0 0 1-1.572-.15l-.443 1.771a.5.5 0 0 1-.97-.242l.446-1.785a7.421 7.421 0 0 1-1.89-.958l-1.217 1.218a.5.5 0 1 1-.708-.708l1.142-1.142c-.935-.864-1.503-1.832-1.705-2.514-.078-.265.14-.49.417-.49Z" clip-rule="evenodd"/>
</svg>
