<svg xmlns="http://www.w3.org/2000/svg" width="24" height="24" fill="none" viewBox="0 0 24 24">
  <path fill="#000" fill-rule="evenodd" d="M6 15.977V8.174l.059-.065c.11-.117.285-.28.53-.443C7.078 7.341 7.858 7 9 7c1.142 0 1.923.341 2.41.666a3 3 0 0 1 .595.513L12 8.25v7.727l-.07-.04c-.634-.352-1.592-.687-2.93-.687s-2.296.335-2.93.688l-.07.039Zm7 0 .07-.04c.634-.352 1.592-.687 2.93-.687s2.296.335 2.93.688l.07.04V8.173l-.059-.065a3 3 0 0 0-.53-.443C17.922 7.341 17.142 7 16 7c-1.142 0-1.923.341-2.41.666a3 3 0 0 0-.595.513L13 8.25v7.727Zm-1.035-9.143a4 4 0 0 1 .535.422c.14-.13.318-.277.535-.422C13.673 6.409 14.643 6 16 6c1.357 0 2.327.409 2.965.834.317.211.548.424.703.588.08.085.156.174.226.268l.014.02.005.008.002.003L19.5 8l.416-.277A.5.5 0 0 1 20 8v9a.5.5 0 0 1-.888.316l-.002-.003-.022-.024a1.972 1.972 0 0 0-.114-.11 3.001 3.001 0 0 0-.53-.367c-.49-.272-1.282-.562-2.444-.562s-1.954.29-2.445.562c-.246.137-.42.272-.529.368a2.008 2.008 0 0 0-.136.133l-.002.003a.499.499 0 0 1-.776 0l-.002-.003-.022-.024a1.972 1.972 0 0 0-.114-.11 3.001 3.001 0 0 0-.53-.367c-.49-.272-1.282-.562-2.444-.562s-1.954.29-2.445.562c-.246.137-.42.272-.529.368a2.003 2.003 0 0 0-.136.133l-.002.003A.5.5 0 0 1 5 17V8a.5.5 0 0 1 .084-.277l.001-.003.002-.002.005-.007.014-.02.049-.064c.04-.052.1-.123.177-.205.155-.164.386-.377.703-.588C6.673 6.409 7.643 6 9 6c1.357 0 2.327.409 2.965.834Z" clip-rule="evenodd"/>
</svg>
