<svg xmlns="http://www.w3.org/2000/svg" width="24" height="24" fill="none" viewBox="0 0 24 24">
  <path fill="#000" fill-rule="evenodd" d="M8.5 5a.5.5 0 0 0-.5.5V12h8.502a.498.498 0 0 0 .498-.5v-6a.5.5 0 0 0-.5-.5h-8ZM8 13h9a1 1 0 0 0 1-1V5.5A1.5 1.5 0 0 0 16.5 4h-8A1.5 1.5 0 0 0 7 5.5v10A1.5 1.5 0 0 0 8.5 17H9v2.5a.5.5 0 0 0 .5.5h.5l.945-.63a1 1 0 0 1 1.11 0L13 20h.5a.5.5 0 0 0 .5-.5V17h3.5a.5.5 0 0 0 0-1H14v-1h2.5a.5.5 0 0 0 0-1H9v2h-.5a.5.5 0 0 1-.5-.5V13Zm5 2h-3v3.566l.92-.654a1 1 0 0 1 1.16 0l.92.654V15Z" clip-rule="evenodd"/>
</svg>
