<svg xmlns="http://www.w3.org/2000/svg" width="24" height="24" fill="none" viewBox="0 0 24 24">
  <path fill="#000" fill-rule="evenodd" d="M11.5 5a.5.5 0 0 1 .707 0l1.647 1.646a.5.5 0 0 1 0 .708L12.207 9a.5.5 0 0 1-.707-.707l.793-.793H10c-.503 0-1.27.155-1.895.606C7.505 8.538 7 9.263 7 10.5v6.75a.5.5 0 0 1-1 0V10.5c0-1.563.662-2.588 1.52-3.206.833-.6 1.817-.794 2.48-.794h2.293l-.793-.793a.5.5 0 0 1 0-.707Zm6 1a.5.5 0 0 1 .5.5v6.75c0 1.563-.662 2.588-1.52 3.206-.833.6-1.817.794-2.48.794h-2.293l.793.793a.5.5 0 1 1-.707.707l-1.647-1.646a.5.5 0 0 1 0-.708l1.647-1.646a.5.5 0 0 1 .707.707l-.793.793H14c.503 0 1.27-.155 1.895-.606.6-.432 1.105-1.157 1.105-2.394V6.5a.5.5 0 0 1 .5-.5Z" clip-rule="evenodd"/>
</svg>
