<svg xmlns="http://www.w3.org/2000/svg" width="24" height="24" fill="none" viewBox="0 0 24 24">
  <path fill="#000" fill-rule="evenodd" d="M15 14.75c0 .138.112.25.25.25h.25a.5.5 0 0 1 0 1h-.25c-.69 0-1.25-.56-1.25-1.25v-6.5c0-.69.56-1.25 1.25-1.25h.25a.5.5 0 0 1 0 1h-.25a.25.25 0 0 0-.25.25v6.5Zm-8 .75a.5.5 0 0 1 .5-.5h.25a.25.25 0 0 0 .25-.25v-6.5A.25.25 0 0 0 7.75 8H7.5a.5.5 0 1 1 0-1h.25C8.44 7 9 7.56 9 8.25v6.5C9 15.44 8.44 16 7.75 16H7.5a.5.5 0 0 1-.5-.5Zm4-2a.5.5 0 0 0 1 0v-4a.5.5 0 0 0-1 0v4Z" clip-rule="evenodd"/>
</svg>
