<svg xmlns="http://www.w3.org/2000/svg" width="24" height="24" fill="none" viewBox="0 0 24 24">
  <path fill="#000" fill-rule="evenodd" d="M11.148 4.528c.275-.816 1.429-.816 1.705 0l1.507 4.471h4.989c.86 0 1.23 1.091.548 1.615l-4.078 3.128 1.502 4.617c.253.778-.566 1.433-1.25 1.089l-.135-.082L12 16.499l-3.935 2.867-.135.082c-.685.344-1.504-.311-1.251-1.09l1.502-4.616-4.077-3.128c-.64-.491-.355-1.48.392-1.602L4.651 9H9.64l1.508-4.471Zm-.79 5.471H4.946l4.404 3.38-1.625 4.995L12 15.262l4.274 3.112-1.624-4.995L19.054 10h-5.411L12 5.13 10.357 10Z" clip-rule="evenodd"/>
</svg>
