<svg xmlns="http://www.w3.org/2000/svg" width="24" height="24" fill="none" viewBox="0 0 24 24">
  <path fill="#000" d="M12 5c1.73 0 3.331.548 4.64 1.481l.774-.774a1 1 0 0 1 1.414 0l.707.707a1 1 0 0 1 0 1.414l-.82.821A8 8 0 1 1 12 5Zm0 1a7 7 0 1 0 5.263 2.385l-.648-.648A6.973 6.973 0 0 0 12 6Zm0 2a.5.5 0 0 1 .5.5V13a.5.5 0 0 1-1 0V8.5A.5.5 0 0 1 12 8Zm6.298-1.41a.25.25 0 0 0-.354 0l-.524.525c.2.185.391.38.572.584l.13.13.53-.531a.25.25 0 0 0 0-.354l-.354-.353ZM14.5 3a.5.5 0 0 1 0 1h-5a.5.5 0 0 1 0-1h5Z"/>
</svg>
