<svg xmlns="http://www.w3.org/2000/svg" width="24" height="24" fill="none" viewBox="0 0 24 24">
  <path fill="#000" fill-rule="evenodd" d="M17 16a6.821 6.821 0 0 1-2-4.828V10a3 3 0 0 0-6 0v1.172A6.83 6.83 0 0 1 7 16h10Z" clip-rule="evenodd" opacity=".2"/>
  <path fill="#000" fill-rule="evenodd" d="M12.992 6.124a1 1 0 1 0-1.984 0A4 4 0 0 0 8 10v1.172a5.83 5.83 0 0 1-1.707 4.12A1 1 0 0 0 7 17h10a1 1 0 0 0 .707-1.707A5.83 5.83 0 0 1 16 11.173V10a4 4 0 0 0-3.008-3.876ZM17 16a6.82 6.82 0 0 1-2-4.828V10a3 3 0 0 0-6 0v1.172A6.83 6.83 0 0 1 7 16h10Z" clip-rule="evenodd"/>
  <path fill="#000" d="M10.586 19.414A2 2 0 0 1 10 18h4a2 2 0 0 1-3.414 1.414Z"/>
</svg>
