<svg xmlns="http://www.w3.org/2000/svg" width="24" height="24" fill="none" viewBox="0 0 24 24">
  <path fill="#000" d="M13.5 11h-2a2.502 2.502 0 0 0-1.769 4.268A2.502 2.502 0 0 0 11.5 16h4.002a2.502 2.502 0 0 0 2.111-3.845 2.501 2.501 0 0 0-1.394-1.051.5.5 0 0 1 .286-.958A3.502 3.502 0 0 1 15.502 17H11.5a3.502 3.502 0 0 1-3.501-3.5A3.5 3.5 0 0 1 11.5 10h2v1Zm-2-5a3.502 3.502 0 0 1 3.502 3.5h-1A2.5 2.5 0 0 0 11.5 7H7.498a2.502 2.502 0 0 0-2.112 3.845c.324.506.819.88 1.395 1.051a.5.5 0 1 1-.286.958A3.502 3.502 0 0 1 7.498 6H11.5Z"/>
  <path fill="#000" d="M18.146 5.146a.5.5 0 0 1 .707.707l-13 13a.5.5 0 0 1-.707-.707l13-13Z"/>
</svg>
