<svg xmlns="http://www.w3.org/2000/svg" width="24" height="24" fill="none" viewBox="0 0 24 24">
  <path fill="#000" d="M12.76 5.354A1.027 1.027 0 0 0 12 5v14c.29 0 .575-.133.76-.355l5.016-6.03a.964.964 0 0 0 .224-.616.964.964 0 0 0-.224-.615l-5.016-6.03Z" opacity=".2"/>
  <path fill="#000" d="M12.001 5c.301 0 .559.138.758.354h.001l5.016 6.03a.965.965 0 0 1 .224.615c0 .225-.08.442-.224.616l-5.017 6.03A.997.997 0 0 1 12 19c-.302 0-.559-.139-.76-.355l-5.017-6.03a.966.966 0 0 1 0-1.23l5.019-6.03A.99.99 0 0 1 12 5Zm0 .97L6.983 12 12 18.029l5.017-6.03L12 5.971Z"/>
</svg>
