<svg xmlns="http://www.w3.org/2000/svg" width="24" height="24" fill="none" viewBox="0 0 24 24">
  <path fill="#000" d="M5.5 9.5a4 4 0 0 1 4-4H11V11H5.5V9.5Zm9-4a4 4 0 0 1 4 4V11H13V5.5h1.5Zm4 9a4 4 0 0 1-4 4H13V13h5.5v1.5Zm-9 4a4 4 0 0 1-4-4V13H11v5.5H9.5Z" opacity=".2"/>
  <path fill="#000" d="M5 10.5v-1A4.5 4.5 0 0 1 9.5 5h1a.5.5 0 0 1 0 1h-1A3.5 3.5 0 0 0 6 9.5v1a.5.5 0 0 1-1 0Zm14 3v1a4.5 4.5 0 0 1-4.5 4.5h-1a.5.5 0 0 1 0-1h1a3.5 3.5 0 0 0 3.5-3.5v-1a.5.5 0 0 1 1 0ZM13.5 5h1A4.5 4.5 0 0 1 19 9.5v1a.5.5 0 0 1-1 0v-1A3.5 3.5 0 0 0 14.5 6h-1a.5.5 0 0 1 0-1Zm-3 14h-1A4.5 4.5 0 0 1 5 14.5v-1a.5.5 0 0 1 1 0v1A3.5 3.5 0 0 0 9.5 18h1a.5.5 0 0 1 0 1Z"/>
</svg>
