<svg xmlns="http://www.w3.org/2000/svg" width="24" height="24" fill="none" viewBox="0 0 24 24">
  <path fill="#000" d="M8.564 5h2.435L11 8.077c0 .669.07.911.2 1.156.131.244.323.436.567.567.245.13.487.2 1.156.2H16v6.436l-.005.336c-.013.39-.055.568-.144.733a.824.824 0 0 1-.346.346c-.165.089-.343.13-.733.144l-.336.005H8.564l-.336-.005c-.39-.013-.568-.055-.733-.144a.824.824 0 0 1-.346-.346c-.11-.207-.149-.433-.149-1.069V6.564c0-.636.038-.862.149-1.07a.824.824 0 0 1 .346-.345C7.702 5.039 7.928 5 8.564 5Z" opacity=".2"/>
  <path fill="#000" d="m11 4-.001 1H8.564c-.636 0-.862.038-1.07.149a.824.824 0 0 0-.345.346C7.039 5.702 7 5.928 7 6.564v9.872c0 .636.038.862.149 1.07.08.15.195.265.346.345.207.11.433.149 1.069.149h5.872l.336-.005c.39-.013.568-.055.733-.144a.824.824 0 0 0 .346-.346c.11-.207.149-.433.149-1.069V10h1v6.436c0 .786-.063 1.16-.267 1.54a1.82 1.82 0 0 1-.756.757c-.381.204-.755.267-1.54.267H8.563c-.786 0-1.16-.063-1.54-.267a1.824 1.824 0 0 1-.757-.756c-.185-.347-.254-.687-.265-1.336L6 6.564c0-.786.063-1.16.267-1.54.174-.325.432-.583.756-.757.347-.185.687-.254 1.336-.265L11 4Z"/>
  <path fill="#000" d="M11.827 4.032a.87.87 0 0 1 .273.113c.086.054.156.11.338.293l4.124 4.124c.182.182.239.252.293.338a.868.868 0 0 1 .113.273c.023.1.032.188.032.447V10h-4.077c-.669 0-.911-.07-1.156-.2a1.363 1.363 0 0 1-.567-.567c-.13-.245-.2-.487-.2-1.156V4h.38c.259 0 .348.01.447.032ZM12 5.414v2.804c.005.3.023.414.063.505l.02.038c.037.07.086.12.156.157.113.06.225.082.684.082h2.663L12 5.414Z"/>
</svg>
