<svg xmlns="http://www.w3.org/2000/svg" width="24" height="24" fill="none" viewBox="0 0 24 24">
  <path fill="#000" d="M11.5 14.5a3 3 0 1 0 0-6 3 3 0 0 0 0 6Z" opacity=".2"/>
  <path fill="#000" d="M11.5 16a.5.5 0 0 1 .5.5V18a.5.5 0 0 1-1 0v-1.5a.5.5 0 0 1 .5-.5Zm-3.89-1.317a.5.5 0 0 1 .707.707l-1.06 1.06a.5.5 0 1 1-.706-.708l1.06-1.06Zm7.073 0a.5.5 0 0 1 .629-.065l.078.065 1.06 1.06a.5.5 0 1 1-.708.706l-1.06-1.06-.064-.077a.5.5 0 0 1 .065-.63Z"/>
  <path fill="#000" fill-rule="evenodd" d="M11.5 8a3.5 3.5 0 1 1 0 7 3.5 3.5 0 0 1 0-7Zm0 1a2.5 2.5 0 1 0 0 5 2.5 2.5 0 0 0 0-5Z" clip-rule="evenodd"/>
  <path fill="#000" d="M6.5 11a.5.5 0 0 1 0 1H5a.5.5 0 0 1 0-1h1.5ZM18 11a.5.5 0 0 1 0 1h-1.5a.5.5 0 0 1 0-1H18ZM6.55 6.55a.501.501 0 0 1 .708 0l1.06 1.06.065.078a.5.5 0 0 1-.772.63l-1.06-1.06a.5.5 0 0 1-.001-.707Zm9.192 0a.5.5 0 1 1 .707.708l-1.06 1.06a.5.5 0 1 1-.706-.708l1.06-1.06ZM11.5 4.5a.5.5 0 0 1 .5.5v1.5a.5.5 0 0 1-1 0V5a.5.5 0 0 1 .5-.5Z"/>
</svg>
