<svg xmlns="http://www.w3.org/2000/svg" width="24" height="24" fill="none" viewBox="0 0 24 24">
  <path fill="#000" fill-rule="evenodd" d="M18.007 5.245a1.5 1.5 0 0 0-1.647.346l-.006.006-2.123 2.121a.5.5 0 0 1-.707 0l-.707-.707a.5.5 0 0 0-.708.707l1.064 1.061.026.029 3.155 3.153a.5.5 0 1 0 .707-.707l-.707-.707a.5.5 0 0 1 0-.707l2.127-2.128a1.5 1.5 0 0 0-.474-2.467Z" clip-rule="evenodd" opacity=".2"/>
  <path fill="#000" fill-rule="evenodd" d="M18.007 5.245a1.5 1.5 0 0 0-1.647.346l-.006.006-2.123 2.121a.5.5 0 0 1-.707 0l-.707-.707a.5.5 0 0 0-.708.707l1.064 1.061.026.029 3.155 3.153a.5.5 0 1 0 .707-.707l-.707-.707a.5.5 0 0 1 0-.707l2.127-2.128a1.5 1.5 0 0 0-.474-2.467Zm-5.883 3.9-.721-.719a1.501 1.501 0 0 1 2.12-2.122l.354.353 1.767-1.764a2.501 2.501 0 1 1 3.535 3.535l-1.764 1.765.353.354a1.5 1.5 0 1 1-2.122 2.12l-.719-.718-7.08 6.581c-.094.09-.2.165-.315.226l-.395.212c-1.31.704-2.733-.722-2.032-2.03l.212-.396a1.43 1.43 0 0 1 .226-.316l6.581-7.08Zm2.096 2.096-1.39-1.387-6.56 7.059a.431.431 0 0 0-.07.096l-.001.003-.213.398c-.234.436.24.911.676.677l.402-.215a.429.429 0 0 0 .096-.07l.004-.003 7.055-6.558Z" clip-rule="evenodd"/>
</svg>
