<svg xmlns="http://www.w3.org/2000/svg" width="24" height="24" fill="none" viewBox="0 0 24 24">
  <path fill="#000" d="M5.499 14.5a.5.5 0 0 1 .49.398L6 15l.002 1.975c0 .006.003.012.004.018a.91.91 0 0 0 .135.008H8a.5.5 0 0 1 0 1H6.14c-.259 0-.433-.028-.617-.126v.002a.956.956 0 0 1-.399-.398l-.004-.007a1.089 1.089 0 0 1-.117-.512l-.001.001L5 15.001l.01-.102a.5.5 0 0 1 .489-.399ZM17 16.86V15a.5.5 0 0 1 1 0v1.86c0 .258-.028.433-.126.616h.002a.953.953 0 0 1-.276.323l-.122.077c-.182.097-.356.124-.619.124H15a.5.5 0 0 1 0-1h1.86c.07 0 .11-.005.132-.008a.923.923 0 0 0 .008-.133ZM5 8V6.14c0-.259.028-.433.126-.617h-.002a.96.96 0 0 1 .397-.399l.008-.004c.158-.08.334-.12.511-.117L7.999 5a.5.5 0 0 1 .002 1l-1.975.002c-.006 0-.013.003-.02.004A1.079 1.079 0 0 0 6 6.14V8a.5.5 0 0 1-1 0Zm12 0V6.14a.936.936 0 0 0-.008-.133L16.86 6H15a.5.5 0 0 1 0-1h1.86l.181.006c.166.012.298.047.435.12v-.002c.17.09.31.228.4.397l.06.137c.05.139.064.286.064.483V8a.5.5 0 0 1-1 0Z"/>
  <path fill="#000" d="M13.5 17a.5.5 0 0 1 0 1h-4a.5.5 0 0 1 0-1h4ZM5 13.5v-4a.5.5 0 0 1 1 0v4a.5.5 0 0 1-1 0Zm12 0v-4a.5.5 0 0 1 1 0v4a.5.5 0 0 1-1 0ZM13.5 5a.5.5 0 0 1 0 1h-4a.5.5 0 0 1 0-1h4Z" opacity=".2"/>
</svg>
