<svg xmlns="http://www.w3.org/2000/svg" width="24" height="24" fill="none" viewBox="0 0 24 24">
  <path fill="#000" fill-rule="evenodd" d="M5.001 9h13v8h-13V9Z" clip-rule="evenodd" opacity=".2"/>
  <path fill="#000" fill-rule="evenodd" d="M8.294 5c.17 0 .32.016.46.05a1.365 1.365 0 0 1 .567.288l.36.324a1.36 1.36 0 0 0 .568.288c.139.034.29.05.46.05h5.727c.892 0 1.216.093 1.54.267.328.174.584.43.758.756.174.326.267.65.267 1.54v6.872c0 .892-.093 1.216-.267 1.54-.17.323-.434.588-.757.758-.325.174-.65.267-1.538.267H6.564c-.891 0-1.215-.093-1.54-.267a1.821 1.821 0 0 1-.757-.756c-.174-.326-.267-.65-.267-1.54V7.315c0-.593.093-.967.267-1.293.174-.326.43-.582.756-.756.328-.173.7-.266 1.294-.266h1.977ZM5.002 15.606c.007.53.048.712.148.9a.817.817 0 0 0 .346.345c.205.11.407.149 1.07.149h9.87c.663 0 .865-.04 1.07-.15a.817.817 0 0 0 .346-.345c.11-.205.149-.407.149-1.07V9h-13v6.606ZM6.317 6c-.41 0-.632.048-.82.15a.817.817 0 0 0-.347.345c-.1.19-.149.41-.149.821V8h12.98c-.021-.246-.06-.375-.13-.506a.817.817 0 0 0-.345-.345c-.187-.1-.37-.141-.9-.148L10.71 7a2.903 2.903 0 0 1-.697-.078 2.368 2.368 0 0 1-.668-.277 2.9 2.9 0 0 1-.55-.438.945.945 0 0 0-.17-.14.368.368 0 0 0-.108-.046A.945.945 0 0 0 8.294 6H6.317Z" clip-rule="evenodd"/>
</svg>
