<svg xmlns="http://www.w3.org/2000/svg" width="24" height="24" fill="none" viewBox="0 0 24 24">
  <path fill="#000" d="M18 11.5a6.5 6.5 0 1 0-13 0 6.5 6.5 0 0 0 13 0Zm1 0a7.5 7.5 0 1 1-15 0 7.5 7.5 0 0 1 15 0Z"/>
  <path fill="#000" d="M18 11.5a6.5 6.5 0 1 0-13 0 6.5 6.5 0 0 0 13 0Z" opacity=".2"/>
  <path fill="#000" fill-rule="evenodd" d="M9.35 9.904h.98c.043-.606.465-.99 1.118-.99.649 0 1.07.379 1.07.9 0 .478-.203.748-.776 1.094-.65.388-.938.815-.914 1.497l.004.36h.98v-.285c0-.478.176-.729.787-1.089.625-.374.995-.89.995-1.62C13.594 8.744 12.75 8 11.5 8c-1.373 0-2.107.815-2.15 1.904ZM11.382 15c.436 0 .73-.289.73-.72 0-.44-.294-.73-.73-.73s-.734.29-.734.73c0 .431.298.72.734.72Z" clip-rule="evenodd"/>
</svg>
