<svg xmlns="http://www.w3.org/2000/svg" width="24" height="24" fill="none" viewBox="0 0 24 24">
  <path fill="#000" d="m17.4 5 .37.002c.326.005.524.026.684.107.188.096.34.249.437.437C19 5.76 19 6.04 19 6.6v7.8l-.002.37c-.005.326-.026.524-.107.684l-.082.134a1 1 0 0 1-.355.303l-.084.036c-.146.052-.328.067-.6.071L17.4 16H13v-1h4.4c.297 0 .46-.001.576-.01l.011-.003.002-.011c.01-.117.011-.28.011-.576V6.6c0-.297-.001-.459-.01-.576l-.003-.012-.011-.001A8.102 8.102 0 0 0 17.4 6H5.6c-.297 0-.459.001-.576.01l-.012.002-.001.012C5 6.141 5 6.304 5 6.6v7.8c0 .297.001.46.01.576l.002.011.012.002c.117.01.28.011.576.011H10v1H5.6c-.56 0-.84 0-1.054-.11a.999.999 0 0 1-.355-.302l-.082-.134c-.081-.16-.102-.358-.107-.684L4 14.4V6.6c0-.49 0-.766.073-.97l.036-.084a1 1 0 0 1 .303-.355l.134-.082C4.76 5 5.04 5 5.6 5h11.8Z"/>
  <path fill="#000" d="m8.646 12.647 2.5-2.5a.499.499 0 0 1 .708 0l2.5 2.5a.503.503 0 0 1 0 .708.5.5 0 0 1-.708 0L12 11.709V18.5a.5.5 0 1 1-1 0v-6.792l-1.646 1.646a.5.5 0 0 1-.638.057l-.07-.057a.5.5 0 0 1 0-.708Z"/>
</svg>
