<svg xmlns="http://www.w3.org/2000/svg" width="24" height="24" fill="none" viewBox="0 0 24 24">
  <path fill="#000" fill-rule="evenodd" d="M5 5.5a.5.5 0 0 0 .5.5h12a.5.5 0 0 0 0-1h-12a.5.5 0 0 0-.5.5Z" clip-rule="evenodd"/>
  <path fill="#000" fill-rule="evenodd" d="M6.5 16.745c0 .278.015.396.074.508.285.232.403.247.68.247.72 0 .867-.004.999-.074.232-.285.247-.403.247-.68V8.254c0-.278-.015-.396-.074-.508-.285-.232-.403-.247-.68-.247h-.294c-.47.003-.593.015-.705.074-.232.285-.247.403-.247.68v8.492Zm4-4.001c0 .278.015.396.074.508.285.232.403.247.68.247.72 0 .867-.004.999-.074.232-.285.247-.403.247-.68V8.253c0-.278-.015-.396-.074-.508-.285-.232-.403-.247-.68-.247h-.294c-.47.003-.593.015-.705.074-.232.285-.247.403-.247.68v4.492Zm4 2.001c0 .278.015.396.074.508.285.232.403.247.68.247.72 0 .867-.004.999-.074.232-.285.247-.403.247-.68V8.254c0-.278-.015-.396-.074-.508-.285-.232-.403-.247-.68-.247h-.294c-.47.003-.593.015-.705.074-.232.285-.247.403-.247.68v6.492Z" clip-rule="evenodd" opacity=".2"/>
  <path fill="#000" d="M15.254 15a.624.624 0 0 1-.18-.012.347.347 0 0 1-.066-.037 2.414 2.414 0 0 1-.008-.206V8.253c0-.14.007-.165.012-.18a.292.292 0 0 1 .033-.062 6.66 6.66 0 0 1 .41-.012h.291c.14 0 .165.007.18.012a.23.23 0 0 1 .065.036c.004.043.009.107.009.207v6.492a.625.625 0 0 1-.012.18.353.353 0 0 1-.035.062l-.013.002c-.122.009-.319.01-.686.01Zm-4-1.996a.624.624 0 0 1-.18-.012.347.347 0 0 1-.066-.037A2.458 2.458 0 0 1 11 12.75V8.257c0-.14.007-.165.012-.18a.292.292 0 0 1 .033-.062c.077-.007.199-.01.41-.012h.291c.14 0 .165.007.18.012a.23.23 0 0 1 .065.036c.004.043.009.106.009.207v4.492a.625.625 0 0 1-.012.18.353.353 0 0 1-.035.062l-.013.002c-.122.008-.319.01-.686.01Zm-4 3.996a.624.624 0 0 1-.18-.012.342.342 0 0 1-.066-.037A2.43 2.43 0 0 1 7 16.745V8.253c0-.14.007-.165.012-.18a.288.288 0 0 1 .033-.062 6.11 6.11 0 0 1 .41-.012h.291c.14 0 .165.007.18.012a.23.23 0 0 1 .065.036c.004.043.009.107.009.207v8.492a.623.623 0 0 1-.012.18.35.35 0 0 1-.035.062l-.013.002c-.122.009-.319.01-.686.01Zm8-1c.352 0 .59 0 .754-.012a1.13 1.13 0 0 0 .48-.12l.09-.048.063-.079c.13-.16.237-.316.298-.502a1.53 1.53 0 0 0 .061-.493V8.254c0-.276-.01-.509-.132-.741l-.047-.09-.08-.065a1.578 1.578 0 0 0-.502-.297 1.522 1.522 0 0 0-.493-.062h-.297c-.424.003-.691.003-.935.132l-.09.047-.065.08c-.13.16-.236.316-.297.502-.06.184-.062.356-.062.493v6.492c0 .241.007.45.09.653l.042.088.047.09.08.065c.16.13.316.236.502.297.184.06.356.062.493.062Zm-4-1.996c.352 0 .59 0 .754-.012a1.13 1.13 0 0 0 .48-.12l.09-.048.063-.079c.13-.16.236-.316.297-.502.06-.184.062-.356.062-.493V8.258c0-.276-.01-.509-.132-.741l-.047-.09-.08-.065a1.578 1.578 0 0 0-.502-.298 1.522 1.522 0 0 0-.493-.061h-.297c-.424.003-.691.003-.935.132l-.09.047-.065.08c-.13.16-.236.316-.297.502a1.53 1.53 0 0 0-.062.493v4.492c0 .241.007.45.09.653l.042.088.047.09.08.065c.16.13.316.236.502.297.184.06.356.062.493.062Zm-4 3.996c.352 0 .59 0 .754-.012a1.13 1.13 0 0 0 .48-.12l.09-.048.063-.079c.13-.16.237-.316.297-.502.06-.184.062-.356.062-.493V8.254c0-.276-.01-.509-.132-.741l-.047-.09-.08-.065a1.578 1.578 0 0 0-.502-.297 1.522 1.522 0 0 0-.493-.062H7.45l-.29.004c-.266.007-.462.032-.645.128l-.09.047-.065.08c-.13.16-.237.316-.297.502-.06.184-.062.356-.062.493v8.492c0 .241.007.45.09.653l.042.088.047.09.08.065c.16.13.316.237.502.298.184.06.356.061.493.061Z"/>
</svg>
