<svg xmlns="http://www.w3.org/2000/svg" width="24" height="24" fill="none" viewBox="0 0 24 24">
  <path fill="#000" fill-rule="evenodd" d="M17.5 5a.5.5 0 0 0-.5.5v12a.5.5 0 0 0 1 0v-12a.5.5 0 0 0-.5-.5Z" clip-rule="evenodd"/>
  <path fill="#000" fill-rule="evenodd" d="M6.255 6.5c-.278 0-.396.015-.508.074-.232.285-.247.403-.247.68 0 .72.004.867.074.999.285.232.403.247.68.247h8.492c.278 0 .396-.015.508-.074.232-.285.247-.403.247-.68v-.294c-.003-.47-.015-.593-.074-.705-.285-.232-.403-.247-.68-.247H6.255Zm4.001 4c-.278 0-.396.015-.508.074-.232.285-.247.403-.247.68 0 .72.004.867.074.999.285.232.403.247.68.247h4.492c.278 0 .396-.015.508-.074.232-.285.247-.403.247-.68v-.294c-.003-.47-.015-.593-.074-.705-.285-.232-.403-.247-.68-.247h-4.492Zm-2.001 4c-.278 0-.396.015-.508.074-.232.285-.247.403-.247.68 0 .72.004.867.074.999.285.232.403.247.68.247h6.492c.278 0 .396-.015.508-.074.232-.285.247-.403.247-.68v-.294c-.003-.47-.015-.593-.074-.705-.285-.232-.403-.247-.68-.247H8.255Z" clip-rule="evenodd" opacity=".2"/>
  <path fill="#000" d="M8 15.254c0-.14.007-.165.012-.18a.34.34 0 0 1 .037-.066c.043-.004.106-.008.206-.008h6.492c.14 0 .165.007.18.012.008.002.026.01.062.033.006.077.01.199.012.41v.291a.625.625 0 0 1-.012.18.328.328 0 0 1-.036.065 2.119 2.119 0 0 1-.207.009H8.254a.624.624 0 0 1-.18-.012.35.35 0 0 1-.062-.035l-.002-.013C8 15.818 8 15.621 8 15.254Zm1.996-4c0-.14.007-.165.012-.18a.347.347 0 0 1 .037-.066c.043-.004.107-.008.206-.008h4.492c.14 0 .165.007.18.012.009.002.026.01.062.033.007.077.01.199.012.41v.291a.625.625 0 0 1-.012.18.328.328 0 0 1-.036.065 2.119 2.119 0 0 1-.207.009H10.25a.625.625 0 0 1-.18-.012.353.353 0 0 1-.062-.035l-.002-.013c-.008-.122-.01-.319-.01-.686ZM6 7.254c0-.14.007-.165.012-.18a.336.336 0 0 1 .037-.066c.043-.004.106-.008.206-.008h8.492c.14 0 .165.007.18.012.008.002.026.01.062.033.006.077.01.199.012.41v.291c0 .14-.007.165-.012.18a.327.327 0 0 1-.036.065 2.119 2.119 0 0 1-.207.009H6.254a.622.622 0 0 1-.18-.012.347.347 0 0 1-.062-.035L6.01 7.94C6 7.818 6 7.621 6 7.254Zm1 8c0 .352 0 .59.012.754.012.177.039.326.12.48l.048.09.079.063c.16.13.316.237.502.298.184.06.356.061.493.061h6.492c.276 0 .509-.01.741-.132l.09-.047.065-.08c.13-.16.237-.316.298-.502a1.53 1.53 0 0 0 .061-.493v-.297c-.003-.424-.003-.691-.132-.935l-.047-.09-.08-.065a1.577 1.577 0 0 0-.502-.297 1.523 1.523 0 0 0-.493-.062H8.255c-.241 0-.45.007-.653.09l-.088.042-.09.047-.065.08c-.13.16-.237.316-.297.502-.06.184-.062.356-.062.493Zm1.996-4c0 .352 0 .59.012.754.012.177.039.326.12.48l.048.09.079.063c.16.13.316.236.502.297.184.06.356.062.493.062h4.492c.276 0 .509-.01.741-.132l.09-.047.065-.08c.13-.16.237-.316.297-.502a1.52 1.52 0 0 0 .062-.493v-.297c-.003-.424-.003-.691-.132-.935l-.047-.09-.08-.065a1.577 1.577 0 0 0-.502-.297 1.523 1.523 0 0 0-.493-.062h-4.492c-.241 0-.45.007-.653.09l-.088.042-.09.047-.065.08c-.13.16-.236.316-.297.502-.06.184-.062.356-.062.493ZM5 7.254c0 .352 0 .59.012.754.012.177.039.326.12.48l.048.09.079.063c.16.13.316.237.502.297.184.06.356.062.493.062h8.492c.276 0 .509-.01.741-.132l.09-.047.065-.08c.13-.16.237-.316.298-.502a1.53 1.53 0 0 0 .061-.493V7.45l-.004-.29c-.007-.266-.031-.462-.128-.645l-.047-.09-.08-.065a1.577 1.577 0 0 0-.502-.297A1.521 1.521 0 0 0 14.747 6H6.255c-.241 0-.45.007-.653.09l-.088.042-.09.047-.065.08c-.13.16-.237.316-.297.502-.06.184-.062.356-.062.493Z"/>
</svg>
