<svg xmlns="http://www.w3.org/2000/svg" width="24" height="24" fill="none" viewBox="0 0 24 24">
  <path fill="#000" fill-rule="evenodd" d="M5.999 11.5a.5.5 0 0 1 .5-.5h1a.5.5 0 0 1 0 1h-1a.5.5 0 0 1-.5-.5Zm3 0a.5.5 0 0 1 .5-.5h2a.5.5 0 0 1 0 1h-2a.5.5 0 0 1-.5-.5Zm4 0a.5.5 0 0 1 .5-.5h2a.5.5 0 0 1 0 1h-2a.5.5 0 0 1-.5-.5Zm4 0a.5.5 0 0 1 .5-.5h1a.5.5 0 0 1 0 1h-1a.5.5 0 0 1-.5-.5Z" clip-rule="evenodd"/>
  <path fill="#000" fill-rule="evenodd" d="M7.499 7.255c0-.278.015-.396.074-.508.285-.232.403-.247.68-.247.72 0 .867.004.999.074.232.285.247.403.247.68v8.492c0 .278-.015.396-.074.508-.285.232-.403.247-.68.247h-.294c-.47-.003-.593-.015-.705-.074-.232-.285-.247-.403-.247-.68V7.255Zm4 2c0-.278.015-.396.074-.508.285-.232.403-.247.68-.247.72 0 .867.004.999.074.232.285.247.403.247.68v4.492c0 .278-.015.396-.074.508-.285.232-.403.247-.68.247h-.294c-.47-.003-.593-.015-.705-.074-.232-.285-.247-.403-.247-.68V9.255Zm4-1c0-.278.015-.396.074-.508.285-.232.403-.247.68-.247.72 0 .867.004.999.074.232.285.247.403.247.68v6.492c0 .278-.015.396-.074.508-.285.232-.403.247-.68.247h-.294c-.47-.003-.593-.015-.705-.074-.232-.285-.247-.403-.247-.68V8.255Z" clip-rule="evenodd" opacity=".2"/>
  <path fill="#000" d="M16.253 8a.621.621 0 0 0-.18.012.336.336 0 0 0-.066.037 2.455 2.455 0 0 0-.008.206v6.492c0 .14.007.165.012.18.002.008.01.026.033.062.077.006.199.01.41.012h.291c.14 0 .165-.007.18-.012a.325.325 0 0 0 .065-.036c.004-.043.009-.107.009-.207V8.254a.624.624 0 0 0-.012-.18.35.35 0 0 0-.035-.062l-.013-.002C16.817 8 16.62 8 16.253 8Zm-4 1a.621.621 0 0 0-.18.012.336.336 0 0 0-.066.037 2.455 2.455 0 0 0-.008.206v4.492c0 .14.007.165.012.18.002.008.01.026.033.062.077.006.199.01.41.012h.291c.14 0 .165-.007.18-.012a.325.325 0 0 0 .065-.036c.004-.043.009-.107.009-.207V9.254a.624.624 0 0 0-.012-.18.35.35 0 0 0-.035-.062l-.012-.002C12.817 9 12.62 9 12.253 9Zm-4-2a.622.622 0 0 0-.18.012.336.336 0 0 0-.066.037 2.422 2.422 0 0 0-.008.206v8.492c0 .14.007.165.012.18.002.008.01.026.033.062a6.2 6.2 0 0 0 .41.012h.291a.624.624 0 0 0 .18-.012.326.326 0 0 0 .065-.036c.004-.043.009-.107.009-.207V7.254a.622.622 0 0 0-.012-.18.347.347 0 0 0-.035-.062L8.94 7.01C8.817 7 8.62 7 8.253 7Zm8 0c.352 0 .59 0 .754.012.177.012.326.039.48.12l.09.048.063.079c.13.16.236.316.297.502.06.184.062.356.062.493v6.492c0 .276-.01.509-.132.741l-.047.09-.08.065c-.16.13-.316.237-.502.298-.183.06-.356.061-.493.061h-.297c-.424-.003-.691-.003-.935-.132l-.09-.047-.065-.08a1.577 1.577 0 0 1-.298-.502 1.523 1.523 0 0 1-.061-.493V8.255c0-.241.007-.45.09-.653l.042-.088.047-.09.08-.065c.16-.13.316-.237.502-.297.184-.06.356-.062.493-.062Zm-4 1c.352 0 .59 0 .754.012.177.012.326.039.48.12l.09.048.063.079c.13.16.236.316.297.502.06.184.062.356.062.493v4.492c0 .276-.01.509-.132.741l-.047.09-.08.065c-.16.13-.316.237-.502.298-.183.06-.356.061-.493.061h-.297c-.424-.003-.691-.003-.935-.132l-.09-.047-.065-.08a1.577 1.577 0 0 1-.298-.502 1.523 1.523 0 0 1-.061-.493V9.255c0-.241.007-.45.09-.653l.042-.088.047-.09.08-.065c.16-.13.316-.236.502-.297.184-.06.356-.062.493-.062Zm-4-2c.352 0 .59 0 .754.012.177.012.326.039.48.12l.09.048.063.079c.13.16.237.316.297.502.06.184.062.356.062.493v8.492c0 .276-.01.509-.132.741l-.047.09-.08.065c-.16.13-.316.236-.502.297-.184.06-.356.062-.493.062h-.297l-.29-.004c-.266-.007-.462-.032-.645-.128l-.09-.047-.065-.08a1.577 1.577 0 0 1-.297-.502 1.521 1.521 0 0 1-.062-.493V7.255c0-.241.007-.45.09-.653l.042-.088.047-.09.08-.065c.16-.13.316-.237.502-.297.184-.06.356-.062.493-.062Z"/>
</svg>
