<svg xmlns="http://www.w3.org/2000/svg" width="24" height="24" fill="none" viewBox="0 0 24 24">
  <path fill="#000" fill-rule="evenodd" d="M12.5 5a.5.5 0 0 1 .5.5v1a.5.5 0 0 1-1 0v-1a.5.5 0 0 1 .5-.5Zm0 3a.5.5 0 0 1 .5.5v2a.5.5 0 0 1-1 0v-2a.5.5 0 0 1 .5-.5Zm0 4a.5.5 0 0 1 .5.5v2a.5.5 0 0 1-1 0v-2a.5.5 0 0 1 .5-.5Zm0 4a.5.5 0 0 1 .5.5v1a.5.5 0 0 1-1 0v-1a.5.5 0 0 1 .5-.5Z" clip-rule="evenodd"/>
  <path fill="#000" fill-rule="evenodd" d="M16.745 6.5c.278 0 .396.015.508.074.232.285.247.403.247.68 0 .72-.004.867-.074.999-.285.232-.403.247-.68.247H8.254c-.278 0-.396-.015-.508-.074-.232-.285-.247-.403-.247-.68v-.294c.003-.47.015-.593.074-.705.285-.232.403-.247.68-.247h8.492Zm-2 4c.278 0 .396.015.508.074.232.285.247.403.247.68 0 .72-.004.867-.074.999-.285.232-.403.247-.68.247h-4.492c-.278 0-.396-.015-.508-.074-.232-.285-.247-.403-.247-.68v-.294c.003-.47.015-.593.074-.705.285-.232.403-.247.68-.247h4.492Zm1 4c.278 0 .396.015.508.074.232.285.247.403.247.68 0 .72-.004.867-.074.999-.285.232-.403.247-.68.247H9.254c-.278 0-.396-.015-.508-.074-.232-.285-.247-.403-.247-.68v-.294c.003-.47.015-.593.074-.705.285-.232.403-.247.68-.247h6.492Z" clip-rule="evenodd" opacity=".2"/>
  <path fill="#000" d="M16 15.254a.624.624 0 0 0-.012-.18.347.347 0 0 0-.037-.066 2.414 2.414 0 0 0-.206-.008H9.253a.624.624 0 0 0-.18.012.292.292 0 0 0-.062.033 6.66 6.66 0 0 0-.012.41v.291c0 .14.007.165.012.18a.23.23 0 0 0 .036.065c.043.004.107.009.207.009h6.492a.625.625 0 0 0 .18-.012.353.353 0 0 0 .062-.035l.002-.013c.009-.122.01-.319.01-.686Zm-1-4a.624.624 0 0 0-.012-.18.347.347 0 0 0-.037-.066 2.458 2.458 0 0 0-.206-.008h-4.492a.623.623 0 0 0-.18.012.291.291 0 0 0-.062.033 6.66 6.66 0 0 0-.012.41v.291c0 .14.007.165.012.18a.23.23 0 0 0 .036.065c.043.004.107.009.207.009h4.492a.625.625 0 0 0 .18-.012.353.353 0 0 0 .062-.035l.002-.013c.009-.122.01-.319.01-.686Zm2-4a.624.624 0 0 0-.012-.18.342.342 0 0 0-.037-.066A2.43 2.43 0 0 0 16.745 7H8.253a.622.622 0 0 0-.18.012.288.288 0 0 0-.062.033 6.11 6.11 0 0 0-.012.41v.291c0 .14.007.165.012.18a.23.23 0 0 0 .036.065c.043.004.107.009.207.009h8.492a.623.623 0 0 0 .18-.012.35.35 0 0 0 .062-.035l.002-.013c.009-.122.01-.319.01-.686Zm0 8c0 .352 0 .59-.012.754a1.13 1.13 0 0 1-.12.48l-.048.09-.079.063c-.16.13-.316.237-.502.298a1.53 1.53 0 0 1-.493.061H9.254c-.276 0-.509-.01-.741-.132l-.09-.047-.065-.08a1.578 1.578 0 0 1-.297-.502 1.522 1.522 0 0 1-.062-.493v-.297c.003-.424.003-.691.132-.935l.047-.09.08-.065c.16-.13.316-.236.502-.297.184-.06.356-.062.493-.062h6.492c.241 0 .45.007.653.09l.088.042.09.047.065.08c.13.16.237.316.298.502.06.184.061.356.061.493Zm-1-4c0 .352 0 .59-.012.754a1.13 1.13 0 0 1-.12.48l-.048.09-.079.063c-.16.13-.316.236-.502.297-.184.06-.356.062-.493.062h-4.492c-.276 0-.509-.01-.741-.132l-.09-.047-.065-.08a1.578 1.578 0 0 1-.297-.502 1.522 1.522 0 0 1-.062-.493v-.297c.003-.424.003-.691.132-.935l.047-.09.08-.065c.16-.13.316-.236.502-.297.184-.06.356-.062.493-.062h4.492c.241 0 .45.007.653.09l.088.042.09.047.065.08c.13.16.236.316.297.502.06.184.062.356.062.493Zm2-4c0 .352 0 .59-.012.754a1.13 1.13 0 0 1-.12.48l-.048.09-.079.063c-.16.13-.316.237-.502.297-.184.06-.356.062-.493.062H8.254c-.276 0-.509-.01-.741-.132l-.09-.047-.065-.08a1.578 1.578 0 0 1-.297-.502 1.522 1.522 0 0 1-.062-.493V7.45l.004-.29c.007-.266.032-.462.128-.645l.047-.09.08-.065c.16-.13.316-.237.502-.297.184-.06.356-.062.493-.062h8.492c.241 0 .45.007.653.09l.088.042.09.047.065.08c.13.16.237.316.298.502.06.184.061.356.061.493Z"/>
</svg>
