<svg xmlns="http://www.w3.org/2000/svg" width="24" height="24" fill="none" viewBox="0 0 24 24">
  <path fill="#000" d="M6 7.167c0-.046.019-.09.049-.12.03-.03.07-.047.11-.047l3.496.055A1.695 1.695 0 0 1 11 7.719v7.663l-.06-.035a2.695 2.695 0 0 0-1.285-.326l-3.497-.055a.154.154 0 0 1-.109-.046A.172.172 0 0 1 6 14.8V7.167Z" opacity=".2"/>
  <path fill="#000" d="M9.655 6.055a2.695 2.695 0 0 1 1.834.72 2.695 2.695 0 0 1 1.855-.741h3.498c.309 0 .604.125.82.344.217.22.338.516.338.823v7.633c0 .307-.122.603-.338.822-.216.22-.511.344-.82.344h-3.497a1.695 1.695 0 0 0-1.392.727.498.498 0 0 1-.871.069 1.729 1.729 0 0 0-.62-.57 1.695 1.695 0 0 0-.807-.206l-3.497-.054c-.309 0-.604-.125-.82-.344A1.172 1.172 0 0 1 5 14.8V7.167c0-.307.121-.604.338-.823.216-.22.511-.344.82-.344l3.497.055ZM6.158 7c-.04 0-.08.016-.11.047a.172.172 0 0 0-.048.12V14.8c0 .046.019.09.049.12.03.03.07.046.11.046l3.496.055c.449 0 .89.112 1.285.326.02.01.04.023.06.035V7.719a1.695 1.695 0 0 0-1.345-.664L6.158 7Zm7.187.034A1.695 1.695 0 0 0 12 7.698v7.663l.06-.035A2.695 2.695 0 0 1 13.345 15h3.497c.04 0 .08-.015.11-.046a.172.172 0 0 0 .048-.12V7.201a.172.172 0 0 0-.049-.12.155.155 0 0 0-.11-.047h-3.496Z"/>
</svg>
