<svg xmlns="http://www.w3.org/2000/svg" width="24" height="24" fill="none" viewBox="0 0 24 24">
  <path fill="#000" d="M10 17H5v-3h5v3Zm8 0h-5v-3h5v3Zm-8-6H5V8h5v3Zm8 0h-5V8h5v3Z" opacity=".2"/>
  <path fill="#000" d="M9.77 13.002c.326.005.524.026.684.107.188.096.34.249.437.437.109.214.109.494.109 1.054v1.8l-.002.37c-.005.326-.026.524-.107.684l-.082.134a1 1 0 0 1-.355.303l-.084.036c-.146.052-.328.067-.6.071L9.4 18H5.6c-.56 0-.84 0-1.054-.11a.999.999 0 0 1-.355-.302l-.082-.134c-.081-.16-.102-.358-.107-.684L4 16.4v-1.8c0-.49 0-.766.073-.97l.036-.084a1 1 0 0 1 .303-.355l.134-.082C4.76 13 5.04 13 5.6 13h3.8l.37.002Zm8 0c.326.005.524.026.684.107.188.096.34.249.437.437.109.214.109.494.109 1.054v1.8l-.002.37c-.005.326-.026.524-.107.684l-.082.134a1 1 0 0 1-.355.303l-.084.036c-.146.052-.328.067-.6.071L17.4 18h-3.8c-.56 0-.84 0-1.054-.11a1 1 0 0 1-.355-.302l-.082-.134c-.081-.16-.102-.358-.107-.684L12 16.4v-1.8c0-.49 0-.766.073-.97l.036-.084a1 1 0 0 1 .303-.355l.134-.082C12.76 13 13.04 13 13.6 13h3.8l.37.002ZM5.6 14c-.297 0-.459.001-.576.01l-.012.002-.001.012C5 14.141 5 14.304 5 14.6v1.8c0 .297.001.46.01.576l.002.011.012.002c.117.01.28.011.576.011h3.8c.297 0 .459-.001.576-.01l.011-.003.002-.011c.01-.117.011-.28.011-.576v-1.8c0-.297-.001-.46-.01-.576l-.003-.012-.011-.001A8.123 8.123 0 0 0 9.4 14H5.6Zm8 0c-.297 0-.46.001-.576.01l-.012.002-.001.012c-.01.117-.011.28-.011.576v1.8c0 .297.001.46.01.576l.002.011.012.002c.117.01.28.011.576.011h3.8c.297 0 .46-.001.576-.01l.011-.003.002-.011c.01-.117.011-.28.011-.576v-1.8c0-.297-.001-.46-.01-.576l-.003-.012-.011-.001A8.122 8.122 0 0 0 17.4 14h-3.8ZM9.77 7.002c.326.005.524.026.684.107.188.096.34.249.437.437C11 7.76 11 8.04 11 8.6v1.8l-.002.37c-.005.326-.026.524-.107.684l-.082.134a1 1 0 0 1-.355.303l-.084.036c-.146.052-.328.067-.6.071L9.4 12H5.6c-.56 0-.84 0-1.054-.11a.999.999 0 0 1-.355-.302l-.082-.134c-.081-.16-.102-.358-.107-.684L4 10.4V8.6c0-.49 0-.766.073-.97l.036-.084a1 1 0 0 1 .303-.355l.134-.082C4.76 7 5.04 7 5.6 7h3.8l.37.002Zm8 0c.326.005.524.026.684.107.188.096.34.249.437.437C19 7.76 19 8.04 19 8.6v1.8l-.002.37c-.005.326-.026.524-.107.684l-.082.134a1 1 0 0 1-.355.303l-.084.036c-.146.052-.328.067-.6.071L17.4 12h-3.8c-.56 0-.84 0-1.054-.11a1 1 0 0 1-.355-.302l-.082-.134c-.081-.16-.102-.358-.107-.684L12 10.4V8.6c0-.49 0-.766.073-.97l.036-.084a.999.999 0 0 1 .303-.355l.134-.082C12.76 7 13.04 7 13.6 7h3.8l.37.002ZM5.6 8c-.297 0-.459.001-.576.01l-.012.002-.001.012C5 8.141 5 8.304 5 8.6v1.8c0 .297.001.46.01.576l.002.011.012.002c.117.01.28.011.576.011h3.8c.297 0 .459-.001.576-.01l.011-.003.002-.011c.01-.117.011-.28.011-.576V8.6c0-.297-.001-.459-.01-.576l-.003-.012-.011-.001A8.103 8.103 0 0 0 9.4 8H5.6Zm8 0c-.297 0-.46.001-.576.01l-.012.002-.001.012C13 8.141 13 8.304 13 8.6v1.8c0 .297.001.46.01.576l.002.011.012.002c.117.01.28.011.576.011h3.8c.297 0 .46-.001.576-.01l.011-.003.002-.011c.01-.117.011-.28.011-.576V8.6c0-.297-.001-.459-.01-.576l-.003-.012-.011-.001A8.102 8.102 0 0 0 17.4 8h-3.8Z"/>
</svg>
