<svg xmlns="http://www.w3.org/2000/svg" width="24" height="24" fill="none" viewBox="0 0 24 24">
  <path fill="#000" fill-rule="evenodd" d="M14.436 11.5c.75 0 1.029.06 1.305.208.238.127.424.313.551.551.148.276.208.555.208 1.305v2.872c0 .75-.06 1.029-.208 1.305a1.323 1.323 0 0 1-.551.551c-.276.148-.555.208-1.305.208H8.564c-.75 0-1.029-.06-1.305-.208a1.324 1.324 0 0 1-.551-.551c-.148-.276-.208-.555-.208-1.305v-2.872c0-.75.06-1.029.208-1.305.127-.238.313-.424.551-.551.276-.148.555-.208 1.305-.208h5.872Z" clip-rule="evenodd" opacity=".2"/>
  <path fill="#000" d="M11.5 5a4 4 0 0 1 4 4v2.087c.173.041.324.1.476.18.325.174.584.431.757.756.208.389.267.772.267 1.542v2.87c0 .769-.06 1.151-.267 1.539h.001a1.827 1.827 0 0 1-.76.76c-.388.206-.77.266-1.539.266h-5.87c-.77 0-1.152-.06-1.54-.267v.001a1.827 1.827 0 0 1-.76-.76h.002C6.06 17.586 6 17.204 6 16.436v-2.871c0-.77.06-1.153.268-1.542a1.81 1.81 0 0 1 .755-.756c.389-.208.772-.267 1.541-.267h5.871l.065.001V9a3 3 0 0 0-6 0h-1a4 4 0 0 1 4-4Zm-2.936 7c-.73 0-.906.06-1.069.148v.001a.82.82 0 0 0-.346.345v.001c-.088.163-.149.34-.149 1.07v2.87c0 .548.035.784.089.936l.06.134.001.002c.058.11.14.204.239.277l.104.066.002.002c.163.087.34.148 1.07.148h5.87c.73 0 .907-.06 1.07-.148l.002-.002a.822.822 0 0 0 .343-.343l.002-.002c.087-.163.148-.34.148-1.07v-2.87c0-.73-.06-.907-.148-1.07h-.001a.82.82 0 0 0-.345-.346h-.001c-.163-.088-.34-.149-1.07-.149h-5.87Z"/>
</svg>
