<svg xmlns="http://www.w3.org/2000/svg" width="24" height="24" fill="none" viewBox="0 0 24 24">
  <path fill="#000" fill-rule="evenodd" d="M11.118 7a2.5 2.5 0 0 0-1.335.386L7.228 9H14.5v1H6.003a.512.512 0 0 0-.003.051V16.5c0 .278.223.5.497.5h7.628a.498.498 0 0 0 .328-.123l3.206-2.805a1 1 0 0 0 .341-.753V7.5a.5.5 0 0 0-.5-.5h-6.382ZM9.25 6.54A3.5 3.5 0 0 1 11.12 6h6.38A1.5 1.5 0 0 1 19 7.5v5.82a2 2 0 0 1-.683 1.504l-3.205 2.805c-.274.24-.624.371-.987.371H6.497C5.667 18 5 17.327 5 16.5v-6.449a1.5 1.5 0 0 1 .699-1.268l3.55-2.242Z" clip-rule="evenodd"/>
  <path fill="#000" d="M9 12a1 1 0 1 1-2 0 1 1 0 0 1 2 0Zm4 0a1 1 0 1 1-2 0 1 1 0 0 1 2 0Zm0 3a1 1 0 1 1-2 0 1 1 0 0 1 2 0Zm-4 0a1 1 0 1 1-2 0 1 1 0 0 1 2 0Z"/>
  <path fill="#000" fill-rule="evenodd" d="M18.407 6.71a.5.5 0 0 1-.116.697l-3.5 2.5a.5.5 0 1 1-.582-.814l3.5-2.5a.5.5 0 0 1 .698.116Z" clip-rule="evenodd"/>
  <path fill="#000" fill-rule="evenodd" d="M14 17V9h1v8h-1Z" clip-rule="evenodd"/>
</svg>
