<svg xmlns="http://www.w3.org/2000/svg" width="24" height="24" fill="none" viewBox="0 0 24 24">
  <path fill="#000" fill-rule="evenodd" d="M7.5 4a.5.5 0 0 0-.5.5V13h8.502a.498.498 0 0 0 .498-.5v-8a.5.5 0 0 0-.5-.5h-8Z" clip-rule="evenodd" opacity=".2"/>
  <path fill="#000" fill-rule="evenodd" d="M7.5 4a.5.5 0 0 0-.5.5V13h8.502a.498.498 0 0 0 .498-.5v-8a.5.5 0 0 0-.5-.5h-8ZM7 14h9a1 1 0 0 0 1-1V4.5A1.5 1.5 0 0 0 15.5 3h-8A1.5 1.5 0 0 0 6 4.5v12A1.5 1.5 0 0 0 7.5 18H8v2.5a.5.5 0 0 0 .5.5H9l.945-.63a1 1 0 0 1 1.11 0L12 21h.5a.5.5 0 0 0 .5-.5V18h3.5a.5.5 0 0 0 0-1H13v-1h2.5a.5.5 0 0 0 0-1H8v2h-.5a.5.5 0 0 1-.5-.5V14Zm5 2H9v3.566l.92-.654a1 1 0 0 1 1.16 0l.92.654V16Z" clip-rule="evenodd"/>
</svg>
