<svg xmlns="http://www.w3.org/2000/svg" width="24" height="24" fill="none" viewBox="0 0 24 24">
  <path fill="#000" d="M9.5 13a.5.5 0 0 1 .5.5v3a.5.5 0 0 1-1 0v-1.793l-2.647 2.647a.5.5 0 1 1-.707-.707L8.293 14H6.5a.5.5 0 0 1 0-1h3Zm7 0a.5.5 0 0 1 0 1h-1.793l2.646 2.647a.5.5 0 0 1-.707.707L14 14.707V16.5a.5.5 0 0 1-1 0v-3a.5.5 0 0 1 .5-.5h3ZM5.646 5.647a.5.5 0 0 1 .63-.065l.077.065L9 8.293V6.5a.5.5 0 0 1 1 0v3a.5.5 0 0 1-.5.5h-3a.5.5 0 0 1 0-1h1.793L5.646 6.354l-.064-.079a.5.5 0 0 1 .064-.628Zm11 0a.5.5 0 0 1 .707.707L14.707 9H16.5a.5.5 0 0 1 0 1h-3a.5.5 0 0 1-.5-.5v-3a.5.5 0 0 1 1 0v1.793l2.646-2.646Z"/>
</svg>
