<svg xmlns="http://www.w3.org/2000/svg" width="24" height="24" fill="none" viewBox="0 0 24 24">
  <path fill="#000" d="M6.647 12.646a.5.5 0 0 1 .707.707L5.707 15H15.5a.5.5 0 0 1 0 1H5.707l1.647 1.646a.5.5 0 0 1-.707.707l-2.5-2.5a.496.496 0 0 1-.082-.113.494.494 0 0 1-.055-.339.493.493 0 0 1 .055-.142.495.495 0 0 1 .082-.113l2.5-2.5Zm10-7a.5.5 0 0 1 .707 0l2.5 2.5c.034.034.06.073.082.113a.494.494 0 0 1 .055.339.491.491 0 0 1-.055.142.497.497 0 0 1-.082.113l-2.5 2.5a.5.5 0 0 1-.707-.707L18.293 9H8.5a.5.5 0 0 1 0-1h9.793l-1.646-1.647a.5.5 0 0 1 0-.707Z"/>
</svg>
