<svg xmlns="http://www.w3.org/2000/svg" width="24" height="24" fill="none" viewBox="0 0 24 24">
  <path fill="#000" d="M14.388 10.5c2.485 0 4.5 1.583 4.5 3.536 0 1.054-2.626 1.54-5.04 1.455-.239-1.67-1.56-2.958-3.084-3.55.817-.874 2.136-1.441 3.624-1.441Zm0-5.5a2.27 2.27 0 0 1 1.591.659c.418.418.66 1 .66 1.591a2.27 2.27 0 0 1-.66 1.591A2.25 2.25 0 1 1 14.388 5Z" opacity=".2"/>
  <path fill="#000" d="M8.388 12.5c1.221 0 2.35.382 3.182 1.036.775.61 1.318 1.483 1.318 2.5v.19l-.127.142a2.297 2.297 0 0 1-1.104.713l-.002.001c-.888.287-2.093.418-3.267.418-1.173 0-2.378-.131-3.267-.42-.33-.107-.67-.249-.921-.463l-.147-.125-.024-.19c-.164-1.242.386-2.144 1.177-2.766.832-.653 1.961-1.036 3.182-1.036Zm0 1c-1.018 0-1.925.32-2.565.821-.527.415-.848.93-.821 1.632.104.056.244.117.427.177.75.243 1.839.37 2.96.37 1.12 0 2.209-.128 2.958-.37a1.31 1.31 0 0 0 .53-.288c-.062-.567-.389-1.099-.924-1.52-.639-.502-1.546-.822-2.565-.822Zm1.25-4.25c0-.345-.14-.657-.366-.883a1.245 1.245 0 0 0-1.766 0 1.24 1.24 0 0 0-.368.883c0 .339.142.637.367.883.227.227.539.367.883.367.335-.016.643-.126.883-.366.228-.228.367-.54.367-.884Zm1 0a2.24 2.24 0 0 1-.659 1.59 2.244 2.244 0 0 1-3.18.001c-.434-.432-.631-.993-.66-1.591 0-.621.252-1.184.659-1.59.417-.42 1-.66 1.59-.66.6.03 1.158.225 1.591.66.408.405.66.97.66 1.59Zm3.75 1.25c2.485 0 4.5 1.583 4.5 3.536 0 1.054-2.626 1.54-5.04 1.455a3.812 3.812 0 0 0-.29-1.017c.27.018.547.026.83.026 1.073 0 2.095-.118 2.816-.327.218-.058.429-.142.626-.25l.052-.035-.017-.137c-.255-1.575-2.09-2.218-3.477-2.251-1.092 0-2.045.364-2.68.916a5.667 5.667 0 0 0-.944-.475c.93-.996 2.293-1.417 3.624-1.441Zm0-5.5a2.25 2.25 0 0 1 1.674 3.759c-.435.48-1.035.72-1.674.741a2.25 2.25 0 0 1-1.673-3.759c.435-.48 1.035-.72 1.673-.741Zm0 1a1.25 1.25 0 1 0 0 2.5 1.25 1.25 0 0 0 0-2.5Z"/>
</svg>
