<svg xmlns="http://www.w3.org/2000/svg" width="24" height="24" fill="none" viewBox="0 0 24 24">
  <path fill="#000" d="M14.121 15.121a3 3 0 0 1-4.242 0A2.995 2.995 0 0 1 9.176 14h5.648a2.995 2.995 0 0 1-.703 1.121Z" opacity=".2"/>
  <path fill="#000" d="M12 5a7 7 0 1 1 0 14 7 7 0 0 1 0-14Zm0 1a6 6 0 1 0 0 12 6 6 0 0 0 0-12Zm4 7a4 4 0 0 1-4 4c-.993-.024-1.941-.362-2.685-1.035C8.497 15.185 8 14.14 8 13h8Zm-6.824 1a3 3 0 0 0 .703 1.121 3 3 0 0 0 4.242 0c.32-.319.555-.704.703-1.121H9.176ZM9 10a1 1 0 1 1 0 2 1 1 0 0 1 0-2Zm6 0a1 1 0 1 1 0 2 1 1 0 0 1 0-2Z"/>
</svg>
