<svg xmlns="http://www.w3.org/2000/svg" width="24" height="24" fill="none" viewBox="0 0 24 24">
  <path fill="#000" d="M16.5 5a.5.5 0 0 1 .5.5v12.293L18.793 16a.5.5 0 0 1 .707.707l-2.646 2.646a.5.5 0 0 1-.707 0L13.5 16.707a.5.5 0 1 1 .707-.707L16 17.793V5.5a.5.5 0 0 1 .5-.5ZM10 14.979 6.932 18H10v1H5.5v-.993L8.554 15H5.5v-1H10v.979Z"/>
  <path fill="#000" fill-rule="evenodd" d="M9.976 10H8.92l-.338-1H6.449l-.38 1H5l1.896-5h1.39l1.69 5ZM6.828 8h1.416l-.667-1.974L6.828 8Z" clip-rule="evenodd"/>
</svg>
