<svg xmlns="http://www.w3.org/2000/svg" width="24" height="24" fill="none" viewBox="0 0 24 24">
  <path fill="#000" fill-rule="evenodd" d="m9.557 8.94 4.792 4.791a.504.504 0 0 1 .147.354.504.504 0 0 1-.147.354l-.94.94a1 1 0 0 1-1.413 0l-.893-.894a.505.505 0 0 0-.385-.145.505.505 0 0 0-.363.192L8.288 17.19a1.576 1.576 0 0 1-1.134.596 1.576 1.576 0 0 1-1.198-.454 1.576 1.576 0 0 1-.454-1.198A1.58 1.58 0 0 1 6.098 15l2.658-2.067a.505.505 0 0 0 .192-.363.505.505 0 0 0-.145-.385l-.893-.893a1 1 0 0 1 0-1.414l.94-.94a.5.5 0 0 1 .707.001Z" clip-rule="evenodd" opacity=".2"/>
  <path fill="#000" d="M13.703 4a1.5 1.5 0 0 1 1.06.44l4.086 4.085a1.5 1.5 0 0 1 0 2.121l-5.086 5.086a1.5 1.5 0 0 1-2.12 0l-.893-.893-2.068 2.659v.001c-.36.459-.916.75-1.498.786a2.082 2.082 0 0 1-1.58-.6 2.075 2.075 0 0 1-.6-1.58 2.082 2.082 0 0 1 .786-1.498l2.659-2.068-.893-.893a1.5 1.5 0 0 1 0-2.12l5.086-5.087c.282-.28.663-.439 1.06-.439Zm-5.44 6.232a.5.5 0 0 0 0 .708l.894.892c.2.2.308.487.29.77a1.01 1.01 0 0 1-.384.726l-2.658 2.068a1.07 1.07 0 0 0-.403.769c-.018.3.096.601.308.814.212.212.514.326.814.308.3-.018.585-.168.77-.404l2.067-2.657c.173-.224.444-.366.726-.384a1.01 1.01 0 0 1 .69.22l.972.963a.501.501 0 0 0 .707 0l.94-.94-4.793-4.792-.94.94ZM13.703 5a.501.501 0 0 0-.354.146l-3.44 3.44 4.794 4.793 3.44-3.44a.5.5 0 0 0 0-.707l-.615-.614-1.535 1.025a.25.25 0 0 1-.347-.347L16.67 7.76l-1.116-1.115-2.522 1.963a.252.252 0 0 1-.402-.181.251.251 0 0 1 .05-.17l1.963-2.524-.587-.587A.5.5 0 0 0 13.703 5Z"/>
</svg>
