<svg xmlns="http://www.w3.org/2000/svg" width="24" height="24" fill="none" viewBox="0 0 24 24">
  <path fill="#000" d="m16.593 8.519 2 3.464a1.499 1.499 0 0 1-.549 2.05l-7.758 4.478a3.516 3.516 0 0 0 1.28-1.32l-.035.059 4.5-7.794a1.5 1.5 0 0 0 .005-1.492c.224.127.42.315.557.555Z" opacity=".1"/>
  <path fill="#000" d="m12.018 5.407 3.464 2a1.5 1.5 0 0 1 .55 2.05l-4.5 7.793.077-.142A3.465 3.465 0 0 0 12 15.5v-9a1.5 1.5 0 0 0-.742-1.294c.258-.002.52.062.76.2v.001Z" opacity=".2"/>
  <path fill="#000" fill-rule="evenodd" d="M11.258 5.206c.258-.002.52.062.76.2l3.464 2.001a1.5 1.5 0 0 1 .565.58l-.01-.022c.223.127.418.313.556.553l2 3.463a1.502 1.502 0 0 1-.55 2.051l-7.757 4.478a3.517 3.517 0 0 0 1.336-1.428l-.013.026-.078.141.028-.048.05-.093A3.462 3.462 0 0 0 12 15.5v-1.063l3.165-5.48a.5.5 0 0 0-.183-.684L12 6.55V6.5a1.502 1.502 0 0 0-.742-1.294Zm.807 11.12 5.479-3.162a.5.5 0 0 0 .183-.684l-1.721-2.979-3.941 6.825ZM8.5 14a1.5 1.5 0 1 1 0 3 1.5 1.5 0 0 1 0-3Zm0 1a.5.5 0 1 0 0 1 .5.5 0 0 0 0-1Z" clip-rule="evenodd"/>
  <path fill="#000" fill-rule="evenodd" d="M10.5 5.001a1.498 1.498 0 0 1 1.387.925c.075.182.113.377.113.574v8.999c0 .46-.09.916-.266 1.34-.52 1.255-1.83 2.163-3.235 2.161a3.537 3.537 0 0 1-3.233-2.16A3.492 3.492 0 0 1 5 15.499V6.5a1.5 1.5 0 0 1 .926-1.387c.182-.075.377-.112.574-.112h4ZM6.498 6A.498.498 0 0 0 6 6.498v9.003c0 .328.064.653.19.956A2.53 2.53 0 0 0 8.498 18a2.532 2.532 0 0 0 2.311-1.543 2.49 2.49 0 0 0 .19-.956V6.498a.5.5 0 0 0-.308-.46.498.498 0 0 0-.19-.038H6.498Z" clip-rule="evenodd"/>
</svg>
