<svg xmlns="http://www.w3.org/2000/svg" width="24" height="24" fill="none" viewBox="0 0 24 24">
  <path fill="#000" d="M6 8V6h2v2H6Zm0 5v-2h2v2H6Zm0 5v-2h2v2H6Zm5-10V6h2v2h-2Zm0 5v-2h2v2h-2Zm0 5v-2h2v2h-2Zm5-10V6h2v2h-2Zm0 5v-2h2v2h-2Zm2 5h-2v-2h2v2Z" opacity=".2"/>
  <path fill="#000" d="M9 8a1 1 0 0 1-1 1H6a1 1 0 0 1-1-1V6a1 1 0 0 1 1-1h2a1 1 0 0 1 1 1v2Zm0 5a1 1 0 0 1-1 1H6a1 1 0 0 1-1-1v-2a1 1 0 0 1 1-1h2a1 1 0 0 1 1 1v2Zm0 5a1 1 0 0 1-1 1H6a1 1 0 0 1-1-1v-2a1 1 0 0 1 1-1h2a1 1 0 0 1 1 1v2ZM6 6v2h2V6H6Zm0 5v2h2v-2H6Zm0 5v2h2v-2H6Zm8-8a1 1 0 0 1-1 1h-2a1 1 0 0 1-1-1V6a1 1 0 0 1 1-1h2a1 1 0 0 1 1 1v2Zm0 5a1 1 0 0 1-1 1h-2a1 1 0 0 1-1-1v-2a1 1 0 0 1 1-1h2a1 1 0 0 1 1 1v2Zm0 5a1 1 0 0 1-1 1h-2a1 1 0 0 1-1-1v-2a1 1 0 0 1 1-1h2a1 1 0 0 1 1 1v2ZM11 6v2h2V6h-2Zm0 5v2h2v-2h-2Zm0 5v2h2v-2h-2Zm8-8a1 1 0 0 1-1 1h-2a1 1 0 0 1-1-1V6a1 1 0 0 1 1-1h2a1 1 0 0 1 1 1v2Zm0 5a1 1 0 0 1-1 1h-2a1 1 0 0 1-1-1v-2a1 1 0 0 1 1-1h2a1 1 0 0 1 1 1v2Zm0 5a1 1 0 0 1-1 1h-2a1 1 0 0 1-1-1v-2a1 1 0 0 1 1-1h2a1 1 0 0 1 1 1v2ZM16 6v2h2V6h-2Zm0 5v2h2v-2h-2Zm0 5v2h2v-2h-2Z"/>
</svg>
