<svg xmlns="http://www.w3.org/2000/svg" width="24" height="24" fill="none" viewBox="0 0 24 24">
  <path fill="#000" d="M12 17h-1V6h1v11Z" opacity=".2"/>
  <path fill="#000" d="M14.795 5c.997 0 1.457.085 1.924.334.408.217.731.538.948.946h-.001c.25.467.334.927.334 1.925v6.59c0 .997-.085 1.457-.334 1.924a2.262 2.262 0 0 1-.946.948l-.001-.001c-.467.25-.927.334-1.924.334h-6.59c-.996 0-1.457-.084-1.923-.333a2.26 2.26 0 0 1-.95-.95h.001C5.085 16.25 5 15.79 5 14.795v-6.59c0-.998.085-1.458.334-1.925a2.26 2.26 0 0 1 .946-.947v.001C6.747 5.084 7.207 5 8.205 5h6.59Zm-6.59 1c-.947 0-1.207.084-1.454.216H6.75c-.232.124-.41.302-.533.534l-.001.001C6.084 6.998 6 7.258 6 8.205v6.59c0 .947.084 1.207.216 1.454l.002.004c.119.226.303.41.53.53l.003.001c.247.132.507.216 1.454.216h6.59c.947 0 1.207-.084 1.454-.216h.001c.232-.124.41-.302.533-.534l.001-.001c.132-.247.216-.507.216-1.454v-6.59c0-.947-.084-1.207-.216-1.454V6.75a1.262 1.262 0 0 0-.534-.533l-.001-.001C16.002 6.084 15.742 6 14.795 6h-6.59Z"/>
</svg>
