<svg xmlns="http://www.w3.org/2000/svg" width="24" height="24" fill="none" viewBox="0 0 24 24">
  <path fill="#000" fill-rule="evenodd" d="M6.5 6.499h10l-.802 9.621c-.07.847-.178 1.148-.36 1.449a1.81 1.81 0 0 1-.752.69c-.315.158-.624.24-1.473.24H9.887c-.85 0-1.158-.082-1.473-.24a1.81 1.81 0 0 1-.751-.69c-.183-.301-.29-.602-.361-1.449L6.5 6.499Z" clip-rule="evenodd" opacity=".2"/>
  <path fill="#000" fill-rule="evenodd" d="M12.5 4a1.498 1.498 0 0 1 1.387.925c.075.182.113.377.113.574v.5h3.5a.5.5 0 0 1 0 1h-.54l-.764 9.162c-.073.884-.191 1.272-.43 1.666-.228.378-.56.683-.956.878-.414.208-.811.294-1.697.294H9.887c-.887 0-1.284-.085-1.698-.293a2.314 2.314 0 0 1-.954-.877l-.084-.15c-.184-.35-.282-.744-.347-1.517L6.04 7H5.5a.5.5 0 0 1 0-1H9v-.5a1.5 1.5 0 0 1 .926-1.387c.182-.075.377-.112.574-.112h2ZM7.8 16.078c.05.608.118.88.201 1.066l.089.166c.098.162.23.3.384.406l.16.095.004.002c.216.108.436.186 1.249.186h3.226c.812 0 1.033-.078 1.25-.186l.002-.002c.226-.111.415-.285.545-.5l.089-.167c.083-.186.15-.458.2-1.065h.001l.757-9.08H7.043l.757 9.08ZM10.498 5a.497.497 0 0 0-.498.498V6h3v-.502a.5.5 0 0 0-.308-.46.497.497 0 0 0-.19-.038h-2.004Z" clip-rule="evenodd"/>
</svg>
