<svg xmlns="http://www.w3.org/2000/svg" width="24" height="24" fill="none" viewBox="0 0 24 24">
  <path fill="#000" fill-rule="evenodd" d="M11.5 13.5c2.378 0 4.369 1.292 4.875 3.022A6.974 6.974 0 0 1 11.5 18.5a6.977 6.977 0 0 1-4.876-1.978c.507-1.73 2.498-3.022 4.876-3.022Zm0-6a2 2 0 1 1 0 4 2 2 0 0 1 0-4Z" clip-rule="evenodd" opacity=".2"/>
  <path fill="#000" fill-rule="evenodd" d="M11.5 7a2.5 2.5 0 1 1 0 5 2.5 2.5 0 0 1 0-5Zm0 1a1.5 1.5 0 1 0 0 3 1.5 1.5 0 0 0 0-3Z" clip-rule="evenodd"/>
  <path fill="#000" fill-rule="evenodd" d="M11.5 4a7.5 7.5 0 1 1 0 15 7.5 7.5 0 0 1 0-15Zm0 10c-2.08 0-3.737 1.053-4.295 2.377A6.474 6.474 0 0 0 11.5 18a6.472 6.472 0 0 0 4.293-1.623C15.236 15.053 13.58 14 11.5 14Zm0-9a6.5 6.5 0 0 0-5.033 10.612C7.337 14.033 9.31 13 11.5 13c2.19 0 4.162 1.033 5.032 2.612A6.5 6.5 0 0 0 11.5 5Z" clip-rule="evenodd"/>
</svg>
