<svg xmlns="http://www.w3.org/2000/svg" width="24" height="24" fill="none" viewBox="0 0 24 24">
  <path fill="#000" fill-rule="evenodd" d="M6.89 6.5a.388.388 0 0 0-.39.39v2.22a.39.39 0 0 0 .39.39h10.22a.39.39 0 0 0 .39-.39V6.89a.388.388 0 0 0-.39-.39H6.89Zm-1.39.39c0-.77.62-1.39 1.39-1.39h10.22c.77 0 1.39.62 1.39 1.39v2.22a1.39 1.39 0 0 1-1.39 1.39H6.89A1.39 1.39 0 0 1 5.5 9.11V6.89Zm1.39 7.61a.389.389 0 0 0-.39.39v2.22a.39.39 0 0 0 .39.39h10.22a.39.39 0 0 0 .39-.39v-2.22a.389.389 0 0 0-.39-.39H6.89Zm-1.39.39c0-.768.62-1.39 1.39-1.39h10.22c.77 0 1.39.622 1.39 1.39v2.22a1.39 1.39 0 0 1-1.39 1.39H6.89a1.39 1.39 0 0 1-1.39-1.39v-2.22Z" clip-rule="evenodd"/>
</svg>
