<svg xmlns="http://www.w3.org/2000/svg" width="24" height="24" fill="none" viewBox="0 0 24 24">
  <path fill="#000" fill-rule="evenodd" d="M6.89 6.5a.39.39 0 0 0-.39.39v10.22a.39.39 0 0 0 .39.39h2.22c.217 0 .39-.173.39-.39V6.89a.388.388 0 0 0-.39-.39H6.89Zm-.983-.593c.26-.26.614-.407.983-.407h2.22c.77 0 1.39.62 1.39 1.39v10.22c0 .77-.62 1.39-1.39 1.39H6.89a1.39 1.39 0 0 1-1.39-1.39V6.89c0-.369.146-.722.407-.983Zm8.983.593a.39.39 0 0 0-.39.39v10.22a.39.39 0 0 0 .39.39h2.22a.39.39 0 0 0 .39-.39V6.89a.389.389 0 0 0-.39-.39h-2.22Zm-.983-.593c.26-.26.614-.407.983-.407h2.22c.768 0 1.39.62 1.39 1.39v10.22c0 .77-.622 1.39-1.39 1.39h-2.22a1.39 1.39 0 0 1-1.39-1.39V6.89c0-.369.146-.722.407-.983Z" clip-rule="evenodd"/>
</svg>
