<svg xmlns="http://www.w3.org/2000/svg" width="24" height="24" fill="none" viewBox="0 0 24 24">
  <path fill="#000" fill-rule="evenodd" d="m11.265 5.554-5.711 5.711a1.04 1.04 0 0 0 0 1.47l5.711 5.711a1.04 1.04 0 0 0 1.47 0l5.711-5.711a1.04 1.04 0 0 0 0-1.47l-5.711-5.711a1.04 1.04 0 0 0-1.47 0Zm-.706-.708a2.04 2.04 0 0 1 2.882 0l5.713 5.713a2.04 2.04 0 0 1 0 2.882l-5.712 5.713a2.04 2.04 0 0 1-2.883 0l-5.712-5.712a2.041 2.041 0 0 1 0-2.883l5.712-5.713Zm1.069 4.506a.97.97 0 0 1 1.059.21l1.75 1.75a.974.974 0 0 1 .211 1.06.97.97 0 0 1-.21.315l-1.75 1.75a.975.975 0 0 1-1.06.211.969.969 0 0 1-.314-.21l-1.75-1.75a.973.973 0 0 1-.212-1.06.97.97 0 0 1 .21-.315s.001 0 0 0l1.75-1.75s.001 0 0 0a.973.973 0 0 1 .316-.211Zm.372.938L10.29 12 12 13.71 13.71 12 12 10.29Z" clip-rule="evenodd"/>
</svg>
