<svg xmlns="http://www.w3.org/2000/svg" width="16" height="16" fill="currentColor" viewBox="0 0 16 16">
  <path fill-rule="evenodd" d="M1.5 5A3.5 3.5 0 0 1 5 1.5h1a.5.5 0 0 1 0 1H5A2.5 2.5 0 0 0 2.5 5v1a.5.5 0 0 1-1 0V5Zm8-3a.5.5 0 0 1 .5-.5h1A3.5 3.5 0 0 1 14.5 5v1a.5.5 0 0 1-1 0V5A2.5 2.5 0 0 0 11 2.5h-1a.5.5 0 0 1-.5-.5ZM2 9.5a.5.5 0 0 1 .5.5v1A2.5 2.5 0 0 0 5 13.5h1a.5.5 0 0 1 0 1H5A3.5 3.5 0 0 1 1.5 11v-1a.5.5 0 0 1 .5-.5Zm12 0a.5.5 0 0 1 .5.5v1a3.5 3.5 0 0 1-3.5 3.5h-1a.5.5 0 0 1 0-1h1a2.5 2.5 0 0 0 2.5-2.5v-1a.5.5 0 0 1 .5-.5Z" clip-rule="evenodd"/>
</svg>
