<svg xmlns="http://www.w3.org/2000/svg" width="24" height="24" fill="none" viewBox="0 0 24 24">
  <path fill="#000" fill-rule="evenodd" d="M5.5 9A3.5 3.5 0 0 1 9 5.5h1a.5.5 0 0 1 0 1H9A2.5 2.5 0 0 0 6.5 9v1a.5.5 0 0 1-1 0V9Zm8-3a.5.5 0 0 1 .5-.5h1A3.5 3.5 0 0 1 18.5 9v1a.5.5 0 0 1-1 0V9A2.5 2.5 0 0 0 15 6.5h-1a.5.5 0 0 1-.5-.5ZM6 13.5a.5.5 0 0 1 .5.5v1A2.5 2.5 0 0 0 9 17.5h1a.5.5 0 0 1 0 1H9A3.5 3.5 0 0 1 5.5 15v-1a.5.5 0 0 1 .5-.5Zm12 0a.5.5 0 0 1 .5.5v1a3.5 3.5 0 0 1-3.5 3.5h-1a.5.5 0 0 1 0-1h1a2.5 2.5 0 0 0 2.5-2.5v-1a.5.5 0 0 1 .5-.5Z" clip-rule="evenodd"/>
</svg>
