<svg xmlns="http://www.w3.org/2000/svg" width="16" height="16" fill="currentColor" viewBox="0 0 16 16">
  <path fill-rule="evenodd" d="M2.667.833a.5.5 0 0 1 .5.5v13.334a.5.5 0 0 1-1 0V1.333a.5.5 0 0 1 .5-.5Zm10.666 0a.5.5 0 0 1 .5.5v13.334a.5.5 0 0 1-1 0V1.333a.5.5 0 0 1 .5-.5Zm-5.666 3c-.828 0-1.5.673-1.5 1.5v5.334a1.5 1.5 0 0 0 1.5 1.5h.666a1.5 1.5 0 0 0 1.5-1.5V5.333c0-.827-.672-1.5-1.5-1.5h-.666Zm-2.5 1.5c0-1.379 1.12-2.5 2.5-2.5h.666c1.38 0 2.5 1.121 2.5 2.5v5.334a2.5 2.5 0 0 1-2.5 2.5h-.666a2.5 2.5 0 0 1-2.5-2.5V5.333Z" clip-rule="evenodd"/>
</svg>
