<svg xmlns="http://www.w3.org/2000/svg" width="24" height="24" fill="none" viewBox="0 0 24 24">
  <path fill="#000" fill-rule="evenodd" d="M4.833 6.667a.5.5 0 0 1 .5-.5h13.334a.5.5 0 0 1 0 1H5.333a.5.5 0 0 1-.5-.5Zm4.5 3.5a1.5 1.5 0 0 0-1.5 1.5v.666a1.5 1.5 0 0 0 1.5 1.5h5.334c.827 0 1.5-.672 1.5-1.5v-.666c0-.828-.673-1.5-1.5-1.5H9.333Zm-2.5 1.5a2.5 2.5 0 0 1 2.5-2.5h5.334c1.379 0 2.5 1.12 2.5 2.5v.666c0 1.38-1.121 2.5-2.5 2.5H9.333a2.5 2.5 0 0 1-2.5-2.5v-.666Zm-2 5.666a.5.5 0 0 1 .5-.5h13.334a.5.5 0 0 1 0 1H5.333a.5.5 0 0 1-.5-.5Z" clip-rule="evenodd"/>
</svg>
