<svg xmlns="http://www.w3.org/2000/svg" width="24" height="24" fill="none" viewBox="0 0 24 24">
  <path fill="#000" fill-rule="evenodd" d="M6.667 4.833a.5.5 0 0 1 .5.5v13.334a.5.5 0 0 1-1 0V5.333a.5.5 0 0 1 .5-.5Zm10.666 0a.5.5 0 0 1 .5.5v13.334a.5.5 0 0 1-1 0V5.333a.5.5 0 0 1 .5-.5Zm-5.666 3c-.828 0-1.5.673-1.5 1.5v5.334a1.5 1.5 0 0 0 1.5 1.5h.666a1.5 1.5 0 0 0 1.5-1.5V9.333c0-.827-.672-1.5-1.5-1.5h-.666Zm-2.5 1.5c0-1.379 1.12-2.5 2.5-2.5h.666c1.38 0 2.5 1.121 2.5 2.5v5.334a2.5 2.5 0 0 1-2.5 2.5h-.666a2.5 2.5 0 0 1-2.5-2.5V9.333Z" clip-rule="evenodd"/>
</svg>
