<svg xmlns="http://www.w3.org/2000/svg" width="24" height="24" fill="none" viewBox="0 0 24 24">
  <path fill="#000" fill-rule="evenodd" d="M6.705 5.37A1.83 1.83 0 0 1 8 4.834h4.667a.5.5 0 0 1 .354.146l4.666 4.666a.5.5 0 0 1 .147.354v7.334A1.833 1.833 0 0 1 16 19.167H8a1.833 1.833 0 0 1-1.833-1.833V6.667c0-.486.192-.953.538-1.297ZM8 5.834a.832.832 0 0 0-.588.244H7.41a.83.83 0 0 0-.244.589v10.667a.833.833 0 0 0 .833.833h8a.833.833 0 0 0 .834-.833V10.5h-4.167a.5.5 0 0 1-.5-.5V5.834H8Zm5.167.707 2.96 2.959h-2.96V6.54Z" clip-rule="evenodd"/>
</svg>
