<svg xmlns="http://www.w3.org/2000/svg" width="16" height="16" fill="currentColor" viewBox="0 0 16 16">
  <path fill-rule="evenodd" d="M2.705 1.37A1.83 1.83 0 0 1 4 .834h4.667a.5.5 0 0 1 .354.146l4.666 4.666a.5.5 0 0 1 .147.354v7.334A1.833 1.833 0 0 1 12 15.167H4a1.833 1.833 0 0 1-1.833-1.833V2.667c0-.486.192-.953.538-1.297ZM4 1.834a.832.832 0 0 0-.588.244H3.41a.83.83 0 0 0-.244.589v10.667a.833.833 0 0 0 .833.833h8a.833.833 0 0 0 .834-.833V6.5H8.667a.5.5 0 0 1-.5-.5V1.834H4Zm5.167.707 2.96 2.959h-2.96V2.54Z" clip-rule="evenodd"/>
</svg>
