<svg xmlns="http://www.w3.org/2000/svg" width="16" height="16" fill="currentColor" viewBox="0 0 16 16">
  <path fill-rule="evenodd" d="M8 .167a.5.5 0 0 1 .5.5c0 1.953.471 3.67 1.381 4.886C10.778 6.75 12.128 7.5 14 7.5a.5.5 0 0 1 0 1c-1.872 0-3.222.75-4.119 1.947-.91 1.216-1.381 2.933-1.381 4.886a.5.5 0 0 1-1 0c0-1.953-.471-3.67-1.381-4.886C5.222 9.25 3.872 8.5 2 8.5a.5.5 0 0 1 0-1c1.872 0 3.222-.75 4.119-1.947C7.029 4.337 7.5 2.62 7.5.667a.5.5 0 0 1 .5-.5ZM8 4.03a7.34 7.34 0 0 1-1.081 2.122A5.681 5.681 0 0 1 4.589 8a5.681 5.681 0 0 1 2.33 1.848A7.341 7.341 0 0 1 8 11.97c.257-.783.615-1.5 1.081-2.122A5.681 5.681 0 0 1 11.411 8a5.68 5.68 0 0 1-2.33-1.848A7.34 7.34 0 0 1 8 4.03Z" clip-rule="evenodd"/>
</svg>
