<svg xmlns="http://www.w3.org/2000/svg" width="16" height="16" fill="currentColor" viewBox="0 0 16 16">
  <path fill-rule="evenodd" d="M8 3.167A.167.167 0 1 0 8 3.5a.167.167 0 0 0 0-.333Zm-1.167.166a1.167 1.167 0 1 1 2.333.001 1.167 1.167 0 0 1-2.333-.001ZM8 7.833A.167.167 0 0 0 7.833 8c0 .092.075.167.167.167A.167.167 0 0 0 8.167 8 .167.167 0 0 0 8 7.833ZM6.833 8a1.167 1.167 0 1 1 2.335.001A1.167 1.167 0 0 1 6.833 8ZM8 12.5a.167.167 0 1 0 0 .333.167.167 0 0 0 0-.333Zm-1.167.167a1.168 1.168 0 1 1 2.335.001 1.168 1.168 0 0 1-2.335-.001Z" clip-rule="evenodd"/>
</svg>
