<svg xmlns="http://www.w3.org/2000/svg" width="24" height="24" fill="none" viewBox="0 0 24 24">
  <path fill="#000" fill-rule="evenodd" d="M12 7.167a.167.167 0 1 0 0 .333.167.167 0 0 0 0-.333Zm-1.167.166a1.167 1.167 0 1 1 2.333.001 1.167 1.167 0 0 1-2.333-.001Zm1.167 4.5a.167.167 0 0 0-.167.167c0 .092.075.167.167.167a.167.167 0 0 0 .167-.167.167.167 0 0 0-.167-.167ZM10.833 12a1.168 1.168 0 1 1 2.335.001A1.168 1.168 0 0 1 10.833 12ZM12 16.5a.167.167 0 1 0 0 .333.167.167 0 0 0 0-.333Zm-1.167.167a1.168 1.168 0 1 1 2.335.001 1.168 1.168 0 0 1-2.335-.001Z" clip-rule="evenodd"/>
</svg>
