<svg xmlns="http://www.w3.org/2000/svg" width="16" height="16" fill="currentColor" viewBox="0 0 16 16">
  <path fill-rule="evenodd" d="M1.499 2.945C1.499 1.871 2.369 1 3.444 1h1.935a.5.5 0 1 1 0 1H3.444a.945.945 0 0 0-.945.945v1.74a.5.5 0 1 1-1 0v-1.74Zm9.62-1.445a.5.5 0 0 1 .5-.5h1.935c1.074 0 1.945.87 1.945 1.945V4.88a.5.5 0 1 1-1 0V2.945A.945.945 0 0 0 13.554 2h-1.935a.5.5 0 0 1-.5-.5Zm-5.4 3.088c.141-.058.293-.088.446-.088h4.665a1.167 1.167 0 0 1 1.167 1.167v4.666A1.167 1.167 0 0 1 10.83 11.5H6.165a1.166 1.166 0 0 1-1.167-1.167V5.667M6.164 5.5a.166.166 0 0 0-.166.166v4.667c0 .093.074.167.167.167h4.665a.167.167 0 0 0 .167-.167V5.667a.167.167 0 0 0-.167-.167H6.164ZM2 10.62a.5.5 0 0 1 .5.5v1.74c0 .27.113.569.306.797.192.228.423.343.639.343H5.38a.5.5 0 0 1 0 1H3.444c-.582 0-1.073-.306-1.404-.698a2.28 2.28 0 0 1-.541-1.442v-1.74a.5.5 0 0 1 .5-.5Zm13 0a.5.5 0 0 1 .5.5v1.935c0 1.074-.87 1.945-1.945 1.945H11.62a.5.5 0 0 1 0-1h1.935a.945.945 0 0 0 .945-.945V11.12a.5.5 0 0 1 .5-.5Z" clip-rule="evenodd"/>
</svg>
