<svg xmlns="http://www.w3.org/2000/svg" width="24" height="24" fill="none" viewBox="0 0 24 24">
  <path fill="#000" fill-rule="evenodd" d="M5.499 6.945C5.499 5.871 6.369 5 7.444 5h1.935a.5.5 0 1 1 0 1H7.444a.945.945 0 0 0-.945.945v1.74a.5.5 0 1 1-1 0v-1.74Zm9.62-1.445a.5.5 0 0 1 .5-.5h1.935c1.074 0 1.945.87 1.945 1.945V8.88a.5.5 0 1 1-1 0V6.945A.945.945 0 0 0 17.554 6h-1.935a.5.5 0 0 1-.5-.5Zm-9.12 9.12a.5.5 0 0 1 .5.5v1.74c0 .27.113.569.306.797.192.228.423.343.639.343h1.935a.5.5 0 0 1 0 1H7.444c-.582 0-1.073-.306-1.404-.698a2.28 2.28 0 0 1-.541-1.442v-1.74a.5.5 0 0 1 .5-.5Zm13 0a.5.5 0 0 1 .5.5v1.935c0 1.074-.87 1.945-1.945 1.945h-1.935a.5.5 0 0 1 0-1h1.935a.945.945 0 0 0 .945-.945V15.12a.5.5 0 0 1 .5-.5Z" clip-rule="evenodd"/>
  <path fill="#000" d="M14.83 8.5a1.167 1.167 0 0 1 1.167 1.167v4.666A1.167 1.167 0 0 1 14.83 15.5h-4.662a1.167 1.167 0 0 1-1.167-1.167V9.667A1.167 1.167 0 0 1 10.168 8.5h4.662Zm-4.662 1a.167.167 0 0 0-.167.167v4.666a.167.167 0 0 0 .167.167h4.662a.167.167 0 0 0 .167-.167V9.667a.167.167 0 0 0-.167-.167h-4.662Z"/>
</svg>
