<svg xmlns="http://www.w3.org/2000/svg" width="24" height="24" fill="none" viewBox="0 0 24 24">
  <path fill="#000" d="M11.5 5a6.5 6.5 0 1 1 0 13 6.5 6.5 0 0 1 0-13Zm0 1a5.5 5.5 0 1 0 0 11 5.5 5.5 0 0 0 0-11Zm0 8a.5.5 0 1 1 0 1 .5.5 0 0 1 0-1Zm-1.28-5.656a2.502 2.502 0 0 1 3.766 2.157c0 .932-.692 1.563-1.222 1.916a5.208 5.208 0 0 1-1.087.548l-.022.008a.103.103 0 0 1-.007.002h-.004a.5.5 0 0 1-.316-.948h.001l.013-.004.053-.02a4.214 4.214 0 0 0 .814-.418c.47-.313.777-.683.777-1.084a1.501 1.501 0 0 0-2.259-1.295c-.305.18-.61.46-.727.794a.5.5 0 0 1-.943-.333c.196-.556.655-1.025 1.164-1.323Z"/>
</svg>
