<svg xmlns="http://www.w3.org/2000/svg" width="16" height="16" fill="currentColor" viewBox="0 0 16 16">
  <path fill-rule="evenodd" d="M4.167 1.333c0-.644.522-1.166 1.166-1.166h5.334a1.166 1.166 0 1 1 0 2.333H5.333a1.166 1.166 0 0 1-1.166-1.167Zm1.166-.166a.166.166 0 0 0-.166.166c0 .093.075.167.166.167h5.334a.166.166 0 0 0 .166-.167.166.166 0 0 0-.166-.166H5.333Zm-2.5 5.166a1.5 1.5 0 0 1 1.5-1.5h7.334a1.5 1.5 0 0 1 1.5 1.5v3.334a1.5 1.5 0 0 1-1.5 1.5H4.333a1.5 1.5 0 0 1-1.5-1.5V6.333Zm1.5-.5a.5.5 0 0 0-.5.5v3.334a.5.5 0 0 0 .5.5h7.334a.5.5 0 0 0 .5-.5V6.333a.5.5 0 0 0-.5-.5H4.333Zm-.166 8.834c0-.643.52-1.167 1.166-1.167h5.334a1.167 1.167 0 0 1 0 2.333H5.333a1.166 1.166 0 0 1-1.166-1.166Zm1.166-.167a.167.167 0 0 0 0 .333h5.334a.167.167 0 0 0 0-.333H5.333Z" clip-rule="evenodd"/>
</svg>
