<svg xmlns="http://www.w3.org/2000/svg" width="16" height="16" fill="currentColor" viewBox="0 0 16 16">
  <path fill-rule="evenodd" d="M1.5 3.333c0-1.012.82-1.833 1.833-1.833h9.334c1.012 0 1.833.82 1.833 1.833v9.334c0 1.012-.82 1.833-1.833 1.833H3.333A1.833 1.833 0 0 1 1.5 12.667V3.333Zm12 5.46v-5.46a.833.833 0 0 0-.833-.833H3.333a.833.833 0 0 0-.833.833v9.334c0 .396.276.727.647.812l7.165-7.167a.5.5 0 0 1 .708 0l2.48 2.48ZM4.54 13.5h8.127c.46 0 .833-.373.833-.833v-2.46l-2.834-2.834L4.54 13.5Zm1.127-8.334a.5.5 0 1 0 0 1 .5.5 0 0 0 0-1Zm-1.5.5a1.5 1.5 0 1 1 3 0 1.5 1.5 0 0 1-3 0Z" clip-rule="evenodd"/>
</svg>
