<svg xmlns="http://www.w3.org/2000/svg" width="24" height="24" fill="none" viewBox="0 0 24 24">
  <path fill="#000" fill-rule="evenodd" d="M5.5 7.333c0-1.012.82-1.833 1.833-1.833h9.334c1.012 0 1.833.82 1.833 1.833v9.334c0 1.012-.82 1.833-1.833 1.833H7.333A1.833 1.833 0 0 1 5.5 16.667V7.333Zm12 5.46v-5.46a.833.833 0 0 0-.833-.833H7.333a.833.833 0 0 0-.833.833v9.334c0 .396.276.727.647.812l7.165-7.166a.5.5 0 0 1 .708 0l2.48 2.48ZM8.54 17.5h8.127c.46 0 .833-.373.833-.833v-2.46l-2.834-2.834L8.54 17.5Zm1.127-8.334a.5.5 0 1 0 0 1 .5.5 0 0 0 0-1Zm-1.5.5a1.5 1.5 0 1 1 3 0 1.5 1.5 0 0 1-3 0Z" clip-rule="evenodd"/>
</svg>
