<svg xmlns="http://www.w3.org/2000/svg" width="16" height="16" fill="currentColor" viewBox="0 0 16 16">
  <path fill-rule="evenodd" d="M8 1.5a.5.5 0 0 1 .5.5v6.793l2.48-2.48a.5.5 0 0 1 .707.708l-3.333 3.333a.5.5 0 0 1-.708 0L4.313 7.02a.5.5 0 1 1 .708-.708L7.5 8.793V2a.5.5 0 0 1 .5-.5Zm-6 8a.5.5 0 0 1 .5.5v2.667a.834.834 0 0 0 .833.833h9.334a.834.834 0 0 0 .833-.833V10a.5.5 0 0 1 1 0v2.667a1.835 1.835 0 0 1-1.833 1.833H3.333A1.835 1.835 0 0 1 1.5 12.667V10a.5.5 0 0 1 .5-.5Z" clip-rule="evenodd"/>
</svg>
