<svg xmlns="http://www.w3.org/2000/svg" width="24" height="24" fill="none" viewBox="0 0 24 24">
  <path fill="#000" fill-rule="evenodd" d="M12 5.5a.5.5 0 0 1 .5.5v6.793l2.48-2.48a.5.5 0 0 1 .707.708l-3.333 3.333a.5.5 0 0 1-.708 0L8.313 11.02a.5.5 0 0 1 .708-.708l2.479 2.48V6a.5.5 0 0 1 .5-.5Zm-6 8a.5.5 0 0 1 .5.5v2.667a.834.834 0 0 0 .833.833h9.334a.834.834 0 0 0 .833-.833V14a.5.5 0 0 1 1 0v2.667a1.835 1.835 0 0 1-1.833 1.833H7.333A1.835 1.835 0 0 1 5.5 16.667V14a.5.5 0 0 1 .5-.5Z" clip-rule="evenodd"/>
</svg>
