<svg xmlns="http://www.w3.org/2000/svg" width="16" height="16" fill="currentColor" viewBox="0 0 16 16">
  <path fill-rule="evenodd" d="M8 .167a.5.5 0 0 1 .5.5v1.499h2.667c1.103 0 2 .897 2 2v1c0 1.104-.897 2-2 2H8.5v1.667h1.333a2 2 0 0 1 2 2v1a2 2 0 0 1-2 2H8.5v1.5a.5.5 0 0 1-1 0v-1.5H6.167a2 2 0 0 1-2-2v-1a2 2 0 0 1 2-2H7.5V7.166H4.833a2 2 0 0 1-2-2v-1c0-1.103.896-2 2-2H7.5V.667a.5.5 0 0 1 .5-.5ZM4.833 3.166c-.552 0-1 .449-1 1v1a1 1 0 0 0 1 1h6.334c.551 0 1-.448 1-1v-1c0-.55-.45-1-1-1H4.833Zm1.334 6.667a1 1 0 0 0-1 1v1a1 1 0 0 0 1 1h3.666a1 1 0 0 0 1-1v-1a1 1 0 0 0-1-1H6.167Z" clip-rule="evenodd"/>
</svg>
