<svg xmlns="http://www.w3.org/2000/svg" width="24" height="24" fill="none" viewBox="0 0 24 24">
  <path fill="#000" fill-rule="evenodd" d="M12 4.167a.5.5 0 0 1 .5.5v1.499h2.667c1.103 0 2 .897 2 2v1c0 1.104-.897 2-2 2H12.5v1.667h1.333a2 2 0 0 1 2 2v1a2 2 0 0 1-2 2H12.5v1.5a.5.5 0 1 1-1 0v-1.5h-1.333a2 2 0 0 1-2-2v-1a2 2 0 0 1 2-2H11.5v-1.667H8.833a2 2 0 0 1-2-2v-1c0-1.103.896-2 2-2H11.5V4.667a.5.5 0 0 1 .5-.5ZM8.833 7.166c-.552 0-1 .449-1 1v1a1 1 0 0 0 1 1h6.334c.551 0 1-.448 1-1v-1c0-.55-.45-1-1-1H8.833Zm1.334 6.667a1 1 0 0 0-1 1v1a1 1 0 0 0 1 1h3.666a1 1 0 0 0 1-1v-1a1 1 0 0 0-1-1h-3.666Z" clip-rule="evenodd"/>
</svg>
