<svg xmlns="http://www.w3.org/2000/svg" width="16" height="16" fill="currentColor" viewBox="0 0 16 16">
  <path fill-rule="evenodd" d="M2 .167a.5.5 0 0 1 .5.5v.666a.5.5 0 0 0 .5.5h10a.5.5 0 0 0 .5-.5V.667a.5.5 0 0 1 1 0v.666a1.5 1.5 0 0 1-1.5 1.5H3a1.5 1.5 0 0 1-1.5-1.5V.667a.5.5 0 0 1 .5-.5ZM4.167 8c0-.643.52-1.167 1.166-1.167h5.334a1.167 1.167 0 0 1 0 2.334H5.333A1.167 1.167 0 0 1 4.167 8Zm1.166-.167a.167.167 0 0 0 0 .334h5.334a.167.167 0 0 0 0-.334H5.333ZM1.5 14.667c0-.83.672-1.5 1.5-1.5h10c.828 0 1.5.67 1.5 1.5v.666a.5.5 0 0 1-1 0v-.666a.5.5 0 0 0-.5-.5H3a.5.5 0 0 0-.5.5v.666a.5.5 0 0 1-1 0v-.666Z" clip-rule="evenodd"/>
</svg>
