<svg xmlns="http://www.w3.org/2000/svg" width="24" height="24" fill="none" viewBox="0 0 24 24">
  <path fill="#000" fill-rule="evenodd" d="M4.833 7a1.5 1.5 0 0 1 1.5-1.5H9A1.5 1.5 0 0 1 10.5 7v10A1.5 1.5 0 0 1 9 18.5H6.333a1.5 1.5 0 0 1-1.5-1.5V7Zm1.5-.5a.5.5 0 0 0-.5.5v10a.5.5 0 0 0 .5.5H9a.5.5 0 0 0 .5-.5V7a.5.5 0 0 0-.5-.5H6.333ZM13.5 7A1.5 1.5 0 0 1 15 5.5h2.667a1.5 1.5 0 0 1 1.5 1.5v10a1.5 1.5 0 0 1-1.5 1.5H15a1.5 1.5 0 0 1-1.5-1.5V7Zm1.5-.5a.5.5 0 0 0-.5.5v10a.5.5 0 0 0 .5.5h2.667a.5.5 0 0 0 .5-.5V7a.5.5 0 0 0-.5-.5H15Z" clip-rule="evenodd"/>
</svg>
