<svg xmlns="http://www.w3.org/2000/svg" width="24" height="24" fill="none" viewBox="0 0 24 24">
  <path fill="#000" fill-rule="evenodd" d="M6 4.167a.5.5 0 0 1 .5.5v.666a.5.5 0 0 0 .5.5h10a.5.5 0 0 0 .5-.5v-.666a.5.5 0 0 1 1 0v.666a1.5 1.5 0 0 1-1.5 1.5H7a1.5 1.5 0 0 1-1.5-1.5v-.666a.5.5 0 0 1 .5-.5ZM8.167 12c0-.643.52-1.167 1.166-1.167h5.334a1.167 1.167 0 0 1 0 2.334H9.333A1.167 1.167 0 0 1 8.167 12Zm1.166-.167a.167.167 0 0 0 0 .334h5.334a.167.167 0 0 0 0-.334H9.333ZM5.5 18.667c0-.83.672-1.5 1.5-1.5h10c.828 0 1.5.67 1.5 1.5v.666a.5.5 0 0 1-1 0v-.666a.5.5 0 0 0-.5-.5H7a.5.5 0 0 0-.5.5v.666a.5.5 0 0 1-1 0v-.666Z" clip-rule="evenodd"/>
</svg>
