<svg xmlns="http://www.w3.org/2000/svg" width="16" height="16" fill="currentColor" viewBox="0 0 16 16">
  <path fill-rule="evenodd" d="M.167 2a.5.5 0 0 1 .5-.5h.666c.83 0 1.5.672 1.5 1.5v10a1.5 1.5 0 0 1-1.5 1.5H.667a.5.5 0 0 1 0-1h.666a.5.5 0 0 0 .5-.5V3a.5.5 0 0 0-.5-.5H.667a.5.5 0 0 1-.5-.5Zm13 1c0-.828.67-1.5 1.5-1.5h.666a.5.5 0 0 1 0 1h-.666a.5.5 0 0 0-.5.5v10a.5.5 0 0 0 .5.5h.666a.5.5 0 0 1 0 1h-.666a1.5 1.5 0 0 1-1.5-1.5V3ZM6.833 5.333a1.167 1.167 0 0 1 2.334 0v5.334a1.167 1.167 0 0 1-2.334 0V5.333ZM8 5.167a.167.167 0 0 0-.167.166v5.334a.167.167 0 0 0 .334 0V5.333A.167.167 0 0 0 8 5.167Z" clip-rule="evenodd"/>
</svg>
