<svg xmlns="http://www.w3.org/2000/svg" width="16" height="16" fill="currentColor" viewBox="0 0 16 16">
  <path fill-rule="evenodd" d="M10.834 2.5a1 1 0 0 0-1 1v6.333a1 1 0 0 0 1 1h1c.551 0 1-.448 1-1V3.5c0-.552-.449-1-1-1h-1Zm-2 1a2 2 0 0 1 2-2h1c1.103 0 2 .896 2 2v6.333c0 1.104-.897 2-2 2h-1a2 2 0 0 1-2-2V3.5ZM4.167 5.167a1 1 0 0 0-1 1v3.666a1 1 0 0 0 1 1h1a1 1 0 0 0 1-1V6.167a1 1 0 0 0-1-1h-1Zm-2 1a2 2 0 0 1 2-2h1a2 2 0 0 1 2 2v3.666a2 2 0 0 1-2 2h-1a2 2 0 0 1-2-2V6.167ZM.833 14a.5.5 0 0 1 .5-.5h13.334a.5.5 0 0 1 0 1H1.333a.5.5 0 0 1-.5-.5Z" clip-rule="evenodd"/>
</svg>
