<svg xmlns="http://www.w3.org/2000/svg" width="24" height="24" fill="none" viewBox="0 0 24 24">
  <path fill="#000" fill-rule="evenodd" d="M4.8 6a.5.5 0 0 1 .5-.5h13.3a.5.5 0 1 1 0 1H5.3a.5.5 0 0 1-.5-.5Zm1.4 4.2c0-1.076.924-2 2-2h1c1.076 0 2 .924 2 2v3.6c0 .962-.738 1.802-1.663 1.97a.498.498 0 0 1-.337.13h-1c-1.076 0-2-.924-2-2v-3.7Zm2.7 4.7a.498.498 0 0 1 .3-.1c.524 0 1-.476 1-1v-3.6c0-.524-.476-1-1-1h-1c-.524 0-1 .476-1 1v3.7c0 .524.476 1 1 1h.7Zm3.9-4.7c0-1.076.924-2 2-2h1c1.076 0 2 .924 2 2v6.3c0 1.076-.924 2-2 2h-1c-1.076 0-2-.924-2-2v-6.3Zm2-1c-.524 0-1 .476-1 1v6.3c0 .524.476 1 1 1h1c.524 0 1-.476 1-1v-6.3c0-.524-.476-1-1-1h-1Z" clip-rule="evenodd"/>
</svg>
