<svg xmlns="http://www.w3.org/2000/svg" width="16" height="16" fill="currentColor" viewBox="0 0 16 16">
  <path fill-rule="evenodd" d="M2.89 2.5a.388.388 0 0 0-.39.39v2.22a.39.39 0 0 0 .39.39h2.22a.39.39 0 0 0 .39-.39V2.89a.388.388 0 0 0-.39-.39H2.89Zm-1.39.39c0-.77.62-1.39 1.39-1.39h2.22c.77 0 1.39.62 1.39 1.39v2.22A1.39 1.39 0 0 1 5.11 6.5H2.89A1.39 1.39 0 0 1 1.5 5.11V2.89Zm9.39-.39a.388.388 0 0 0-.39.39v2.22a.39.39 0 0 0 .39.39h2.22a.39.39 0 0 0 .39-.39V2.89a.388.388 0 0 0-.39-.39h-2.22Zm-1.39.39c0-.77.62-1.39 1.39-1.39h2.22c.77 0 1.39.62 1.39 1.39v2.22a1.39 1.39 0 0 1-1.39 1.39h-2.22A1.39 1.39 0 0 1 9.5 5.11V2.89ZM2.89 10.5a.389.389 0 0 0-.39.39v2.22a.39.39 0 0 0 .39.39h2.22a.39.39 0 0 0 .39-.39v-2.22a.389.389 0 0 0-.39-.39H2.89Zm-1.39.39c0-.768.62-1.39 1.39-1.39h2.22c.77 0 1.39.622 1.39 1.39v2.22a1.39 1.39 0 0 1-1.39 1.39H2.89a1.39 1.39 0 0 1-1.39-1.39v-2.22Zm9.39-.39a.389.389 0 0 0-.39.39v2.22a.39.39 0 0 0 .39.39h2.22a.39.39 0 0 0 .39-.39v-2.22a.389.389 0 0 0-.39-.39h-2.22Zm-1.39.39c0-.768.62-1.39 1.39-1.39h2.22c.77 0 1.39.622 1.39 1.39v2.22a1.39 1.39 0 0 1-1.39 1.39h-2.22a1.39 1.39 0 0 1-1.39-1.39v-2.22Z" clip-rule="evenodd"/>
</svg>
