<svg xmlns="http://www.w3.org/2000/svg" width="24" height="24" fill="none" viewBox="0 0 24 24">
  <path fill="#000" fill-rule="evenodd" d="M4.167 6a.5.5 0 0 1 .5-.5h.666c.83 0 1.5.672 1.5 1.5v10a1.5 1.5 0 0 1-1.5 1.5h-.666a.5.5 0 0 1 0-1h.666a.5.5 0 0 0 .5-.5V7a.5.5 0 0 0-.5-.5h-.666a.5.5 0 0 1-.5-.5Zm13 1c0-.828.67-1.5 1.5-1.5h.666a.5.5 0 0 1 0 1h-.666a.5.5 0 0 0-.5.5v10a.5.5 0 0 0 .5.5h.666a.5.5 0 0 1 0 1h-.666a1.5 1.5 0 0 1-1.5-1.5V7Zm-6.334 2.333a1.167 1.167 0 0 1 2.334 0v5.334a1.167 1.167 0 0 1-2.334 0V9.333ZM12 9.167a.167.167 0 0 0-.167.166v5.334a.167.167 0 0 0 .334 0V9.333A.167.167 0 0 0 12 9.167Z" clip-rule="evenodd"/>
</svg>
