<svg xmlns="http://www.w3.org/2000/svg" width="24" height="24" fill="none" viewBox="0 0 24 24">
  <path fill="#000" fill-rule="evenodd" d="M12.834 8.833a2 2 0 0 1 2-2h1c1.103 0 2 .896 2 2V11.5h1.499a.5.5 0 0 1 0 1h-1.499v2.667c0 1.103-.897 2-2 2h-1c-1.104 0-2-.897-2-2V12.5h-1.667v1.333a2 2 0 0 1-2 2h-1a2 2 0 0 1-2-2V12.5h-1.5a.5.5 0 1 1 0-1h1.5v-1.333a2 2 0 0 1 2-2h1a2 2 0 0 1 2 2V11.5h1.667V8.833Zm2-1a1 1 0 0 0-1 1v6.334c0 .551.448 1 1 1h1c.55 0 1-.45 1-1V8.833c0-.552-.449-1-1-1h-1ZM8.167 9.167a1 1 0 0 0-1 1v3.666a1 1 0 0 0 1 1h1a1 1 0 0 0 1-1v-3.666a1 1 0 0 0-1-1h-1Z" clip-rule="evenodd"/>
</svg>
