<svg xmlns="http://www.w3.org/2000/svg" width="24" height="24" fill="none" viewBox="0 0 24 24">
  <path fill="#000" fill-rule="evenodd" d="M18 4.833a.5.5 0 0 1 .5.5v13.334a.5.5 0 0 1-1 0V5.333a.5.5 0 0 1 .5-.5ZM7.5 7.166c-.552 0-1 .449-1 1v1a1 1 0 0 0 1 1h6.333a1 1 0 0 0 1-1v-1c0-.551-.448-1-1-1H7.5Zm-2 1c0-1.103.896-2 2-2h6.333c1.104 0 2 .897 2 2v1a2 2 0 0 1-2 2H7.5a2 2 0 0 1-2-2v-1Zm4.667 5.667a1 1 0 0 0-1 1v1a1 1 0 0 0 1 1h3.666a1 1 0 0 0 1-1v-1a1 1 0 0 0-1-1h-3.666Zm-1.414-.414a2 2 0 0 1 1.414-.586h3.666a2 2 0 0 1 2 2v1a2 2 0 0 1-2 2h-3.666a2 2 0 0 1-2-2v-1a2 2 0 0 1 .586-1.414Z" clip-rule="evenodd"/>
</svg>
