<svg xmlns="http://www.w3.org/2000/svg" width="24" height="24" fill="none" viewBox="0 0 24 24">
  <path fill="#000" fill-rule="evenodd" d="M14.834 6.5a1 1 0 0 0-1 1v6.333a1 1 0 0 0 1 1h1c.551 0 1-.448 1-1V7.5c0-.552-.449-1-1-1h-1Zm-2 1a2 2 0 0 1 2-2h1c1.103 0 2 .896 2 2v6.333c0 1.104-.897 2-2 2h-1a2 2 0 0 1-2-2V7.5ZM8.167 9.167a1 1 0 0 0-1 1v3.666a1 1 0 0 0 1 1h1a1 1 0 0 0 1-1v-3.666a1 1 0 0 0-1-1h-1Zm-2 1a2 2 0 0 1 2-2h1a2 2 0 0 1 2 2v3.666a2 2 0 0 1-2 2h-1a2 2 0 0 1-2-2v-3.666ZM4.833 18a.5.5 0 0 1 .5-.5h13.334a.5.5 0 0 1 0 1H5.333a.5.5 0 0 1-.5-.5Z" clip-rule="evenodd"/>
</svg>
