<svg xmlns="http://www.w3.org/2000/svg" width="24" height="24" fill="none" viewBox="0 0 24 24">
  <path fill="#000" fill-rule="evenodd" d="M6 4.9a.5.5 0 0 1 .5.5v13.3a.5.5 0 0 1-1 0V5.4a.5.5 0 0 1 .5-.5Zm2.2 3.3c0-1.076.924-2 2-2h6.3c1.076 0 2 .924 2 2v1c0 1.077-.924 2-2 2h-6.3c-1.076 0-2-.923-2-2v-1Zm2-1c-.524 0-1 .477-1 1v1c0 .524.476 1 1 1h6.3c.524 0 1-.476 1-1v-1c0-.523-.476-1-1-1h-6.3Zm-2 7.6c0-1.076.924-2 2-2h3.6c.962 0 1.802.739 1.97 1.664.08.089.13.207.13.336v1c0 1.076-.924 2-2 2h-3.7c-1.076 0-2-.924-2-2v-1Zm6.7.3a.497.497 0 0 1-.1-.3c0-.524-.476-1-1-1h-3.6c-.524 0-1 .476-1 1v1c0 .524.476 1 1 1h3.7c.524 0 1-.476 1-1v-.7Z" clip-rule="evenodd"/>
</svg>
