<svg xmlns="http://www.w3.org/2000/svg" width="24" height="24" fill="none" viewBox="0 0 24 24">
  <path fill="#000" d="M9.997 8.167a.5.5 0 0 1 0 1h-2c-.371 0-.74.073-1.084.215a2.844 2.844 0 0 0-1.534 1.533 2.847 2.847 0 0 0 0 2.17 2.841 2.841 0 0 0 2.618 1.748h2a.5.5 0 1 1 0 1h-2c-.503 0-1-.1-1.465-.291H6.53a3.842 3.842 0 0 1-2.074-2.074v-.001a3.845 3.845 0 0 1 0-2.934A3.843 3.843 0 0 1 6.53 8.457a3.852 3.852 0 0 1 1.467-.291h2Zm6.003 0c.504 0 1.001.1 1.466.291h.002a3.842 3.842 0 0 1 2.073 2.074l.001.001c.388.94.388 1.994 0 2.934a3.843 3.843 0 0 1-2.074 2.075 3.87 3.87 0 0 1-1.468.291h-2a.5.5 0 0 1 0-1h2c.372 0 .74-.073 1.084-.215a2.845 2.845 0 0 0 1.535-1.533 2.847 2.847 0 0 0 0-2.17 2.843 2.843 0 0 0-1.535-1.533A2.845 2.845 0 0 0 16 9.167h-2a.5.5 0 0 1 0-1h2Z"/>
  <path fill="#000" d="M14.667 11.493a.5.5 0 0 1 0 1H9.333a.5.5 0 0 1 0-1h5.334Z"/>
</svg>
