<svg xmlns="http://www.w3.org/2000/svg" width="16" height="16" fill="currentColor" viewBox="0 0 16 16">
  <path fill-rule="evenodd" d="M4 5.167a2.833 2.833 0 1 0 0 5.666h2a.5.5 0 0 1 0 1H4a3.834 3.834 0 1 1 0-7.666m0 1h2Zm0-1h2a.5.5 0 1 1 0 1m3.5-.5a.5.5 0 0 1 .5-.5h2c.504 0 1.001.099 1.467.29v.001a3.842 3.842 0 0 1 2.075 2.074v.001c.388.94.388 1.994 0 2.934a3.843 3.843 0 0 1-2.074 2.075h-.001a3.846 3.846 0 0 1-1.467.291h-2a.5.5 0 0 1 0-1h2c.372 0 .74-.073 1.085-.215a2.843 2.843 0 0 0 1.533-1.533 2.845 2.845 0 0 0 0-2.17 2.842 2.842 0 0 0-1.533-1.533A2.846 2.846 0 0 0 12 5.167h-2a.5.5 0 0 1-.5-.5ZM4.833 7.993a.5.5 0 0 1 .5-.5h5.334a.5.5 0 1 1 0 1H5.333a.5.5 0 0 1-.5-.5Z" clip-rule="evenodd"/>
</svg>
