<svg xmlns="http://www.w3.org/2000/svg" width="24" height="24" fill="none" viewBox="0 0 24 24">
  <path fill="#000" fill-rule="evenodd" d="M4.833 8a.5.5 0 0 1 .5-.5h1.334a.5.5 0 0 1 0 1H5.333a.5.5 0 0 1-.5-.5Zm4 0a.5.5 0 0 1 .5-.5H18a.5.5 0 0 1 0 1H9.333a.5.5 0 0 1-.5-.5Zm-4 4a.5.5 0 0 1 .5-.5h1.334a.5.5 0 0 1 0 1H5.333a.5.5 0 0 1-.5-.5Zm4 0a.5.5 0 0 1 .5-.5H18a.5.5 0 0 1 0 1H9.333a.5.5 0 0 1-.5-.5Zm-4 4a.5.5 0 0 1 .5-.5h1.334a.5.5 0 0 1 0 1H5.333a.5.5 0 0 1-.5-.5Zm4 0a.5.5 0 0 1 .5-.5H18a.5.5 0 0 1 0 1H9.333a.5.5 0 0 1-.5-.5Z" clip-rule="evenodd"/>
</svg>
