<svg xmlns="http://www.w3.org/2000/svg" width="16" height="16" fill="currentColor" viewBox="0 0 16 16">
  <path fill-rule="evenodd" d="M.833 4a.5.5 0 0 1 .5-.5h1.334a.5.5 0 0 1 0 1H1.333a.5.5 0 0 1-.5-.5Zm4 0a.5.5 0 0 1 .5-.5H14a.5.5 0 0 1 0 1H5.333a.5.5 0 0 1-.5-.5Zm-4 4a.5.5 0 0 1 .5-.5h1.334a.5.5 0 0 1 0 1H1.333a.5.5 0 0 1-.5-.5Zm4 0a.5.5 0 0 1 .5-.5H14a.5.5 0 0 1 0 1H5.333a.5.5 0 0 1-.5-.5Zm-4 4a.5.5 0 0 1 .5-.5h1.334a.5.5 0 0 1 0 1H1.333a.5.5 0 0 1-.5-.5Zm4 0a.5.5 0 0 1 .5-.5H14a.5.5 0 0 1 0 1H5.333a.5.5 0 0 1-.5-.5Z" clip-rule="evenodd"/>
</svg>
