<svg xmlns="http://www.w3.org/2000/svg" width="24" height="24" fill="none" viewBox="0 0 24 24">
  <path fill="#000" fill-rule="evenodd" d="M8.333 6.5c-1.01 0-1.833.822-1.833 1.833 0 1.012.822 1.834 1.833 1.834a1.835 1.835 0 0 0 1.834-1.834c0-1.01-.822-1.833-1.834-1.833ZM5.5 8.333A2.835 2.835 0 0 1 8.333 5.5a2.835 2.835 0 0 1 2.834 2.833 2.835 2.835 0 0 1-2.834 2.834A2.835 2.835 0 0 1 5.5 8.333ZM15.667 6.5a1.835 1.835 0 0 0-1.834 1.833c0 1.012.822 1.834 1.834 1.834 1.01 0 1.833-.822 1.833-1.834 0-1.01-.822-1.833-1.833-1.833Zm-2.834 1.833A2.835 2.835 0 0 1 15.667 5.5 2.835 2.835 0 0 1 18.5 8.333a2.835 2.835 0 0 1-2.833 2.834 2.835 2.835 0 0 1-2.834-2.834Zm-4.5 5.5c-1.01 0-1.833.822-1.833 1.834 0 1.01.822 1.833 1.833 1.833a1.835 1.835 0 0 0 1.834-1.833 1.835 1.835 0 0 0-1.834-1.834ZM5.5 15.667a2.835 2.835 0 0 1 2.833-2.834 2.835 2.835 0 0 1 2.834 2.834A2.835 2.835 0 0 1 8.333 18.5 2.835 2.835 0 0 1 5.5 15.667Zm10.167-1.834a1.835 1.835 0 0 0-1.834 1.834c0 1.01.822 1.833 1.834 1.833 1.01 0 1.833-.822 1.833-1.833a1.835 1.835 0 0 0-1.833-1.834Zm-2.834 1.834a2.835 2.835 0 0 1 2.834-2.834 2.835 2.835 0 0 1 2.833 2.834 2.835 2.835 0 0 1-2.833 2.833 2.835 2.835 0 0 1-2.834-2.833Z" clip-rule="evenodd"/>
</svg>
