<svg xmlns="http://www.w3.org/2000/svg" width="16" height="16" fill="currentColor" viewBox="0 0 16 16">
  <path fill-rule="evenodd" d="M4.333 2.5c-1.01 0-1.833.822-1.833 1.833 0 1.012.822 1.834 1.833 1.834a1.835 1.835 0 0 0 1.834-1.834c0-1.01-.822-1.833-1.834-1.833ZM1.5 4.333A2.835 2.835 0 0 1 4.333 1.5a2.835 2.835 0 0 1 2.834 2.833 2.835 2.835 0 0 1-2.834 2.834A2.835 2.835 0 0 1 1.5 4.333ZM11.667 2.5a1.835 1.835 0 0 0-1.834 1.833c0 1.012.822 1.834 1.834 1.834 1.01 0 1.833-.822 1.833-1.834 0-1.01-.822-1.833-1.833-1.833ZM8.833 4.333A2.835 2.835 0 0 1 11.667 1.5 2.835 2.835 0 0 1 14.5 4.333a2.835 2.835 0 0 1-2.833 2.834 2.835 2.835 0 0 1-2.834-2.834Zm-4.5 5.5c-1.01 0-1.833.822-1.833 1.834 0 1.01.822 1.833 1.833 1.833a1.835 1.835 0 0 0 1.834-1.833 1.835 1.835 0 0 0-1.834-1.834ZM1.5 11.667a2.835 2.835 0 0 1 2.833-2.834 2.835 2.835 0 0 1 2.834 2.834A2.835 2.835 0 0 1 4.333 14.5 2.835 2.835 0 0 1 1.5 11.667Zm10.167-1.834a1.835 1.835 0 0 0-1.834 1.834c0 1.01.822 1.833 1.834 1.833 1.01 0 1.833-.822 1.833-1.833a1.835 1.835 0 0 0-1.833-1.834Zm-2.834 1.834a2.835 2.835 0 0 1 2.834-2.834 2.835 2.835 0 0 1 2.833 2.834 2.835 2.835 0 0 1-2.833 2.833 2.835 2.835 0 0 1-2.834-2.833Z" clip-rule="evenodd"/>
</svg>
