<svg xmlns="http://www.w3.org/2000/svg" width="24" height="24" fill="none" viewBox="0 0 24 24">
  <path fill="#000" fill-rule="evenodd" d="M12.333 5.833A2.834 2.834 0 0 0 9.5 8.667v3.5h5.666v-3.5a2.835 2.835 0 0 0-2.833-2.834Zm3.833 6.334h.315c.985 0 1.685.878 1.685 1.833v3.333c0 .956-.7 1.834-1.685 1.834H8.185c-.985 0-1.685-.878-1.685-1.834V14c0-.955.7-1.833 1.685-1.833H8.5v-3.5a3.83 3.83 0 0 1 1.123-2.71m6.543 6.21v-3.5a3.834 3.834 0 0 0-6.543-2.71m-1.438 7.21c-.325 0-.685.316-.685.833v3.333c0 .518.36.834.685.834h8.296c.325 0 .685-.316.685-.834V14c0-.517-.36-.833-.685-.833H8.185Z" clip-rule="evenodd"/>
</svg>
