<svg xmlns="http://www.w3.org/2000/svg" width="24" height="24" fill="none" viewBox="0 0 24 24">
  <path fill="#000" d="M16.833 14c0-.517-.36-.833-.685-.833H7.852c-.325 0-.685.316-.685.833v3.333l.004.095c.04.461.376.739.68.739h8.297c.325 0 .685-.316.685-.834V14Zm1 3.333c0 .955-.7 1.834-1.685 1.834H7.852c-.924 0-1.597-.772-1.677-1.656l-.008-.178V14c0-.955.7-1.833 1.685-1.833h.315v-3.5c-.001-.95.35-1.868.987-2.573l.123-.13a3.837 3.837 0 0 1 4.996-.387l.141.108A3.834 3.834 0 0 1 15.757 7.9l-.98.2a2.834 2.834 0 0 0-.892-1.552l-.204-.165a2.834 2.834 0 0 0-3.785.38h.001c-.47.522-.73 1.2-.73 1.903v3.5h6.981c.985.001 1.685.879 1.685 1.834v3.333Z"/>
</svg>
