<svg xmlns="http://www.w3.org/2000/svg" width="16" height="16" fill="currentColor" viewBox="0 0 16 16">
  <path fill-rule="evenodd" d="M9.68 2.382a2.832 2.832 0 0 0-3.783.382m4.377-1.187a3.831 3.831 0 0 0-6.107 3.09m0 3.5h-.315c-.985 0-1.685.878-1.685 1.833v3.333c0 .956.7 1.834 1.685 1.834h8.296c.985 0 1.685-.878 1.685-1.834V10c0-.955-.7-1.833-1.685-1.833H5.167v-3.5c0-.703.26-1.38.73-1.903m-1.73 5.403h1v.5h-1v-.5Zm6.107-6.59A3.832 3.832 0 0 1 11.757 3.9a.5.5 0 1 1-.98.2A2.834 2.834 0 0 0 9.68 2.382M3.852 9.167c-.325 0-.685.316-.685.833v3.333c0 .518.36.834.685.834h8.296c.325 0 .685-.316.685-.834V10c0-.517-.36-.833-.685-.833H3.852Z" clip-rule="evenodd"/>
</svg>
