<svg xmlns="http://www.w3.org/2000/svg" width="24" height="24" fill="none" viewBox="0 0 24 24">
  <path fill="#000" d="M8 14a1 1 0 1 1 0 2 1 1 0 0 1 0-2Zm4 0a1 1 0 1 1 0 2 1 1 0 0 1 0-2Zm-4-3a1 1 0 1 1 0 2 1 1 0 0 1 0-2Zm4 0a1 1 0 1 1 0 2 1 1 0 0 1 0-2Z"/>
  <path fill="#000" fill-rule="evenodd" d="M17.5 6A1.5 1.5 0 0 1 19 7.5v5.82a2 2 0 0 1-.683 1.504l-3.206 2.805a1.496 1.496 0 0 1-.986.371H6.497C5.667 18 5 17.327 5 16.5v-6.45a1.5 1.5 0 0 1 .7-1.267l3.549-2.242A3.5 3.5 0 0 1 11.119 6H17.5ZM6.003 10a.51.51 0 0 0-.003.05v6.45c0 .278.223.5.497.5H14v-7H6.003ZM15 9.758v6.64l2.66-2.327a1 1 0 0 0 .34-.752V7.614l-3 2.144ZM11.118 7a2.5 2.5 0 0 0-1.335.387L7.228 9h7.11l2.8-2h-6.02Z" clip-rule="evenodd"/>
</svg>
