<svg xmlns="http://www.w3.org/2000/svg" width="16" height="16" fill="currentColor" viewBox="0 0 16 16">
  <path fill-rule="evenodd" d="M7.118 3a2.5 2.5 0 0 0-1.335.386L3.228 5H10.5v1H2.003A.512.512 0 0 0 2 6.051V12.5c0 .278.223.5.498.5h7.627a.498.498 0 0 0 .328-.123l3.206-2.805A1 1 0 0 0 14 9.319V3.5a.5.5 0 0 0-.5-.5H7.118ZM5.25 2.54A3.5 3.5 0 0 1 7.12 2h6.38A1.5 1.5 0 0 1 15 3.5v5.82a2 2 0 0 1-.683 1.504l-3.205 2.805c-.274.24-.624.371-.987.371H2.498C1.668 14 1 13.327 1 12.5V6.051a1.5 1.5 0 0 1 .699-1.268l3.55-2.242Z" clip-rule="evenodd"/>
  <path d="M5 8a1 1 0 1 1-2 0 1 1 0 0 1 2 0Zm4 0a1 1 0 1 1-2 0 1 1 0 0 1 2 0Zm0 3a1 1 0 1 1-2 0 1 1 0 0 1 2 0Zm-4 0a1 1 0 1 1-2 0 1 1 0 0 1 2 0Z"/>
  <path fill-rule="evenodd" d="M14.407 2.71a.5.5 0 0 1-.116.697l-3.5 2.5a.5.5 0 0 1-.582-.814l3.5-2.5a.5.5 0 0 1 .698.116Z" clip-rule="evenodd"/>
  <path fill-rule="evenodd" d="M10 13V5h1v8h-1Z" clip-rule="evenodd"/>
</svg>
