<svg xmlns="http://www.w3.org/2000/svg" width="16" height="16" fill="currentColor" viewBox="0 0 16 16">
  <path fill-rule="evenodd" d="M1.646 1.646a.5.5 0 0 1 .708 0L5.5 4.793V3a.5.5 0 0 1 1 0v3a.5.5 0 0 1-.5.5H3a.5.5 0 0 1 0-1h1.793L1.646 2.354a.5.5 0 0 1 0-.708Zm13.708 0a.5.5 0 0 1 0 .708L12.207 5.5H14a.5.5 0 0 1 0 1h-3a.5.5 0 0 1-.5-.5V3a.5.5 0 0 1 1 0v1.793l3.146-3.147a.5.5 0 0 1 .708 0ZM3 11.5a.5.5 0 0 1 0-1h3a.5.5 0 0 1 .5.5v3a.5.5 0 0 1-1 0v-1.793l-3.146 3.147a.5.5 0 0 1-.708-.708L4.793 11.5H3Zm8-1h3a.5.5 0 0 1 0 1h-1.793l3.147 3.146a.5.5 0 0 1-.708.708L11.5 12.207V14a.5.5 0 0 1-1 0v-3a.5.5 0 0 1 .5-.5Z" clip-rule="evenodd"/>
</svg>
