<svg xmlns="http://www.w3.org/2000/svg" width="16" height="16" fill="currentColor" viewBox="0 0 16 16">
  <path fill-rule="evenodd" d="M1.501 7.328a5.833 5.833 0 0 1 5.837-5.829 5.835 5.835 0 0 1 5.83 5.838 5.816 5.816 0 0 1-1.374 3.756l2.555 2.559a.5.5 0 1 1-.708.706L11.086 11.8a5.806 5.806 0 0 1-3.758 1.367l.001-.5v.5A5.832 5.832 0 0 1 1.5 7.328H2h-.5Zm0 0Zm9.954 4.133-.353-.354.353.354ZM7.337 2.499a4.833 4.833 0 0 0-4.836 4.83 4.832 4.832 0 0 0 4.828 4.837 4.812 4.812 0 0 0 3.42-1.413A4.835 4.835 0 0 0 7.338 2.5Z" clip-rule="evenodd"/>
</svg>
