<svg xmlns="http://www.w3.org/2000/svg" width="24" height="24" fill="none" viewBox="0 0 24 24">
  <path fill="#000" fill-rule="evenodd" d="M16 5.5a1.5 1.5 0 1 0 0 3 1.5 1.5 0 0 0 0-3Zm-1.864 3.166a2.5 2.5 0 1 0-.504-.864l-3.768 2.2A2.503 2.503 0 0 0 8 9.166a2.5 2.5 0 1 0 1.865 4.165l3.768 2.197a2.498 2.498 0 0 0 .6 2.572 2.5 2.5 0 1 0-.095-3.436l-3.77-2.197a2.499 2.499 0 0 0 0-1.603l3.768-2.2Zm-4.853 2.223a.477.477 0 0 0 .025.045 1.5 1.5 0 1 1-.025-.045Zm5.386 4.752a.509.509 0 0 0 .075-.129A1.505 1.505 0 0 1 16 14.833a1.5 1.5 0 1 1-1.33.808Z" clip-rule="evenodd"/>
</svg>
