<svg xmlns="http://www.w3.org/2000/svg" width="16" height="16" fill="currentColor" viewBox="0 0 16 16">
  <path fill-rule="evenodd" d="M12 1.5a1.5 1.5 0 1 0 0 3 1.5 1.5 0 0 0 0-3Zm-1.864 3.166a2.5 2.5 0 1 0-.504-.864l-3.768 2.2a2.5 2.5 0 1 0 0 3.331l3.769 2.196a2.5 2.5 0 1 0 .505-.864l-3.77-2.197a2.5 2.5 0 0 0 0-1.603l3.768-2.2ZM5.283 6.889a.52.52 0 0 0 .025.045 1.5 1.5 0 1 1-.025-.045Zm5.386 4.752a.509.509 0 0 0 .075-.129A1.505 1.505 0 0 1 12 10.833a1.5 1.5 0 1 1-1.33.808Z" clip-rule="evenodd"/>
</svg>
