<svg xmlns="http://www.w3.org/2000/svg" width="16" height="16" fill="currentColor" viewBox="0 0 16 16">
  <g clip-path="url(#a)">
    <path fill-rule="evenodd" d="M8 .833A7.171 7.171 0 0 1 15.167 8 7.173 7.173 0 0 1 8 15.167 7.172 7.172 0 0 1 .833 8 7.172 7.172 0 0 1 8 .833Zm0 1A6.171 6.171 0 0 0 1.833 8 6.171 6.171 0 0 0 8 14.167 6.171 6.171 0 0 0 14.167 8 6.171 6.171 0 0 0 8 1.833ZM4.911 5.411a.833.833 0 1 1 1.178 1.178.833.833 0 0 1-1.178-1.178Zm.589.756a.167.167 0 1 0 0-.334.167.167 0 0 0 0 .334Zm4.411-.756a.833.833 0 1 1 1.178 1.178.833.833 0 0 1-1.178-1.178Zm.589.756a.167.167 0 1 0 0-.334.167.167 0 0 0 0 .334ZM5.033 8.933a.5.5 0 0 1 .7.1l-.4.3.4-.3.004.005.025.031a3.464 3.464 0 0 0 .573.527c.404.293.97.571 1.665.571.696 0 1.261-.278 1.664-.571a3.464 3.464 0 0 0 .6-.558l.004-.006a.5.5 0 1 1 .8.6l-.401-.299.4.3-.001.001-.002.002-.004.006-.013.016-.043.054a4.46 4.46 0 0 1-.751.693c-.514.373-1.282.762-2.253.762-.971 0-1.74-.389-2.253-.763a4.461 4.461 0 0 1-.75-.692 2.427 2.427 0 0 1-.044-.054l-.013-.016-.004-.006-.002-.002s-.001-.001.386-.291l-.387.29a.5.5 0 0 1 .1-.7Z" clip-rule="evenodd"/>
  </g>
  <defs>
    <clipPath id="a">
      <path d="M0 0h16v16H0z"/>
    </clipPath>
  </defs>
</svg>
