<svg xmlns="http://www.w3.org/2000/svg" width="24" height="24" fill="none" viewBox="0 0 24 24">
  <path fill="#000" fill-rule="evenodd" d="M12 4.833A7.171 7.171 0 0 1 19.167 12 7.173 7.173 0 0 1 12 19.167 7.172 7.172 0 0 1 4.833 12 7.172 7.172 0 0 1 12 4.833Zm0 1A6.17 6.17 0 0 0 5.833 12 6.171 6.171 0 0 0 12 18.167 6.171 6.171 0 0 0 18.167 12 6.171 6.171 0 0 0 12 5.833ZM8.911 9.411a.833.833 0 1 1 1.178 1.178.833.833 0 0 1-1.178-1.178Zm.589.756a.167.167 0 1 0 0-.334.167.167 0 0 0 0 .334Zm4.411-.756a.833.833 0 1 1 1.178 1.178.833.833 0 0 1-1.178-1.178Zm.589.756a.167.167 0 1 0 0-.334.167.167 0 0 0 0 .334Zm-5.467 2.766a.5.5 0 0 1 .7.1l-.4.3.4-.3.004.005.025.031a3.472 3.472 0 0 0 .573.527c.404.293.97.571 1.665.571.696 0 1.261-.278 1.665-.571a3.472 3.472 0 0 0 .598-.558l.005-.006a.5.5 0 1 1 .8.6l-.401-.299.4.3-.001.001-.002.002-.004.006-.013.016-.043.054a4.458 4.458 0 0 1-.751.693c-.514.373-1.282.762-2.253.762-.971 0-1.74-.389-2.253-.763a4.46 4.46 0 0 1-.75-.692 2.353 2.353 0 0 1-.044-.054l-.013-.016-.004-.006-.002-.002s-.001-.001.386-.292l-.387.292a.5.5 0 0 1 .1-.701Z" clip-rule="evenodd"/>
</svg>
