<svg xmlns="http://www.w3.org/2000/svg" width="16" height="16" fill="currentColor" viewBox="0 0 16 16">
  <path fill-rule="evenodd" d="M3.5 1a.5.5 0 0 1 .5.5v11.619l1.616-1.94a.5.5 0 0 1 .768.641l-2.5 3a.5.5 0 0 1-.768 0l-2.5-3a.5.5 0 0 1 .768-.64L3 13.119V1.5a.5.5 0 0 1 .5-.5Zm8 0a.5.5 0 0 1 .447.276l2.5 5a.5.5 0 1 1-.894.448l-.761-1.522h-2.584l-.76 1.522a.5.5 0 1 1-.895-.448l2.5-5A.5.5 0 0 1 11.5 1Zm-.792 3.202h1.584L11.5 2.618l-.792 1.584ZM9 9.5a.5.5 0 0 1 .5-.5h4a.5.5 0 0 1 .372.834L10.122 14H14a.5.5 0 1 1 0 1H9a.5.5 0 0 1-.372-.835L12.378 10H9.5a.5.5 0 0 1-.5-.5Z" clip-rule="evenodd"/>
</svg>
