<svg xmlns="http://www.w3.org/2000/svg" width="24" height="24" fill="none" viewBox="0 0 24 24">
  <path fill="#000" fill-rule="evenodd" d="M7.5 5a.5.5 0 0 1 .5.5v11.619l1.616-1.94a.5.5 0 0 1 .768.641l-2.5 3a.5.5 0 0 1-.768 0l-2.5-3a.5.5 0 0 1 .768-.64L7 17.119V5.5a.5.5 0 0 1 .5-.5Zm8 0a.5.5 0 0 1 .447.276l2.5 5a.5.5 0 1 1-.894.448l-.761-1.522h-2.584l-.76 1.522a.5.5 0 1 1-.895-.448l2.5-5A.5.5 0 0 1 15.5 5Zm-.792 3.202h1.584L15.5 6.618l-.792 1.584ZM13 13.5a.5.5 0 0 1 .5-.5h4a.5.5 0 0 1 .372.835L14.122 18H18a.5.5 0 1 1 0 1h-5a.5.5 0 0 1-.372-.834L16.378 14H13.5a.5.5 0 0 1-.5-.5Z" clip-rule="evenodd"/>
</svg>
