<svg xmlns="http://www.w3.org/2000/svg" width="16" height="16" fill="currentColor" viewBox="0 0 16 16">
  <path fill-rule="evenodd" d="M11 10.75c0 .138.112.25.25.25h.25a.5.5 0 0 1 0 1h-.25c-.69 0-1.25-.56-1.25-1.25v-6.5c0-.69.56-1.25 1.25-1.25h.25a.5.5 0 0 1 0 1h-.25a.25.25 0 0 0-.25.25v6.5Zm-8 .75a.5.5 0 0 1 .5-.5h.25a.25.25 0 0 0 .25-.25v-6.5A.25.25 0 0 0 3.75 4H3.5a.5.5 0 1 1 0-1h.25C4.44 3 5 3.56 5 4.25v6.5C5 11.44 4.44 12 3.75 12H3.5a.5.5 0 0 1-.5-.5Zm4-2a.5.5 0 1 0 1 0v-4a.5.5 0 1 0-1 0v4Z" clip-rule="evenodd"/>
</svg>
