<svg xmlns="http://www.w3.org/2000/svg" width="16" height="16" fill="currentColor" viewBox="0 0 16 16">
  <path fill-rule="evenodd" d="M4.5 6a1.5 1.5 0 1 1 0-3 1.5 1.5 0 0 1 0 3Zm0 1a2.5 2.5 0 1 1 0-5 2.5 2.5 0 0 1 0 5Zm7-1a1.5 1.5 0 1 1 0-3 1.5 1.5 0 0 1 0 3Zm0 1a2.5 2.5 0 1 1 0-5 2.5 2.5 0 0 1 0 5ZM10 11.5a1.5 1.5 0 1 0 3 0 1.5 1.5 0 0 0-3 0Zm-1 0a2.5 2.5 0 1 0 5 0 2.5 2.5 0 0 0-5 0ZM4.5 13a1.5 1.5 0 1 1 0-3 1.5 1.5 0 0 1 0 3Zm0 1a2.5 2.5 0 1 1 0-5 2.5 2.5 0 0 1 0 5Z" clip-rule="evenodd"/>
</svg>
