<svg xmlns="http://www.w3.org/2000/svg" width="16" height="16" fill="currentColor" viewBox="0 0 16 16">
  <path fill-rule="evenodd" d="M6.783 2.638a5.5 5.5 0 0 1 5.098 1.47l1.729 1.625V3.556a.5.5 0 0 1 1 0V6.86a.499.499 0 0 1-.841.396l-.92-.865h.76m-.76 0L11.19 4.832l-.01-.011A4.5 4.5 0 0 0 3.753 6.5a.5.5 0 1 1-.942-.334 5.5 5.5 0 0 1 3.97-3.53M12.85 6.39h-2.072a.5.5 0 0 0 0 1h3.333M1.389 9.111a.5.5 0 0 1 .5-.5h3.334a.5.5 0 0 1 0 1H3.15l1.658 1.559.012.01a4.5 4.5 0 0 0 7.425-1.68.5.5 0 0 1 .942.334 5.5 5.5 0 0 1-9.07 2.06l-1.73-1.627v2.177a.5.5 0 1 1-1 0V9.111Z" clip-rule="evenodd"/>
</svg>
