<svg xmlns="http://www.w3.org/2000/svg" width="24" height="24" fill="none" viewBox="0 0 24 24">
  <path fill="#000" fill-rule="evenodd" d="M5.389 13.11a.5.5 0 0 1 .5-.5h3.334a.5.5 0 0 1 0 1H7.15l1.658 1.56.012.01a4.5 4.5 0 0 0 7.425-1.68.5.5 0 1 1 .942.334 5.5 5.5 0 0 1-9.07 2.059l-1.73-1.626v2.177a.5.5 0 1 1-1 0V13.11Z" clip-rule="evenodd"/>
  <path fill="#000" d="M18.61 10.89a.5.5 0 0 1-.5.5h-3.333a.5.5 0 1 1 0-1h2.072L15.19 8.83l-.01-.01a4.5 4.5 0 0 0-7.426 1.68.5.5 0 0 1-.942-.334 5.5 5.5 0 0 1 9.069-2.059l1.73 1.626V7.556a.5.5 0 0 1 1 0v3.333Z"/>
</svg>
