<svg xmlns="http://www.w3.org/2000/svg" width="16" height="16" fill="currentColor" viewBox="0 0 16 16">
  <path fill-rule="evenodd" d="M7 4v7a2 2 0 0 1-4 0V4a2 2 0 1 1 4 0ZM2 4a3 3 0 1 1 6 0v7c0 .768-.289 1.47-.764 2H12a2 2 0 0 0 0-4h-.757l-3.597 3.596c-.089.09-.182.173-.28.248A3 3 0 0 0 8 11v-.171l3.89-3.89a2 2 0 0 0-2.83-2.828L8 5.171V4c0-.079-.003-.156-.009-.233l.363-.363a3 3 0 1 1 4.242 4.243l-.362.362a3 3 0 0 1-.234 5.99H5.032L5 14a3 3 0 0 1-3-3V4Zm3 8a1 1 0 1 0 0-2 1 1 0 0 0 0 2Z" clip-rule="evenodd"/>
</svg>
