<svg xmlns="http://www.w3.org/2000/svg" width="16" height="16" fill="currentColor" viewBox="0 0 16 16">
  <path fill-rule="evenodd" d="M1.5 2.333A1.5 1.5 0 0 1 3 .833h10a1.5 1.5 0 0 1 1.5 1.5V5A1.5 1.5 0 0 1 13 6.5H3A1.5 1.5 0 0 1 1.5 5V2.333Zm1.5-.5a.5.5 0 0 0-.5.5V5a.5.5 0 0 0 .5.5h10a.5.5 0 0 0 .5-.5V2.333a.5.5 0 0 0-.5-.5H3ZM1.5 11A1.5 1.5 0 0 1 3 9.5h10a1.5 1.5 0 0 1 1.5 1.5v2.667a1.5 1.5 0 0 1-1.5 1.5H3a1.5 1.5 0 0 1-1.5-1.5V11Zm1.5-.5a.5.5 0 0 0-.5.5v2.667a.5.5 0 0 0 .5.5h10a.5.5 0 0 0 .5-.5V11a.5.5 0 0 0-.5-.5H3Z" clip-rule="evenodd"/>
</svg>
