<svg xmlns="http://www.w3.org/2000/svg" width="16" height="16" fill="currentColor" viewBox="0 0 16 16">
  <path fill-rule="evenodd" d="M.833 3a1.5 1.5 0 0 1 1.5-1.5H5A1.5 1.5 0 0 1 6.5 3v10A1.5 1.5 0 0 1 5 14.5H2.333a1.5 1.5 0 0 1-1.5-1.5V3Zm1.5-.5a.5.5 0 0 0-.5.5v10a.5.5 0 0 0 .5.5H5a.5.5 0 0 0 .5-.5V3a.5.5 0 0 0-.5-.5H2.333ZM9.5 3A1.5 1.5 0 0 1 11 1.5h2.667a1.5 1.5 0 0 1 1.5 1.5v10a1.5 1.5 0 0 1-1.5 1.5H11A1.5 1.5 0 0 1 9.5 13V3Zm1.5-.5a.5.5 0 0 0-.5.5v10a.5.5 0 0 0 .5.5h2.667a.5.5 0 0 0 .5-.5V3a.5.5 0 0 0-.5-.5H11Z" clip-rule="evenodd"/>
</svg>
