<svg xmlns="http://www.w3.org/2000/svg" width="24" height="24" fill="none" viewBox="0 0 24 24">
  <path fill="#000" fill-rule="evenodd" d="M5.5 6.333a1.5 1.5 0 0 1 1.5-1.5h10a1.5 1.5 0 0 1 1.5 1.5V9a1.5 1.5 0 0 1-1.5 1.5H7A1.5 1.5 0 0 1 5.5 9V6.333Zm1.5-.5a.5.5 0 0 0-.5.5V9a.5.5 0 0 0 .5.5h10a.5.5 0 0 0 .5-.5V6.333a.5.5 0 0 0-.5-.5H7ZM5.5 15A1.5 1.5 0 0 1 7 13.5h10a1.5 1.5 0 0 1 1.5 1.5v2.667a1.5 1.5 0 0 1-1.5 1.5H7a1.5 1.5 0 0 1-1.5-1.5V15Zm1.5-.5a.5.5 0 0 0-.5.5v2.667a.5.5 0 0 0 .5.5h10a.5.5 0 0 0 .5-.5V15a.5.5 0 0 0-.5-.5H7Z" clip-rule="evenodd"/>
</svg>
