<svg xmlns="http://www.w3.org/2000/svg" width="24" height="24" fill="none" viewBox="0 0 24 24">
  <path fill="#000" fill-rule="evenodd" d="M10.667 5.833a.834.834 0 0 0-.834.834V7.5h4.334v-.833a.834.834 0 0 0-.834-.834h-2.666Zm4.5 1.667v-.833c0-1.013-.82-1.834-1.834-1.834h-2.666c-1.013 0-1.834.82-1.834 1.834V7.5H6a.5.5 0 0 0 0 1h.833v8.833c0 1.013.82 1.834 1.834 1.834h6.666c1.013 0 1.834-.82 1.834-1.834V8.5H18a.5.5 0 0 0 0-1h-2.833Zm1 1H7.833v8.833c0 .46.373.834.834.834h6.666c.46 0 .834-.373.834-.834V8.5Zm-5.5 2.333a.5.5 0 0 1 .5.5v4a.5.5 0 0 1-1 0v-4a.5.5 0 0 1 .5-.5Zm2.666 0a.5.5 0 0 1 .5.5v4a.5.5 0 0 1-1 0v-4a.5.5 0 0 1 .5-.5Z" clip-rule="evenodd"/>
</svg>
