<svg xmlns="http://www.w3.org/2000/svg" width="16" height="16" fill="currentColor" viewBox="0 0 16 16">
  <path fill-rule="evenodd" d="M6.667 1.833a.834.834 0 0 0-.834.834V3.5h4.334v-.833a.834.834 0 0 0-.834-.834H6.667Zm4.5 1.667v-.833c0-1.013-.82-1.834-1.834-1.834H6.667c-1.013 0-1.834.82-1.834 1.834V3.5H2a.5.5 0 0 0 0 1h.833v8.833c0 1.013.82 1.834 1.834 1.834h6.666c1.013 0 1.834-.82 1.834-1.834V4.5H14a.5.5 0 0 0 0-1h-2.833Zm1 1H3.833v8.833c0 .46.373.834.834.834h6.666c.46 0 .834-.373.834-.834V4.5Zm-5.5 2.333a.5.5 0 0 1 .5.5v4a.5.5 0 0 1-1 0v-4a.5.5 0 0 1 .5-.5Zm2.666 0a.5.5 0 0 1 .5.5v4a.5.5 0 0 1-1 0v-4a.5.5 0 0 1 .5-.5Z" clip-rule="evenodd"/>
</svg>
