<svg xmlns="http://www.w3.org/2000/svg" width="16" height="16" fill="currentColor" viewBox="0 0 16 16">
  <path fill-rule="evenodd" d="M7.99 1.5a3.167 3.167 0 1 1 .123 6.334A3.167 3.167 0 0 1 7.99 1.5Zm.862 1.153a2.167 2.167 0 1 0-1.6 4.028 2.167 2.167 0 0 0 1.6-4.028ZM3.094 10.43a3.167 3.167 0 0 1 2.239-.93h5.334a3.168 3.168 0 0 1 3.166 3.167V14a.5.5 0 0 1-1 0v-1.333a2.167 2.167 0 0 0-2.166-2.167m-5.334 0a2.167 2.167 0 0 0-2.166 2.167V14a.5.5 0 0 1-1 0v-1.333c0-.84.333-1.646.927-2.24m2.239.072Zm0 0h5.334Z" clip-rule="evenodd"/>
</svg>
