<svg xmlns="http://www.w3.org/2000/svg" width="24" height="24" fill="none" viewBox="0 0 24 24">
  <path fill="#000" fill-rule="evenodd" d="M11.99 5.5a3.167 3.167 0 1 1 .123 6.334A3.167 3.167 0 0 1 11.99 5.5Zm.862 1.153a2.167 2.167 0 1 0-1.6 4.027 2.167 2.167 0 0 0 1.6-4.027ZM7.094 14.43a3.167 3.167 0 0 1 2.239-.928h5.334a3.167 3.167 0 0 1 3.166 3.167V18a.5.5 0 0 1-1 0v-1.332a2.167 2.167 0 0 0-2.166-2.167m-5.334 0a2.167 2.167 0 0 0-2.166 2.167V18a.5.5 0 0 1-1 0v-1.332c0-.84.333-1.646.927-2.24m2.239.072Zm0 0h5.334-5.334Z" clip-rule="evenodd"/>
</svg>
