<svg xmlns="http://www.w3.org/2000/svg" width="24" height="24" fill="none" viewBox="0 0 24 24">
  <path fill="#000" fill-rule="evenodd" d="M8.833 8.333a1.5 1.5 0 0 1 1.5-1.5h3.334a1.5 1.5 0 0 1 1.5 1.5v7.334a1.5 1.5 0 0 1-1.5 1.5h-3.334a1.5 1.5 0 0 1-1.5-1.5V8.333Zm1.5-.5a.5.5 0 0 0-.5.5v7.334a.5.5 0 0 0 .5.5h3.334a.5.5 0 0 0 .5-.5V8.333a.5.5 0 0 0-.5-.5h-3.334Zm-6.166 1.5a1.166 1.166 0 1 1 2.333 0v5.334a1.166 1.166 0 0 1-2.333 0V9.333Zm1.166-.166a.166.166 0 0 0-.166.166v5.334c0 .092.074.166.166.166a.166.166 0 0 0 .167-.166V9.333a.166.166 0 0 0-.167-.166Zm12.167.166a1.166 1.166 0 1 1 2.333 0v5.334a1.166 1.166 0 1 1-2.333 0V9.333Zm1.167-.166a.166.166 0 0 0-.167.166v5.334c0 .091.074.166.167.166a.166.166 0 0 0 .166-.166V9.333a.166.166 0 0 0-.166-.166Z" clip-rule="evenodd"/>
</svg>
