<svg xmlns="http://www.w3.org/2000/svg" width="16" height="16" fill="currentColor" viewBox="0 0 16 16">
  <path fill-rule="evenodd" d="M.557 7.74C2.032 4.927 4.795 3 7.988 3c3.212 0 5.987 1.948 7.456 4.79a.5.5 0 0 1-.001.462C13.973 11.052 11.199 13 7.988 13 4.793 13 2.03 11.072.555 8.201a.5.5 0 0 1 .002-.46Zm1.01.235C2.922 10.431 5.305 12 7.989 12c2.7 0 5.094-1.588 6.444-3.982C13.082 5.588 10.687 4 7.988 4c-2.684 0-5.067 1.57-6.42 3.975ZM8 7.75a.25.25 0 1 0 0 .5.25.25 0 0 0 0-.5ZM6.75 8a1.25 1.25 0 1 1 2.5 0 1.25 1.25 0 0 1-2.5 0Z" clip-rule="evenodd"/>
</svg>
