<svg xmlns="http://www.w3.org/2000/svg" width="24" height="24" fill="none" viewBox="0 0 24 24">
  <path fill="#000" fill-rule="evenodd" d="M4.557 11.74C6.032 8.927 8.795 7 11.988 7c3.212 0 5.987 1.948 7.456 4.79a.5.5 0 0 1-.001.462c-1.47 2.8-4.244 4.748-7.455 4.748-3.195 0-5.958-1.928-7.433-4.799a.5.5 0 0 1 .002-.46Zm1.01.235C6.922 14.431 9.305 16 11.989 16c2.7 0 5.095-1.588 6.444-3.982C17.082 9.588 14.688 8 11.988 8c-2.684 0-5.067 1.57-6.42 3.975ZM12 11.75a.25.25 0 1 0 0 .5.25.25 0 0 0 0-.5Zm-1.25.25a1.25 1.25 0 1 1 2.5 0 1.25 1.25 0 0 1-2.5 0Z" clip-rule="evenodd"/>
</svg>
