<svg xmlns="http://www.w3.org/2000/svg" width="24" height="24" fill="none" viewBox="0 0 24 24">
  <path fill="#000" fill-rule="evenodd" d="M12 5.466a.833.833 0 0 0-.712.401l-5.644 9.42a.832.832 0 0 0 .712 1.247h11.288a.832.832 0 0 0 .712-1.246l-5.644-9.42v-.002a.833.833 0 0 0-.712-.4Zm-.9-.764a1.833 1.833 0 0 1 2.468.647l.001.002 5.65 9.432a1.831 1.831 0 0 1-1.567 2.75l-.005.001H6.348a1.833 1.833 0 0 1-1.567-2.75l.003-.007 5.647-9.426.002-.002c.163-.27.393-.493.668-.647Z" clip-rule="evenodd"/>
</svg>
