<svg xmlns="http://www.w3.org/2000/svg" width="32" height="32" fill="none" viewBox="0 0 32 32">
  <path fill="#000" fill-rule="evenodd" d="m16.002 11.002.693.719C18.898 14.013 20 15.294 20 16.852a4.199 4.199 0 0 1-1.172 2.936 3.906 3.906 0 0 1-5.656 0A4.199 4.199 0 0 1 12 16.852c0-1.558 1.102-2.84 3.305-5.131.22-.23.452-.469.694-.719v-.001l.003.001Zm-2.197 3.91c.502-.68 1.219-1.455 2.195-2.471.977 1.016 1.693 1.79 2.195 2.47.6.814.805 1.38.805 1.941v.003c0 .048 0 .097-.003.145h-5.994a3.37 3.37 0 0 1-.003-.145v-.003c0-.56.205-1.127.805-1.94Z" clip-rule="evenodd"/>
</svg>
