<svg xmlns="http://www.w3.org/2000/svg" width="32" height="32" fill="none" viewBox="0 0 32 32">
  <path fill="#000" d="M16.5 8.5h-1v3h1v-3Zm-5.45 1.843-.707.707 2.122 2.121.707-.707-2.122-2.121Zm10.607.707-.707-.707-2.121 2.121.707.707 2.121-2.121ZM8.5 15.5v1h3v-1h-3Zm12 0v1h3v-1h-3Zm-7.328 4.035-.707-.707-2.122 2.122.707.707 2.122-2.122Zm6.363-.707-.707.707 2.122 2.122.707-.707-2.122-2.122ZM16.5 20.5h-1v3h1v-3Z"/>
  <path fill="#000" fill-rule="evenodd" d="M18.498 15.998a2.5 2.5 0 1 1-5 0 2.5 2.5 0 0 1 5 0Zm-1 0a1.5 1.5 0 1 1-3 0 1.5 1.5 0 0 1 3 0Z" clip-rule="evenodd"/>
</svg>
