<svg xmlns="http://www.w3.org/2000/svg" width="32" height="32" fill="none" viewBox="0 0 32 32">
  <path fill="#000" fill-rule="evenodd" d="M15.118 11a2.5 2.5 0 0 0-1.335.386L11.228 13H18.5v1h-8.497a.512.512 0 0 0-.003.051V20.5c0 .278.223.5.498.5h7.627a.498.498 0 0 0 .328-.123l3.206-2.805a1 1 0 0 0 .341-.753V11.5a.5.5 0 0 0-.5-.5h-6.382Zm-1.869-.46a3.5 3.5 0 0 1 1.87-.54H21.5a1.5 1.5 0 0 1 1.5 1.5v5.82a2 2 0 0 1-.683 1.504l-3.205 2.805c-.274.24-.624.371-.987.371h-7.627C9.668 22 9 21.327 9 20.5v-6.449a1.5 1.5 0 0 1 .699-1.268l3.55-2.242Z" clip-rule="evenodd"/>
  <path fill="#000" d="M13 16a1 1 0 1 1-2 0 1 1 0 0 1 2 0Zm4 0a1 1 0 1 1-2 0 1 1 0 0 1 2 0Zm0 3a1 1 0 1 1-2 0 1 1 0 0 1 2 0Zm-4 0a1 1 0 1 1-2 0 1 1 0 0 1 2 0Z"/>
  <path fill="#000" fill-rule="evenodd" d="M22.407 10.71a.5.5 0 0 1-.116.697l-3.5 2.5a.5.5 0 0 1-.582-.814l3.5-2.5a.5.5 0 0 1 .698.117Z" clip-rule="evenodd"/>
  <path fill="#000" fill-rule="evenodd" d="M18 21v-8h1v8h-1Z" clip-rule="evenodd"/>
</svg>
