<svg xmlns="http://www.w3.org/2000/svg" width="32" height="32" fill="none" viewBox="0 0 32 32">
  <path fill="#000" d="M12 18a1 1 0 1 1 0 2 1 1 0 0 1 0-2Zm4 0a1 1 0 1 1 0 2 1 1 0 0 1 0-2Zm-4-3a1 1 0 1 1 0 2 1 1 0 0 1 0-2Zm4 0a1 1 0 1 1 0 2 1 1 0 0 1 0-2Z"/>
  <path fill="#000" fill-rule="evenodd" d="M21.5 10a1.5 1.5 0 0 1 1.5 1.5v5.82a2 2 0 0 1-.683 1.504l-3.206 2.805a1.496 1.496 0 0 1-.986.371h-7.628C9.667 22 9 21.327 9 20.5v-6.45a1.5 1.5 0 0 1 .7-1.267l3.549-2.242a3.5 3.5 0 0 1 1.87-.541H21.5Zm-11.497 4a.504.504 0 0 0-.003.05v6.45c0 .278.223.5.497.5H18v-7h-7.997ZM19 13.758v6.64l2.66-2.327a1 1 0 0 0 .34-.752v-5.705l-3 2.144ZM15.118 11a2.5 2.5 0 0 0-1.335.387L11.227 13h7.112l2.8-2h-6.02Z" clip-rule="evenodd"/>
</svg>
