<svg xmlns="http://www.w3.org/2000/svg" width="32" height="32" fill="none" viewBox="0 0 32 32">
  <path fill="#000" fill-rule="evenodd" d="M15.854 8.646 18.207 11l-2.353 2.354-.708-.708 1.147-1.146H14c-.503 0-1.27.155-1.895.606-.6.432-1.105 1.157-1.105 2.394v7.25h-1V14.5c0-1.563.662-2.588 1.52-3.206.833-.6 1.817-.794 2.48-.794h2.293l-1.147-1.146.708-.708ZM22 10v7.25c0 1.563-.662 2.588-1.52 3.206-.833.6-1.817.794-2.48.794h-2.293l1.147 1.146-.708.708-2.353-2.354 2.353-2.354.708.708-1.147 1.146H18c.503 0 1.27-.155 1.895-.606.6-.432 1.105-1.157 1.105-2.394V10h1Z" clip-rule="evenodd"/>
</svg>
