<svg xmlns="http://www.w3.org/2000/svg" width="32" height="32" fill="none" viewBox="0 0 32 32">
  <path fill="#000" fill-rule="evenodd" d="m16.954 9.928-.139-.331C16.635 9.165 16.301 9 16 9c-.301 0-.635.165-.815.597l-.139.331c-.56 1.343-1.992 2.13-3.425 1.72l-.5-.144c-.309-.088-.606.025-.815.327a1.05 1.05 0 0 0-.048 1.123c.742 1.323.4 3.068-.861 3.95-.318.222-.456.614-.375 1.024.081.409.342.668.673.723l.195.033c1.525.253 2.51 1.687 2.423 3.18-.03.503.22.861.52 1.028.288.162.623.155.921-.108l.373-.33a2.8 2.8 0 0 1 3.746 0l.373.33c.298.264.633.27.922.108.3-.167.549-.525.52-1.028-.088-1.493.897-2.927 2.422-3.18l.195-.033c.33-.055.591-.314.673-.723.081-.41-.057-.802-.375-1.024-1.262-.882-1.603-2.627-.86-3.95a1.05 1.05 0 0 0-.05-1.123c-.208-.302-.505-.415-.815-.327l-.499.143c-1.433.41-2.865-.376-3.425-1.719Zm.784-.717c-.674-1.615-2.802-1.615-3.476 0l-.139.332c-.382.918-1.325 1.401-2.227 1.143l-.499-.143c-1.575-.45-2.855 1.398-2.012 2.9.505.9.257 2.07-.56 2.64-1.392.973-.933 3.282.706 3.555l.194.032c.962.16 1.65 1.09 1.59 2.135-.105 1.788 1.818 2.864 3.102 1.727l.373-.33a1.8 1.8 0 0 1 2.42 0l.373.33c1.284 1.137 3.207.061 3.103-1.727-.061-1.046.628-1.975 1.588-2.135l.195-.032c1.639-.273 2.098-2.582.707-3.554-.818-.572-1.066-1.742-.561-2.64.843-1.503-.438-3.352-2.012-2.901l-.5.143c-.9.258-1.844-.226-2.227-1.143l-.138-.332Z" clip-rule="evenodd"/>
  <path fill="#000" fill-rule="evenodd" d="M16 18.5a2 2 0 1 0 0-4 2 2 0 0 0 0 4Zm0 1a3 3 0 1 0 0-6 3 3 0 0 0 0 6Z" clip-rule="evenodd"/>
</svg>
