<svg xmlns="http://www.w3.org/2000/svg" width="32" height="32" fill="none" viewBox="0 0 32 32">
  <path fill="#000" d="m14.104 18.875-3.069 3.021h3.069v1h-4.5v-.993l3.053-3.007H9.604v-1h4.5v.979ZM20.25 8.543a.5.5 0 0 1 .707 0l2.646 2.646a.5.5 0 1 1-.707.707l-1.793-1.793v12.293a.5.5 0 1 1-1 0V10.103l-1.793 1.793a.5.5 0 1 1-.706-.707l2.646-2.646Z"/>
  <path fill="#000" fill-rule="evenodd" d="M14.08 13.896h-1.057l-.338-1h-2.132l-.38 1h-1.07l1.897-5h1.389l1.69 5Zm-3.148-2h1.416l-.667-1.973-.75 1.973Z" clip-rule="evenodd"/>
</svg>
