<svg xmlns="http://www.w3.org/2000/svg" width="32" height="32" fill="none" viewBox="0 0 32 32">
  <path fill="#000" fill-rule="evenodd" d="M15.5 14v-2.975a5.001 5.001 0 0 0-4.475 4.475H14v1h-2.975a5.001 5.001 0 0 0 4.475 4.475V18h1v2.975a5.001 5.001 0 0 0 4.475-4.475H18v-1h2.975a5.001 5.001 0 0 0-4.475-4.475V14h-1Zm6.48 1.5a6.003 6.003 0 0 0-5.48-5.48V8h-1v2.02a6.003 6.003 0 0 0-5.48 5.48H8v1h2.02a6.003 6.003 0 0 0 5.48 5.48V24h1v-2.02a6.003 6.003 0 0 0 5.48-5.48H24v-1h-2.02Z" clip-rule="evenodd"/>
</svg>
