<svg xmlns="http://www.w3.org/2000/svg" width="32" height="32" fill="none" viewBox="0 0 32 32">
  <path fill="#000" fill-rule="evenodd" d="M13 10h-3v12h3V10Zm-3-1a1 1 0 0 0-1 1v12a1 1 0 0 0 1 1h3a1 1 0 0 0 1-1V10a1 1 0 0 0-1-1h-3Z" clip-rule="evenodd"/>
  <path fill="#000" d="M10.75 20.5a.75.75 0 1 1 1.5 0 .75.75 0 0 1-1.5 0ZM22 18a1 1 0 0 1 1 1v3a1 1 0 0 1-1 1h-7v-1h7v-3h-7v-1h7Zm-3.615-1 2.757-2.758a1 1 0 0 0 0-1.414l-2.121-2.121a1 1 0 0 0-1.414 0L15 13.313v1.415l3.314-3.314 2.121 2.121L16.971 17h1.414Z"/>
</svg>
