<svg xmlns="http://www.w3.org/2000/svg" viewBox="0 0 24 24">
  <defs>
    <style><![CDATA[
      .sprite { display: none; }
      .sprite:target { display: inline; }
    ]]></style>
  </defs>
  <g id="forward" class="sprite">
    <path fill="#000" fill-rule="evenodd" d="M9.147 16.854a.501.501 0 0 1 0-.708L13.294 12 9.147 7.854a.5.5 0 0 1 .708-.708l4.5 4.5a.499.499 0 0 1 0 .708l-4.5 4.5a.5.5 0 0 1-.708 0Z" clip-rule="evenodd"/>
  </g>
  <g id="upward" class="sprite">
    <path fill="#000" fill-rule="evenodd" d="M16.855 15.355a.499.499 0 0 1-.708 0L12 11.208l-4.146 4.147a.5.5 0 0 1-.708-.708l4.5-4.5a.5.5 0 0 1 .708 0l4.5 4.5a.498.498 0 0 1 0 .708Z" clip-rule="evenodd"/>
  </g>
  <g id="resize-grip" class="sprite">
    <path stroke="#000" stroke-linecap="round" d="m22.354 17.354-5 5m5-11-11 11"/>
  </g>
  <g id="list-detailed" class="sprite">
    <path fill="#000" d="M6 6h2v1H6V6Zm0 10h2v1H6v-1Zm0-5h2v1H6v-1Zm4-5h8v1h-8V6Zm0 10h8v1h-8v-1Zm0-5h8v1h-8v-1Z"/>
  </g>
  <g id="spacing" class="sprite">
    <path fill="#000" fill-rule="evenodd" d="M15 14.75c0 .138.112.25.25.25h.25a.5.5 0 0 1 0 1h-.25c-.69 0-1.25-.56-1.25-1.25v-6.5c0-.69.56-1.25 1.25-1.25h.25a.5.5 0 0 1 0 1h-.25a.25.25 0 0 0-.25.25v6.5Zm-8 .75a.5.5 0 0 1 .5-.5h.25a.25.25 0 0 0 .25-.25v-6.5A.25.25 0 0 0 7.75 8H7.5a.5.5 0 1 1 0-1h.25C8.44 7 9 7.56 9 8.25v6.5C9 15.44 8.44 16 7.75 16H7.5a.5.5 0 0 1-.5-.5Zm4-2a.5.5 0 0 0 1 0v-4a.5.5 0 0 0-1 0v4Z" clip-rule="evenodd"/>
  </g>
  <g id="target" class="sprite">
    <path fill="#000" fill-rule="evenodd" d="M12 18a6 6 0 1 0 0-12 6 6 0 0 0 0 12Zm0 1a7.001 7.001 0 0 0 4.95-11.95A7 7 0 1 0 12 19Zm0-4a3 3 0 1 0 0-6 3 3 0 0 0 0 6Zm0 1a4 4 0 1 0 0-8 4 4 0 0 0 0 8Zm1-4a1 1 0 1 1-2 0 1 1 0 0 1 2 0Z" clip-rule="evenodd"/>
  </g>
  <g id="back" class="sprite">
    <path fill="#000" fill-rule="evenodd" d="M13.854 7.146a.5.5 0 0 1 0 .708L9.707 12l4.147 4.146a.5.5 0 0 1-.708.708l-4.5-4.5a.5.5 0 0 1 0-.708l4.5-4.5a.5.5 0 0 1 .708 0Z" clip-rule="evenodd"/>
  </g>
  <g id="caret-down" class="sprite">
    <path fill="#000" fill-rule="evenodd" d="M13.854 13.854a.5.5 0 0 1-.708 0L11.5 12.207l-1.646 1.647a.5.5 0 0 1-.708-.708l2-2a.5.5 0 0 1 .708 0l2 2a.501.501 0 0 1 0 .708Z" clip-rule="evenodd"/>
  </g>
  <g id="warning-large" class="sprite">
    <path fill="#000" fill-rule="evenodd" d="m19.768 17.308-6.587-12.51C12.877 4.223 12.41 4 12 4c-.41 0-.877.222-1.181.799L4.232 17.308a2.05 2.05 0 0 0-.02 1.854c.27.545.72.838 1.201.838h13.174c.48 0 .93-.293 1.201-.838a2.05 2.05 0 0 0-.02-1.854ZM14.066 4.333c-.936-1.777-3.196-1.777-4.132 0l-6.587 12.51C2.384 18.671 3.54 21 5.413 21h13.174c1.873 0 3.03-2.328 2.066-4.158l-6.587-12.51Z" clip-rule="evenodd"/>
    <path fill="#000" fill-rule="evenodd" d="M12 15a1 1 0 0 1-1-1v-4a1 1 0 1 1 2 0v4a1 1 0 0 1-1 1Zm0 1a1 1 0 1 0 0 2 1 1 0 1 0 0-2Z" clip-rule="evenodd"/>
  </g>
  <g id="trash" class="sprite">
    <path fill="#000" fill-rule="evenodd" d="M6 5a.5.5 0 0 0-.5.5v1a.5.5 0 0 0 .496.5h12.008a.5.5 0 0 0 .496-.5v-1A.5.5 0 0 0 18 5H6ZM4.5 6.5a1.5 1.5 0 0 0 1.037 1.427L5.725 10H5a.5.5 0 0 0 0 1h.816l.653 7.181A2 2 0 0 0 8.46 20h7.078a2 2 0 0 0 1.992-1.819L18.184 11H19a.5.5 0 0 0 0-1h-.725l.188-2.073A1.5 1.5 0 0 0 19.5 6.5v-1A1.5 1.5 0 0 0 18 4H6a1.5 1.5 0 0 0-1.5 1.5v1Zm2.965 11.59L6.548 8h10.905l-.918 10.09a1 1 0 0 1-.996.91H8.461a1 1 0 0 1-.996-.91ZM11 10.5a.5.5 0 0 0-1 0v6a.5.5 0 0 0 1 0v-6Zm3 0a.5.5 0 0 0-1 0v6a.5.5 0 0 0 1 0v-6Z" clip-rule="evenodd"/>
  </g>
  <g id="blend-empty" class="sprite">
    <path fill="#000" fill-rule="evenodd" d="M12 17a3 3 0 0 0 3-3c0-.826-.42-1.988-1.078-3.245C13.308 9.58 12.56 8.457 12 7.672c-.56.785-1.309 1.91-1.922 3.083C9.42 12.012 9 13.175 9 14a3 3 0 0 0 3 3Zm0 1a4 4 0 0 0 4-4c0-2.17-2.093-5.387-3.251-7a.913.913 0 0 0-1.498 0C10.093 8.613 8 11.83 8 14a4 4 0 0 0 4 4Z" clip-rule="evenodd"/>
  </g>
  <g id="tidy-up-list-vertical" class="sprite">
    <path fill="#000" fill-rule="evenodd" d="M7.5 6a.5.5 0 0 1 .5.5V7h7v-.5a.5.5 0 0 1 1 0V7h.5a.5.5 0 0 1 0 1H16v3h.5a.5.5 0 0 1 0 1H16v3h.5a.5.5 0 0 1 0 1H16v.5a.5.5 0 0 1-1 0V16H8v.5a.5.5 0 0 1-1 0V16h-.5a.5.5 0 0 1 0-1H7v-3h-.5a.5.5 0 0 1 0-1H7V8h-.5a.5.5 0 1 1 0-1H7v-.5a.5.5 0 0 1 .5-.5Zm.5 9h7v-3H8v3Zm0-4V8h7v3H8Z" clip-rule="evenodd"/>
  </g>
  <g id="tidy-up-list-horizontal" class="sprite">
    <path fill="#000" fill-rule="evenodd" d="M7.5 6a.5.5 0 0 1 .5.5V7h3v-.5a.5.5 0 0 1 1 0V7h3v-.5a.5.5 0 0 1 1 0V7h.5a.5.5 0 0 1 0 1H16v7h.5a.5.5 0 0 1 0 1H16v.5a.5.5 0 0 1-1 0V16h-3v.5a.5.5 0 0 1-1 0V16H8v.5a.5.5 0 0 1-1 0V16h-.5a.5.5 0 0 1 0-1H7V8h-.5a.5.5 0 1 1 0-1H7v-.5a.5.5 0 0 1 .5-.5Zm.5 9h3V8H8v7Zm4 0h3V8h-3v7Z" clip-rule="evenodd"/>
  </g>
  <g id="vertical-padding" class="sprite">
    <path fill="#000" fill-rule="evenodd" d="M8 7.5a.5.5 0 1 0-1 0v9a.5.5 0 0 0 1 0v-9Zm8.5-.5a.5.5 0 0 1 .5.5v9a.5.5 0 0 1-1 0v-9a.5.5 0 0 1 .5-.5ZM13 13v-2h-2v2h2Zm1-2a1 1 0 0 0-1-1h-2a1 1 0 0 0-1 1v2a1 1 0 0 0 1 1h2a1 1 0 0 0 1-1v-2Z" clip-rule="evenodd"/>
  </g>
  <g id="downward" class="sprite">
    <path fill="#000" fill-rule="evenodd" d="M7.147 10.147a.5.5 0 0 1 .708 0L12 14.294l4.146-4.147a.5.5 0 0 1 .708.708l-4.5 4.5a.5.5 0 0 1-.708 0l-4.5-4.5a.5.5 0 0 1 0-.708Z" clip-rule="evenodd"/>
  </g>
  <g id="tidy-up-grid" class="sprite">
    <path fill="#000" fill-rule="evenodd" d="M8 6.5a.5.5 0 1 0-1 0V7h-.5a.5.5 0 1 0 0 1H7v3h-.5a.5.5 0 0 0 0 1H7v3h-.5a.5.5 0 0 0 0 1H7v.5a.5.5 0 0 0 1 0V16h3v.5a.5.5 0 0 0 1 0V16h3v.5a.5.5 0 0 0 1 0V16h.5a.5.5 0 0 0 0-1H16v-3h.5a.5.5 0 0 0 0-1H16V8h.5a.5.5 0 0 0 0-1H16v-.5a.5.5 0 0 0-1 0V7h-3v-.5a.5.5 0 0 0-1 0V7H8v-.5Zm7 8.5v-3h-3v3h3Zm-4 0v-3H8v3h3Zm-3-4V8h3v3H8Zm4 0V8h3v3h-3Z" clip-rule="evenodd"/>
  </g>
  <g id="user" class="sprite">
    <path fill="#000" fill-rule="evenodd" d="M13.5 8.5a1.5 1.5 0 1 1-3 0 1.5 1.5 0 0 1 3 0Zm1 0a2.5 2.5 0 1 1-5 0 2.5 2.5 0 0 1 5 0ZM12 13a2.5 2.5 0 0 0-2.5 2.5v2a.5.5 0 0 1-1 0v-2a3.5 3.5 0 1 1 7 0v2a.5.5 0 0 1-1 0v-2A2.5 2.5 0 0 0 12 13Z" clip-rule="evenodd"/>
  </g>
  <g id="refresh" class="sprite">
    <path fill="#000" d="M13.447 7.214A5 5 0 0 1 16 9h-1.5a.5.5 0 0 0 0 1h3a.5.5 0 0 0 .5-.5v-3a.5.5 0 0 0-1 0v2.183a6 6 0 1 0 .98 3.816.469.469 0 0 0-.48-.499c-.28 0-.506.231-.532.51-.027.282-.069.49-.069.49a5.001 5.001 0 0 1-8.435 2.536 5 5 0 0 1 4.983-8.322Z"/>
  </g>
  <g id="styles" class="sprite">
    <path fill="#000" fill-rule="evenodd" d="M8.5 10a1.5 1.5 0 1 1 0-3 1.5 1.5 0 0 1 0 3Zm0 1a2.5 2.5 0 1 1 0-5 2.5 2.5 0 0 1 0 5Zm7-1a1.5 1.5 0 1 1 0-3 1.5 1.5 0 0 1 0 3Zm0 1a2.5 2.5 0 1 1 0-5 2.5 2.5 0 0 1 0 5ZM14 15.5a1.5 1.5 0 1 0 3 0 1.5 1.5 0 0 0-3 0Zm-1 0a2.5 2.5 0 1 0 5 0 2.5 2.5 0 0 0-5 0ZM8.5 17a1.5 1.5 0 1 1 0-3 1.5 1.5 0 0 1 0 3Zm0 1a2.5 2.5 0 1 1 0-5 2.5 2.5 0 0 1 0 5Z" clip-rule="evenodd"/>
  </g>
  <g id="adjust" class="sprite">
    <path fill="#000" fill-rule="evenodd" d="M15 18.5a.5.5 0 1 0 1 0v-6.55a2.5 2.5 0 0 0 0-4.9V5.5a.5.5 0 0 0-1 0v1.55a2.5 2.5 0 0 0 0 4.9v6.55Zm-1-9a1.5 1.5 0 1 0 3 0 1.5 1.5 0 0 0-3 0Zm-6-4a.5.5 0 1 1 1 0v6.55a2.5 2.5 0 0 1 0 4.9v1.55a.5.5 0 0 1-1 0v-1.55a2.5 2.5 0 0 1 0-4.9V5.5Zm-1 9a1.5 1.5 0 1 1 3 0 1.5 1.5 0 0 1-3 0Z" clip-rule="evenodd"/>
  </g>
  <g id="star-on" class="sprite">
    <path fill="#000" d="m12 4 2 6.004L20 10l-4.96 4 1.904 6L12 16l-4.944 4 1.904-6L4 10.004h6L12 4Z"/>
  </g>
  <g id="star-off" class="sprite">
    <path fill="#000" fill-rule="evenodd" d="M14 10.004 12 4l-2 6.004H4L8.96 14l-1.904 6L12 16l4.944 4-1.904-6L20 10l-6 .004Zm3.165.998-3.886.002L12 7.164l-1.28 3.84H6.836l3.285 2.646-1.103 3.477L12 14.714l2.983 2.413-1.103-3.476L17.165 11Z" clip-rule="evenodd"/>
  </g>
  <g id="smiley" class="sprite">
    <path fill="#000" d="M14 17.326A7 7 0 1 1 17.71 13h1.038A8 8 0 1 0 14 18.419v-1.093ZM13.625 10a.875.875 0 1 0 0-1.75.875.875 0 0 0 0 1.75ZM9 9.125a.875.875 0 1 1-1.75 0 .875.875 0 0 1 1.75 0ZM7.126 12a4.002 4.002 0 0 0 7.748 0h-1.045a3.001 3.001 0 0 1-5.659 0H7.126ZM18 14h1v3h3v1h-3v3h-1v-3h-3v-1h3v-3Z"/>
  </g>
  <g id="caret-up" class="sprite">
    <path fill="#000" fill-rule="evenodd" d="M13.854 13.854a.5.5 0 0 1-.708 0L11.5 12.207l-1.646 1.647a.5.5 0 0 1-.708-.708l2-2a.5.5 0 0 1 .708 0l2 2a.501.501 0 0 1 0 .708Z" clip-rule="evenodd"/>
  </g>
  <g id="search" class="sprite">
    <path fill="#000" fill-rule="evenodd" d="M14.397 14.605a4.552 4.552 0 1 1 .707-.707L18 16.793a.5.5 0 0 1-.707.707l-2.896-2.895Zm.706-3.553a3.552 3.552 0 1 1-7.103 0 3.552 3.552 0 0 1 7.103 0Z" clip-rule="evenodd"/>
  </g>
  <g id="chevron-left" class="sprite">
    <path fill="#000" fill-rule="evenodd" d="M12.854 10.146a.501.501 0 0 1 0 .708L11.207 12.5l1.647 1.646a.5.5 0 0 1-.708.708l-2-2a.499.499 0 0 1 0-.708l2-2a.5.5 0 0 1 .708 0Z" clip-rule="evenodd"/>
  </g>
  <g id="caret-right" class="sprite">
    <path fill="#000" fill-rule="evenodd" d="M10.146 14.854a.5.5 0 0 1 0-.708l1.647-1.646-1.647-1.646a.5.5 0 0 1 .708-.708l2 2a.5.5 0 0 1 0 .708l-2 2a.501.501 0 0 1-.708 0Z" clip-rule="evenodd"/>
  </g>
  <g id="reverse" class="sprite">
    <path fill="#000" fill-rule="evenodd" d="M11.5 5a.5.5 0 0 1 .707 0l1.647 1.646a.5.5 0 0 1 0 .708L12.207 9a.5.5 0 0 1-.707-.707l.793-.793H10c-.503 0-1.27.155-1.895.606C7.505 8.538 7 9.263 7 10.5v6.75a.5.5 0 0 1-1 0V10.5c0-1.563.662-2.588 1.52-3.206.833-.6 1.817-.794 2.48-.794h2.293l-.793-.793a.5.5 0 0 1 0-.707Zm6 1a.5.5 0 0 1 .5.5v6.75c0 1.563-.662 2.588-1.52 3.206-.833.6-1.817.794-2.48.794h-2.293l.793.793a.5.5 0 1 1-.707.707l-1.647-1.646a.5.5 0 0 1 0-.708l1.647-1.646a.5.5 0 0 1 .707.707l-.793.793H14c.503 0 1.27-.155 1.895-.606.6-.432 1.105-1.157 1.105-2.394V6.5a.5.5 0 0 1 .5-.5Z" clip-rule="evenodd"/>
  </g>
  <g id="repository" class="sprite">
    <path fill="#000" fill-rule="evenodd" d="M8.5 4a.5.5 0 0 0-.5.5V13h8.502a.498.498 0 0 0 .498-.5v-8a.5.5 0 0 0-.5-.5h-8ZM8 14h9a1 1 0 0 0 1-1V4.5A1.5 1.5 0 0 0 16.5 3h-8A1.5 1.5 0 0 0 7 4.5v12A1.5 1.5 0 0 0 8.5 18H9v2.5a.5.5 0 0 0 .5.5h.5l.945-.63a1 1 0 0 1 1.11 0L13 21h.5a.5.5 0 0 0 .5-.5V18h3.5a.5.5 0 0 0 0-1H14v-1h2.5a.5.5 0 0 0 0-1H9v2h-.5a.5.5 0 0 1-.5-.5V14Zm5 2h-3v3.566l.92-.654a1 1 0 0 1 1.16 0l.92.654V16Z" clip-rule="evenodd"/>
  </g>
  <g id="play" class="sprite">
    <path fill="#000" fill-rule="evenodd" d="M7.944 5A1.9 1.9 0 0 0 6 6.9v10.243a1.9 1.9 0 0 0 2.896 1.617l8.162-5.022a1.999 1.999 0 0 0 .005-3.403L8.9 5.285A1.9 1.9 0 0 0 7.944 5Zm-.482 1.114a.9.9 0 0 1 .912.02l8.163 5.05a1.002 1.002 0 0 1-.003 1.703l-8.162 5.022A.9.9 0 0 1 7 17.143V6.9a.9.9 0 0 1 .462-.786Z" clip-rule="evenodd"/>
  </g>
  <g id="warning" class="sprite">
    <path fill="#000" fill-rule="evenodd" d="m17.86 16.49-5.123-9.034c-.345-.608-1.13-.608-1.474 0L6.14 16.49c-.42.74.141 1.51.737 1.51h10.246c.596 0 1.156-.77.737-1.51Zm-4.253-9.527c-.728-1.284-2.486-1.284-3.214 0L5.27 15.997C4.52 17.319 5.42 19 6.877 19h10.246c1.457 0 2.357-1.681 1.607-3.003l-5.123-9.034Z" clip-rule="evenodd"/>
    <path fill="#000" fill-rule="evenodd" d="M12 14a1 1 0 0 1-1-1v-2a1 1 0 1 1 2 0v2a1 1 0 0 1-1 1Zm0 1a1 1 0 1 0 0 2 1 1 0 1 0 0-2Z" clip-rule="evenodd"/>
  </g>
  <g id="plus" class="sprite">
    <path stroke="#000" stroke-linecap="round" stroke-linejoin="round" d="M12.5 7.5v10m-5-5h10"/>
  </g>
  <g id="list" class="sprite">
    <path fill="#000" fill-rule="evenodd" d="M5 6h14v1H5V6Zm0 5h14v1H5v-1Zm14 5H5v1h14v-1Z" clip-rule="evenodd"/>
  </g>
  <g id="swap" class="sprite">
    <path fill="#000" fill-rule="evenodd" d="M15.862 8.824a5 5 0 0 0-8.838 2.69.5.5 0 0 1-.996-.096A6 6 0 0 1 17 8.683V6.5a.5.5 0 0 1 1 0v3a.5.5 0 0 1-.5.5h-3a.5.5 0 0 1 0-1H16a5.027 5.027 0 0 0-.138-.176Zm1.66 3.212a.501.501 0 0 1 .45.546A6 6 0 0 1 7 15.317V17.5a.5.5 0 0 1-1 0v-3a.5.5 0 0 1 .5-.5h3a.5.5 0 0 1 0 1H8a5 5 0 0 0 8.976-2.514.5.5 0 0 1 .547-.45" clip-rule="evenodd"/>
  </g>
  <g id="lock-on" class="sprite">
    <path fill="#000" d="M9 12.025c-.57.116-1 .62-1 1.225v3.5c0 .69.56 1.25 1.25 1.25h5.5c.69 0 1.25-.56 1.25-1.25v-3.5a1.25 1.25 0 0 0-1-1.225V12H9v.025Z" opacity=".3"/>
    <path fill="#000" fill-rule="evenodd" d="M9.879 7.879A3 3 0 0 0 9 10v2.025c-.57.116-1 .62-1 1.225v3.5c0 .69.56 1.25 1.25 1.25h5.5c.69 0 1.25-.56 1.25-1.25v-3.5a1.25 1.25 0 0 0-1-1.225V10a3 3 0 0 0-5.121-2.121ZM9.25 13a.25.25 0 0 0-.25.25v3.5c0 .138.112.25.25.25h5.5a.25.25 0 0 0 .25-.25v-3.5a.25.25 0 0 0-.25-.25h-5.5Zm.75-1v-2a2 2 0 1 1 4 0v2h-4Z" clip-rule="evenodd"/>
  </g>
  <g id="stroke-weight" class="sprite">
    <path fill="#000" fill-rule="evenodd" d="M6 6.5a.5.5 0 0 1 .5-.5h11a.5.5 0 0 1 0 1h-11a.5.5 0 0 1-.5-.5ZM7 10v1h10v-1H7Zm-.25-1a.75.75 0 0 0-.75.75v1.5c0 .414.336.75.75.75h10.5a.75.75 0 0 0 .75-.75v-1.5a.75.75 0 0 0-.75-.75H6.75ZM7 17v-2h10v2H7Zm-1-2.25a.75.75 0 0 1 .75-.75h10.5a.75.75 0 0 1 .75.75v2.5a.75.75 0 0 1-.75.75H6.75a.75.75 0 0 1-.75-.75v-2.5Z" clip-rule="evenodd"/>
  </g>
  <g id="list-tile" class="sprite">
    <path fill="#000" fill-rule="evenodd" d="M7 7h3v3H7V7ZM6 7a1 1 0 0 1 1-1h3a1 1 0 0 1 1 1v3a1 1 0 0 1-1 1H7a1 1 0 0 1-1-1V7Zm1 7h3v3H7v-3Zm-1 0a1 1 0 0 1 1-1h3a1 1 0 0 1 1 1v3a1 1 0 0 1-1 1H7a1 1 0 0 1-1-1v-3Zm11-7h-3v3h3V7Zm-3-1a1 1 0 0 0-1 1v3a1 1 0 0 0 1 1h3a1 1 0 0 0 1-1V7a1 1 0 0 0-1-1h-3Zm0 8h3v3h-3v-3Zm-1 0a1 1 0 0 1 1-1h3a1 1 0 0 1 1 1v3a1 1 0 0 1-1 1h-3a1 1 0 0 1-1-1v-3Z" clip-rule="evenodd"/>
  </g>
  <g id="sort-alpha-asc" class="sprite">
    <path fill="#000" fill-rule="evenodd" d="M6.897 5 5 10h1.07l.379-1h2.133l.338 1h1.056l-1.69-5h-1.39Zm1.347 3-.667-1.973L6.828 8h1.416Zm.309 7H5.5v-1H10v.979L6.932 18H10v1H5.5v-.993L8.553 15Zm7.593-10.354a.5.5 0 0 1 .707 0L19.5 7.293a.5.5 0 0 1-.707.707L17 6.207V18.5a.5.5 0 1 1-1 0V6.207L14.207 8a.5.5 0 0 1-.707-.707l2.646-2.647Z" clip-rule="evenodd"/>
  </g>
  <g id="link-connected" class="sprite">
    <path fill="#000" d="M12 6a2 2 0 0 1 2 2v1.5a.5.5 0 0 0 1 0V8a3 3 0 1 0-6 0v1.5a.5.5 0 0 0 1 0V8a2 2 0 0 1 2-2Zm2 8.5a.5.5 0 0 1 1 0V16a3 3 0 1 1-6 0v-1.5a.5.5 0 0 1 1 0V16a2 2 0 1 0 4 0v-1.5Z"/>
    <path fill="#000" d="M12 9a.5.5 0 0 0-.5.5v5a.5.5 0 0 0 1 0v-5A.5.5 0 0 0 12 9Z"/>
  </g>
  <g id="caret-left" class="sprite">
    <path fill="#000" fill-rule="evenodd" d="M12.854 10.146a.501.501 0 0 1 0 .708L11.207 12.5l1.647 1.646a.5.5 0 0 1-.708.708l-2-2a.499.499 0 0 1 0-.708l2-2a.5.5 0 0 1 .708 0Z" clip-rule="evenodd"/>
  </g>
  <g id="layout-align-vertical-centers" class="sprite">
    <path fill="#000" fill-rule="evenodd" d="M11 7.75a.75.75 0 0 0-.75-.75h-.5a.75.75 0 0 0-.75.75v9.5c0 .414.336.75.75.75h.5a.75.75 0 0 0 .75-.75v-9.5Zm5 2a.75.75 0 0 0-.75-.75h-.5a.75.75 0 0 0-.75.75v5.5c0 .414.336.75.75.75h.5a.75.75 0 0 0 .75-.75v-5.5ZM18.5 12a.5.5 0 0 1 0 1H16v-1h2.5ZM14 12h-3v1h3v-1Zm-7.5 0H9v1H6.5a.5.5 0 0 1 0-1Z" clip-rule="evenodd"/>
  </g>
  <g id="resolve" class="sprite">
    <path fill="#000" fill-rule="evenodd" d="M18.9 12a6.9 6.9 0 1 1-13.8 0 6.9 6.9 0 0 1 13.8 0Zm1 0a7.9 7.9 0 1 1-15.8 0 7.9 7.9 0 0 1 15.8 0Zm-4.468-2.748a.5.5 0 0 0-.864-.504l-3.14 5.384-2.044-2.452a.501.501 0 0 0-.866.468.5.5 0 0 0 .098.172l2.5 3a.5.5 0 0 0 .816-.068l3.5-6Z" clip-rule="evenodd"/>
  </g>
  <g id="library" class="sprite">
    <path fill="#000" fill-rule="evenodd" d="M6 15.977V8.174l.059-.065c.11-.117.285-.28.53-.443C7.078 7.341 7.858 7 9 7c1.142 0 1.923.341 2.41.666a3 3 0 0 1 .595.513L12 8.25v7.727l-.07-.04c-.634-.352-1.592-.687-2.93-.687s-2.296.335-2.93.688l-.07.039Zm7 0 .07-.04c.634-.352 1.592-.687 2.93-.687s2.296.335 2.93.688l.07.04V8.173l-.059-.065a3 3 0 0 0-.53-.443C17.922 7.341 17.142 7 16 7c-1.142 0-1.923.341-2.41.666a3 3 0 0 0-.595.513L13 8.25v7.727Zm-1.035-9.143a4 4 0 0 1 .535.422c.14-.13.318-.277.535-.422C13.673 6.409 14.643 6 16 6c1.357 0 2.327.409 2.965.834.317.211.548.424.703.588.08.085.156.174.226.268l.014.02.005.008.002.003L19.5 8l.416-.277A.5.5 0 0 1 20 8v9a.5.5 0 0 1-.888.316l-.002-.003-.022-.024a1.972 1.972 0 0 0-.114-.11 3.001 3.001 0 0 0-.53-.367c-.49-.272-1.282-.562-2.444-.562s-1.954.29-2.445.562c-.246.137-.42.272-.529.368a2.008 2.008 0 0 0-.136.133l-.002.003a.499.499 0 0 1-.776 0l-.002-.003-.022-.024a1.972 1.972 0 0 0-.114-.11 3.001 3.001 0 0 0-.53-.367c-.49-.272-1.282-.562-2.444-.562s-1.954.29-2.445.562c-.246.137-.42.272-.529.368a2.003 2.003 0 0 0-.136.133l-.002.003A.5.5 0 0 1 5 17V8a.5.5 0 0 1 .084-.277l.001-.003.002-.002.005-.007.014-.02.049-.064c.04-.052.1-.123.177-.205.155-.164.386-.377.703-.588C6.673 6.409 7.643 6 9 6c1.357 0 2.327.409 2.965.834Z" clip-rule="evenodd"/>
  </g>
  <g id="chevron-right" class="sprite">
    <path fill="#000" fill-rule="evenodd" d="M10.146 14.854a.5.5 0 0 1 0-.708l1.647-1.646-1.647-1.646a.5.5 0 0 1 .708-.708l2 2a.5.5 0 0 1 0 .708l-2 2a.501.501 0 0 1-.708 0Z" clip-rule="evenodd"/>
  </g>
  <g id="letter" class="sprite">
    <path fill="#000" d="M9.547 16H8.53l2.938-8h1l2.937 8H14.39L12 9.266h-.063L9.547 16Zm.375-3.125h4.094v.86H9.922v-.86Z"/>
  </g>
  <g id="layout-grid-rows" class="sprite">
    <path fill="#000" fill-rule="evenodd" d="M6 6.75A.75.75 0 0 1 6.75 6h11.5a.75.75 0 0 1 .75.75v.5a.75.75 0 0 1-.75.75H6.75A.75.75 0 0 1 6 7.25v-.5Zm0 5a.75.75 0 0 1 .75-.75h11.5a.75.75 0 0 1 .75.75v.5a.75.75 0 0 1-.75.75H6.75a.75.75 0 0 1-.75-.75v-.5ZM6.75 16a.75.75 0 0 0-.75.75v.5c0 .414.336.75.75.75h11.5a.75.75 0 0 0 .75-.75v-.5a.75.75 0 0 0-.75-.75H6.75Z" clip-rule="evenodd"/>
  </g>
  <g id="filter" class="sprite">
    <path fill="#000" fill-rule="evenodd" d="M12 18a6 6 0 1 1 0-12 6 6 0 0 1 0 12Zm-7-6a7 7 0 1 1 14 0 7 7 0 0 1-14 0Zm4.5-.5a.5.5 0 0 0 0 1h5a.5.5 0 0 0 0-1h-5Zm.5 3a.5.5 0 0 1 .5-.5h3a.5.5 0 0 1 0 1h-3a.5.5 0 0 1-.5-.5ZM8.5 9a.5.5 0 1 0 0 1h7a.5.5 0 0 0 0-1h-7Z" clip-rule="evenodd"/>
  </g>
  <g id="recent" class="sprite">
    <path fill="#000" fill-rule="evenodd" d="M11.5 18a6.5 6.5 0 1 0 0-13 6.5 6.5 0 0 0 0 13Zm5.5-6.5a5.5 5.5 0 1 1-11 0 5.5 5.5 0 0 1 11 0Zm-5-3a.5.5 0 0 0-1 0v3a.5.5 0 0 0 .146.354l2 2a.5.5 0 0 0 .708-.708L12 11.293V8.5Z" clip-rule="evenodd"/>
  </g>
  <g id="layout-align-top" class="sprite">
    <path fill="#000" fill-rule="evenodd" d="M11 17.25a.75.75 0 0 1-.75.75h-.5a.75.75 0 0 1-.75-.75v-8.5A.75.75 0 0 1 9.75 8h.5a.75.75 0 0 1 .75.75v8.5Zm5-4a.75.75 0 0 1-.75.75h-.5a.75.75 0 0 1-.75-.75v-4.5a.75.75 0 0 1 .75-.75h.5a.75.75 0 0 1 .75.75v4.5Z" clip-rule="evenodd"/>
    <path fill="#000" d="M18.5 6a.5.5 0 0 0 0-1h-12a.5.5 0 1 0 0 1h12Z"/>
  </g>
  <g id="distribute-horizontal-spacing" class="sprite">
    <path fill="#000" d="M6 6.5a.5.5 0 1 1 1 0v12a.5.5 0 0 1-1 0v-12Zm6.25 9.5a.75.75 0 0 0 .75-.75v-5.5a.75.75 0 0 0-.75-.75h-.5a.75.75 0 0 0-.75.75v5.5c0 .414.336.75.75.75h.5ZM17 6.5a.5.5 0 0 1 1 0v12a.5.5 0 0 1-1 0v-12Z"/>
  </g>
  <g id="break" class="sprite">
    <path fill="#000" fill-rule="evenodd" d="M17.354 6.647a2.619 2.619 0 0 1 0 3.707l-1.5 1.5a.5.5 0 0 1-.707-.707l1.5-1.5a1.621 1.621 0 1 0-2.293-2.293l-1.5 1.5a.5.5 0 1 1-.707-.707l1.5-1.5a2.62 2.62 0 0 1 3.707 0ZM6.647 17.354a2.621 2.621 0 0 1 0-3.707l1.5-1.5a.5.5 0 1 1 .707.707l-1.5 1.5a1.621 1.621 0 1 0 2.293 2.293l1.5-1.5a.5.5 0 1 1 .707.707l-1.5 1.5a2.622 2.622 0 0 1-3.707 0ZM9.5 6a.5.5 0 0 1 .5.5V8a.5.5 0 1 1-1 0V6.5a.5.5 0 0 1 .5-.5Zm-3 3a.5.5 0 0 0 0 1H8a.5.5 0 0 0 0-1H6.5Zm8 9a.5.5 0 0 1-.5-.5V16a.5.5 0 0 1 1 0v1.5a.5.5 0 0 1-.5.5Zm3-3a.5.5 0 0 0 0-1H16a.5.5 0 1 0 0 1h1.5Z" clip-rule="evenodd"/>
  </g>
  <g id="sort-alpha-dsc" class="sprite">
    <path fill="#000" fill-rule="evenodd" d="M6.897 5 5 10h1.07l.379-1h2.133l.338 1h1.056l-1.69-5h-1.39Zm1.347 3-.667-1.973L6.828 8h1.416Zm.309 7H5.5v-1H10v.979L6.932 18H10v1H5.5v-.993L8.553 15ZM16 17.793V5.5a.5.5 0 1 1 1 0v12.293L18.793 16a.5.5 0 1 1 .707.707l-2.646 2.647a.5.5 0 0 1-.708 0L13.5 16.707a.5.5 0 0 1 .707-.707L16 17.793Z" clip-rule="evenodd"/>
  </g>
  <g id="eyedropper" class="sprite">
    <path fill="#000" d="m5.5 16.5-.354-.353A.5.5 0 0 0 5 16.5h.5Zm.004 1.996h-.5a.5.5 0 0 0 .5.5v-.5Zm1.996 0v.5a.5.5 0 0 0 .353-.147l-.353-.353ZM13 8l-.354.354.355.354.353-.355L13 8Zm3 3-.354-.352-.352.353.352.353L16 11ZM5 16.5l.004 1.996 1-.001L6 16.499 5 16.5Zm.504 2.496H7.5v-1H5.504v1Zm2.349-.147 6.001-5.995-.707-.707-6 5.995.706.707Zm6.001-6.702-2-2-.708.707 2 2 .707-.707h.001Zm-2.708-2-6 6 .708.707 6-6-.708-.707Zm-.51.197.51.51.707-.707-.51-.51-.707.707Zm3.728 2.313-.51-.51-.708.707.51.51.708-.707Zm1.98.707.02-.02-.708-.707-.02.02.708.707Zm-5.688-5.727-.02.02.707.707.02-.02-.707-.707Zm2.697.01-.01-.011-.707.708.01.01.707-.707Zm.001.706 1.87-1.88-.708-.705-1.87 1.88.708.705Zm3.01 2.304-.01-.01-.708.707.01.01.708-.707Zm1.16-1.897-1.878 1.888.709.705 1.878-1.888-.709-.705Zm-.003-2.29c.632.632.633 1.656.003 2.29l.709.705a2.62 2.62 0 0 0-.005-3.702l-.707.707Zm-6.158 1.874a.9.9 0 0 1 1.273 0l.707-.708a1.9 1.9 0 0 0-2.687.001l.707.707Zm5.001 5a1.9 1.9 0 0 0 0-2.687l-.708.707a.9.9 0 0 1 0 1.273l.708.707Zm-2.708.02a1.9 1.9 0 0 0 2.688 0l-.708-.707a.9.9 0 0 1-1.272 0l-.708.707Zm1.569-6.891a1.622 1.622 0 0 1 2.296-.003l.707-.707a2.62 2.62 0 0 0-3.712.005l.709.705Zm-3.882 3.164a.9.9 0 0 1 0-1.273l-.707-.707a1.9 1.9 0 0 0 0 2.687l.707-.707Z"/>
  </g>
  <g id="layout-align-left" class="sprite">
    <path fill="#000" fill-rule="evenodd" d="M17.25 11a.75.75 0 0 0 .75-.75v-.5a.75.75 0 0 0-.75-.75h-8.5a.75.75 0 0 0-.75.75v.5c0 .414.336.75.75.75h8.5Zm-4 5a.75.75 0 0 0 .75-.75v-.5a.75.75 0 0 0-.75-.75h-4.5a.75.75 0 0 0-.75.75v.5c0 .414.336.75.75.75h4.5Z" clip-rule="evenodd"/>
    <path fill="#000" d="M6 18.5a.5.5 0 0 1-1 0v-12a.5.5 0 1 1 1 0v12Z"/>
  </g>
  <g id="layout-align-horizontal-centers" class="sprite">
    <path fill="#000" fill-rule="evenodd" d="M17.25 11a.75.75 0 0 0 .75-.75v-.5a.75.75 0 0 0-.75-.75h-9.5a.75.75 0 0 0-.75.75v.5c0 .414.336.75.75.75h9.5Zm-2 5a.75.75 0 0 0 .75-.75v-.5a.75.75 0 0 0-.75-.75h-5.5a.75.75 0 0 0-.75.75v.5c0 .414.336.75.75.75h5.5ZM13 18.5a.5.5 0 0 1-1 0V16h1v2.5Zm0-4.5v-3h-1v3h1Zm-1-7.5V9h1V6.5a.5.5 0 0 0-1 0Z" clip-rule="evenodd"/>
  </g>
  <g id="layout-align-bottom" class="sprite">
    <path fill="#000" fill-rule="evenodd" d="M11 6.75a.75.75 0 0 0-.75-.75h-.5a.75.75 0 0 0-.75.75v8.5c0 .414.336.75.75.75h.5a.75.75 0 0 0 .75-.75v-8.5Zm5 4a.75.75 0 0 0-.75-.75h-.5a.75.75 0 0 0-.75.75v4.5c0 .414.336.75.75.75h.5a.75.75 0 0 0 .75-.75v-4.5Z" clip-rule="evenodd"/>
    <path fill="#000" d="M18.5 18a.5.5 0 0 1 0 1h-12a.5.5 0 0 1 0-1h12Z"/>
  </g>
  <g id="key" class="sprite">
    <path fill="#000" fill-rule="evenodd" d="M11.14 16.14a3.014 3.014 0 0 0 .331-3.868l2.047-2.047 1.767 1.768a.5.5 0 1 0 .707-.708l-1.767-1.767 1.293-1.293 1.784 1.785a.5.5 0 1 0 .707-.707l-1.784-1.785.762-.761a.5.5 0 0 0-.707-.707l-5.513 5.512a3.014 3.014 0 1 0 .373 4.578Zm-.712-.712a2.006 2.006 0 1 0-2.837-2.837 2.006 2.006 0 0 0 2.837 2.837Z" clip-rule="evenodd"/>
  </g>
  <g id="component" class="sprite">
    <path fill="#000" fill-rule="evenodd" d="M12 9.838 10.66 8.5 12 7.162 13.34 8.5 12 9.838Zm-.43-3.66L9.68 8.066a.613.613 0 0 0 0 .868l1.89 1.888a.61.61 0 0 0 .86 0l1.89-1.888a.613.613 0 0 0 0-.868l-1.89-1.888a.61.61 0 0 0-.86 0ZM14.16 12l1.34-1.34L16.838 12 15.5 13.34 14.16 12Zm-.983.43 1.888 1.89c.24.24.628.24.868 0l1.888-1.89a.61.61 0 0 0 0-.86l-1.888-1.89a.613.613 0 0 0-.868 0l-1.887 1.89a.61.61 0 0 0 0 .86M10.66 15.5 12 16.838l1.34-1.338L12 14.162 10.66 15.5Zm-.98-.434 1.89-1.888a.61.61 0 0 1 .86 0l1.89 1.888c.24.24.24.628 0 .868l-1.89 1.888a.61.61 0 0 1-.86 0l-1.89-1.888a.613.613 0 0 1 0-.868ZM7.162 12 8.5 10.66 9.838 12 8.5 13.34 7.162 12Zm-.984.43 1.888 1.89c.24.24.628.24.868 0l1.888-1.89a.61.61 0 0 0 0-.86L8.934 9.68a.613.613 0 0 0-.868 0l-1.888 1.89a.61.61 0 0 0 0 .86Z" clip-rule="evenodd"/>
  </g>
  <g id="lock-off" class="sprite">
    <path fill="#000" fill-rule="evenodd" d="M9 9a3 3 0 1 1 6 0v2.025c.57.116 1 .62 1 1.225v3.5c0 .69-.56 1.25-1.25 1.25h-5.5C8.56 17 8 16.44 8 15.75v-3.5c0-.69.56-1.25 1.25-1.25H14V9a2 2 0 1 0-4 0 .5.5 0 1 1-1 0Zm.25 3a.25.25 0 0 0-.25.25v3.5c0 .138.112.25.25.25h5.5a.25.25 0 0 0 .25-.25v-3.5a.25.25 0 0 0-.25-.25h-5.5Z" clip-rule="evenodd"/>
  </g>
  <g id="alert" class="sprite">
    <path fill="#000" fill-rule="evenodd" d="M12.992 6.124a1 1 0 1 0-1.984 0A4 4 0 0 0 8 10v1.172a5.83 5.83 0 0 1-1.707 4.12A1 1 0 0 0 7 17h3a2 2 0 0 0 4 0h3a1 1 0 0 0 .707-1.707A5.83 5.83 0 0 1 16 11.173V10a4 4 0 0 0-3.008-3.876ZM12 18a1 1 0 0 1-1-1h2a1 1 0 0 1-1 1Zm5-2a6.82 6.82 0 0 1-2-4.828V10a3 3 0 0 0-6 0v1.172A6.83 6.83 0 0 1 7 16h10Z" clip-rule="evenodd"/>
  </g>
  <g id="hidden" class="sprite">
    <path fill="#000" fill-rule="evenodd" d="M5.5 10c.276 0 .533.223.64.477.045.102.1.218.173.348.24.435.613.938 1.12 1.414C8.443 13.184 9.954 14 12 14c2.045 0 3.558-.816 4.566-1.76.508-.477.88-.98 1.12-1.415a3.45 3.45 0 0 0 .172-.348c.11-.254.366-.477.642-.477s.495.225.417.49c-.202.682-.77 1.65-1.705 2.514l1.142 1.142a.5.5 0 0 1-.708.708l-1.217-1.218a7.42 7.42 0 0 1-1.89.958l.446 1.785a.5.5 0 0 1-.97.242l-.443-1.77c-.518.1-1.044.15-1.572.149a8.148 8.148 0 0 1-1.572-.15l-.443 1.771a.5.5 0 0 1-.97-.242l.446-1.785a7.421 7.421 0 0 1-1.89-.958l-1.217 1.218a.5.5 0 1 1-.708-.708l1.142-1.142c-.935-.864-1.503-1.832-1.705-2.514-.078-.265.14-.49.417-.49Z" clip-rule="evenodd"/>
  </g>
  <g id="layout-align-right" class="sprite">
    <path fill="#000" fill-rule="evenodd" d="M6.75 11a.75.75 0 0 1-.75-.75v-.5A.75.75 0 0 1 6.75 9h8.5a.75.75 0 0 1 .75.75v.5a.75.75 0 0 1-.75.75h-8.5Zm4 5a.75.75 0 0 1-.75-.75v-.5a.75.75 0 0 1 .75-.75h4.5a.75.75 0 0 1 .75.75v.5a.75.75 0 0 1-.75.75h-4.5Z" clip-rule="evenodd"/>
    <path fill="#000" d="M18 18.5a.5.5 0 0 0 1 0v-12a.5.5 0 0 0-1 0v12Z"/>
  </g>
  <g id="frame" class="sprite">
    <path fill="#000" fill-rule="evenodd" d="M9.5 7a.5.5 0 0 1 .5.5V9h4V7.5a.5.5 0 0 1 1 0V9h1.5a.5.5 0 0 1 0 1H15v4h1.5a.5.5 0 0 1 0 1H15v1.5a.5.5 0 0 1-1 0V15h-4v1.5a.5.5 0 0 1-1 0V15H7.5a.5.5 0 0 1 0-1H9v-4H7.5a.5.5 0 1 1 0-1H9V7.5a.5.5 0 0 1 .5-.5Zm4.5 7v-4h-4v4h4Z" clip-rule="evenodd"/>
  </g>
  <g id="share" class="sprite">
    <path fill="#000" fill-rule="evenodd" d="M10 8.5a1.5 1.5 0 1 1-3 0 1.5 1.5 0 0 1 3 0Zm1 0a2.5 2.5 0 1 1-5 0 2.5 2.5 0 0 1 5 0Zm4.5 4.5a2.5 2.5 0 0 0-2.5 2.5c0-.686-.153-1.336-.428-1.918A3.5 3.5 0 0 1 19 15.5v2a.5.5 0 0 1-1 0v-2a2.5 2.5 0 0 0-2.5-2.5Zm-7 0A2.5 2.5 0 0 0 6 15.5v2a.5.5 0 0 1-1 0v-2a3.5 3.5 0 1 1 7 0v2a.5.5 0 0 1-1 0v-2A2.5 2.5 0 0 0 8.5 13ZM17 8.5a1.5 1.5 0 1 1-3 0 1.5 1.5 0 0 1 3 0Zm1 0a2.5 2.5 0 1 1-5 0 2.5 2.5 0 0 1 5 0Z" clip-rule="evenodd"/>
  </g>
  <g id="effects" class="sprite">
    <path fill="#000" fill-rule="evenodd" d="M13 6a1 1 0 1 1-2 0 1 1 0 0 1 2 0Zm5 7a1 1 0 1 1 0-2 1 1 0 0 1 0 2Zm-2.464-4.536a1 1 0 1 0 1.438-1.389 1 1 0 0 0-1.438 1.389Zm0 8.485a1 1 0 1 1 1.389-1.438 1 1 0 0 1-1.389 1.438ZM12 19a1 1 0 1 0 0-2 1 1 0 0 0 0 2Zm-6-6a1 1 0 1 1 0-2 1 1 0 0 1 0 2Zm1.05 3.95a1 1 0 1 0 1.414-1.414 1 1 0 0 0-1.414 1.413v.001Zm0-8.485A1.001 1.001 0 1 1 8.466 7.05 1.001 1.001 0 0 1 7.05 8.465ZM14 12a2 2 0 1 1-4 0 2 2 0 0 1 4 0Zm1 0a3 3 0 1 1-6 0 3 3 0 0 1 6 0Z" clip-rule="evenodd"/>
  </g>
  <g id="distribute-vertical-spacing" class="sprite">
    <path fill="#000" d="M18.5 6a.5.5 0 0 1 0 1h-12a.5.5 0 1 1 0-1h12ZM9 12.25c0 .414.336.75.75.75h5.5a.75.75 0 0 0 .75-.75v-.5a.75.75 0 0 0-.75-.75h-5.5a.75.75 0 0 0-.75.75v.5ZM18.5 17a.5.5 0 0 1 0 1h-12a.5.5 0 0 1 0-1h12Z"/>
  </g>
  <g id="settings" class="sprite">
    <path fill="#000" fill-rule="evenodd" d="M15.755 7.234a1 1 0 0 1-1.505-.87c.002-.52-.342-1.138-1.038-1.26a7 7 0 0 0-2.424 0c-.696.122-1.04.74-1.038 1.26a1 1 0 0 1-1.505.87c-.45-.262-1.155-.273-1.608.267A7 7 0 0 0 5.42 9.603c-.24.664.122 1.27.574 1.527a1 1 0 0 1 0 1.74c-.452.258-.815.863-.574 1.527.28.766.691 1.477 1.216 2.102.453.54 1.158.529 1.608.267a1 1 0 0 1 1.505.87c-.002.52.342 1.138 1.038 1.26.802.14 1.622.14 2.424 0 .696-.122 1.04-.74 1.038-1.26a1 1 0 0 1 1.505-.87c.45.262 1.155.273 1.608-.267a7.002 7.002 0 0 0 1.216-2.102c.241-.664-.122-1.27-.574-1.528a1 1 0 0 1 0-1.74c.452-.257.815-.863.574-1.526A7 7 0 0 0 17.362 7.5c-.453-.54-1.158-.53-1.608-.267m-1.505.869a2 2 0 0 0 2.008-.005c.112-.064.257-.052.34.046.444.53.8 1.139 1.041 1.802.044.12-.018.252-.13.316a2 2 0 0 0 0 3.476c.112.064.174.195.13.316a6 6 0 0 1-1.042 1.802c-.082.098-.227.11-.339.046a2 2 0 0 0-3.008 1.737c0 .13-.083.249-.21.27a6 6 0 0 1-2.08 0c-.127-.021-.21-.141-.21-.27a2 2 0 0 0-3.007-1.74c-.112.066-.257.054-.34-.044a6.001 6.001 0 0 1-1.04-1.802c-.045-.12.017-.252.13-.316a2 2 0 0 0 0-3.476c-.113-.064-.175-.195-.13-.316a6 6 0 0 1 1.041-1.802c.083-.098.227-.11.34-.046A2 2 0 0 0 10.75 6.36c0-.13.083-.25.21-.271a6 6 0 0 1 2.08 0c.127.022.21.14.21.27a2 2 0 0 0 1 1.743M13 12a1 1 0 1 1-2 0 1 1 0 0 1 2 0Zm1 0a2 2 0 1 1-4 0 2 2 0 0 1 4 0Z" clip-rule="evenodd"/>
  </g>
  <g id="draft" class="sprite">
    <path fill="#000" fill-rule="evenodd" d="M16 17.5a.5.5 0 0 1-.5.5h-7a.5.5 0 0 1-.5-.5v-11a.5.5 0 0 1 .5-.5H12v2.5a1.5 1.5 0 0 0 1.5 1.5H16v7.5ZM13 6.414V8.5a.5.5 0 0 0 .5.5h2.086L13 6.414ZM8.5 19h7a1.5 1.5 0 0 0 1.5-1.5V9.414a1 1 0 0 0-.293-.707l-3.414-3.414A1 1 0 0 0 12.586 5H8.5A1.5 1.5 0 0 0 7 6.5v11A1.5 1.5 0 0 0 8.5 19Z" clip-rule="evenodd"/>
  </g>
  <g id="link-broken" class="sprite">
    <path fill="#000" d="M14.5 10a.5.5 0 0 1-.5-.5V8a2 2 0 1 0-4 0v1.5a.5.5 0 0 1-1 0V8a3 3 0 1 1 6 0v1.5a.5.5 0 0 1-.5.5Zm.5 4.5a.5.5 0 0 0-1 0V16a2 2 0 1 1-4 0v-1.5a.5.5 0 0 0-1 0V16a3 3 0 1 0 6 0v-1.5Z"/>
  </g>
  <g id="sort-top-bottom" class="sprite">
    <path fill="#000" fill-rule="evenodd" d="M16.45 8H6.5a.5.5 0 0 1 0-1h9.95c.97 0 1.372 1.244.584 1.812L7.05 16h9.243L15 14.707a.5.5 0 1 1 .707-.707l2.147 2.146a.5.5 0 0 1 0 .707L15.707 19a.5.5 0 1 1-.707-.707L16.293 17H7.05c-.97 0-1.372-1.244-.584-1.812L16.45 8Z" clip-rule="evenodd"/>
  </g>
  <g id="arrow-up-down" class="sprite">
    <path fill="#000" d="M11.647 6.645a.5.5 0 0 1 .707 0l2.147 2.147a.5.5 0 0 1-.708.707l-1.292-1.293v7.586l1.292-1.293a.5.5 0 1 1 .708.707l-2.147 2.147a.5.5 0 0 1-.707 0L9.5 15.206a.5.5 0 0 1 .707-.707l1.293 1.293V8.206L10.208 9.5a.5.5 0 1 1-.707-.707l2.147-2.147Z"/>
  </g>
  <g id="timer" class="sprite">
    <path fill="#000" d="M15 3.5a.5.5 0 0 1-.5.5h-5a.5.5 0 0 1 0-1h5a.5.5 0 0 1 .5.5ZM12.5 13V8.5a.5.5 0 0 0-1 0V13a.5.5 0 0 0 1 0Z"/>
    <path fill="#000" fill-rule="evenodd" d="m18.715 8.65.82-.822a1 1 0 0 0 0-1.414l-.707-.707a1 1 0 0 0-1.414 0l-.775.775a8 8 0 1 0 2.075 2.167ZM19 13a7 7 0 1 1-2.384-5.263l.647.647A6.974 6.974 0 0 1 19 13Zm-1.008-5.3.13.128.53-.53a.25.25 0 0 0 0-.353l-.354-.354a.25.25 0 0 0-.354 0l-.524.524c.2.185.391.38.572.585Z" clip-rule="evenodd"/>
  </g>
  <g id="import" class="sprite">
    <path fill="#000" fill-rule="evenodd" d="M8 6a2 2 0 0 0-2 2v8a2 2 0 0 0 2 2h8a2 2 0 0 0 2-2V9.5a.5.5 0 0 0-1 0V16a1 1 0 0 1-1 1H8a1 1 0 0 1-1-1V8a1 1 0 0 1 1-1h3a.5.5 0 0 0 0-1H8Zm9 0a5.5 5.5 0 0 0-5.5 5.5v1.793l-1.646-1.647a.5.5 0 0 0-.708.708l2.5 2.5a.498.498 0 0 0 .708 0l2.5-2.5a.5.5 0 0 0-.708-.708L12.5 13.293V11.5A4.5 4.5 0 0 1 17 7h.5a.5.5 0 0 0 0-1H17Z" clip-rule="evenodd"/>
  </g>
  <g id="group" class="sprite">
    <path fill="#000" fill-rule="evenodd" d="M7 8a1 1 0 0 1 1-1 .5.5 0 1 1 0 1 .5.5 0 1 1-1 0Zm2.5-.5A.5.5 0 0 1 10 7h1a.5.5 0 0 1 0 1h-1a.5.5 0 0 1-.5-.5Zm3 0A.5.5 0 0 1 13 7h1a.5.5 0 0 1 0 1h-1a.5.5 0 0 1-.5-.5Zm3 0A.5.5 0 0 1 16 7a1 1 0 0 1 1 1 .5.5 0 0 1-1 0 .5.5 0 0 1-.5-.5Zm-8 2a.5.5 0 0 1 .5.5v1a.5.5 0 0 1-1 0v-1a.5.5 0 0 1 .5-.5Zm9 0a.5.5 0 0 1 .5.5v1a.5.5 0 0 1-1 0v-1a.5.5 0 0 1 .5-.5Zm-9 3a.5.5 0 0 1 .5.5v1a.5.5 0 0 1-1 0v-1a.5.5 0 0 1 .5-.5Zm9 0a.5.5 0 0 1 .5.5v1a.5.5 0 0 1-1 0v-1a.5.5 0 0 1 .5-.5Zm-9 3a.5.5 0 0 1 .5.5.5.5 0 0 1 0 1 1 1 0 0 1-1-1 .5.5 0 0 1 .5-.5Zm9 0a.5.5 0 0 1 .5.5 1 1 0 0 1-1 1 .5.5 0 0 1 0-1 .5.5 0 0 1 .5-.5Zm-7 1a.5.5 0 0 1 .5-.5h1a.5.5 0 0 1 0 1h-1a.5.5 0 0 1-.5-.5Zm3 0a.5.5 0 0 1 .5-.5h1a.5.5 0 0 1 0 1h-1a.5.5 0 0 1-.5-.5Z" clip-rule="evenodd"/>
  </g>
  <g id="instance" class="sprite">
    <path fill="#000" fill-rule="evenodd" d="M11.293 6.293a1 1 0 0 1 1.414 0l5 5a1 1 0 0 1 0 1.414l-5 5a1 1 0 0 1-1.414 0l-5-5a1 1 0 0 1 0-1.414l5-5Zm-3.586 6.414L7 12l.707-.707 3.586-3.586L12 7l.707.707 3.586 3.586L17 12l-.707.707-3.586 3.586L12 17l-.707-.707-3.586-3.586Z" clip-rule="evenodd"/>
  </g>
  <g id="random" class="sprite">
    <path fill="#000" fill-rule="evenodd" d="M11.118 7a2.5 2.5 0 0 0-1.335.386L7.228 9H14.5v1H6.003a.512.512 0 0 0-.003.051V16.5c0 .278.223.5.497.5h7.628a.498.498 0 0 0 .328-.123l3.206-2.805a1 1 0 0 0 .341-.753V7.5a.5.5 0 0 0-.5-.5h-6.382ZM9.25 6.54A3.5 3.5 0 0 1 11.12 6h6.38A1.5 1.5 0 0 1 19 7.5v5.82a2 2 0 0 1-.683 1.504l-3.205 2.805c-.274.24-.624.371-.987.371H6.497C5.667 18 5 17.327 5 16.5v-6.449a1.5 1.5 0 0 1 .699-1.268l3.55-2.242Z" clip-rule="evenodd"/>
    <path fill="#000" d="M9 12a1 1 0 1 1-2 0 1 1 0 0 1 2 0Zm4 0a1 1 0 1 1-2 0 1 1 0 0 1 2 0Zm0 3a1 1 0 1 1-2 0 1 1 0 0 1 2 0Zm-4 0a1 1 0 1 1-2 0 1 1 0 0 1 2 0Z"/>
    <path fill="#000" fill-rule="evenodd" d="M18.407 6.71a.5.5 0 0 1-.116.697l-3.5 2.5a.5.5 0 1 1-.582-.814l3.5-2.5a.5.5 0 0 1 .698.116Z" clip-rule="evenodd"/>
    <path fill="#000" fill-rule="evenodd" d="M14 17V9h1v8h-1Z" clip-rule="evenodd"/>
  </g>
  <g id="arrow-left-right" class="sprite">
    <path fill="#000" d="M8.207 12.5 9.5 13.793a.5.5 0 0 1-.707.707l-2.147-2.146a.5.5 0 0 1 0-.708L8.793 9.5a.5.5 0 0 1 .707.707L8.207 11.5h7.586L14.5 10.207a.5.5 0 0 1 .707-.707l2.147 2.146a.5.5 0 0 1 0 .707L15.207 14.5a.5.5 0 0 1-.707-.707l1.293-1.293H8.207Z"/>
  </g>
  <g id="search-large" class="sprite">
    <path fill="#000" fill-rule="evenodd" d="M15 10.5a4.5 4.5 0 1 1-8.999 0 4.5 4.5 0 0 1 8.999 0Zm-.956 4.206a5.5 5.5 0 1 1 .662-.662.5.5 0 0 1 .148.102l3 3a.5.5 0 1 1-.707.707l-3-3a.501.501 0 0 1-.103-.147Z" clip-rule="evenodd"/>
  </g>
  <g id="corners" class="sprite">
    <path fill="#000" fill-rule="evenodd" d="M8.9 6h-.02c-.403 0-.735 0-1.006.022-.28.023-.54.072-.782.196a2 2 0 0 0-.874.874c-.124.243-.173.501-.196.782C6 8.144 6 8.477 6 8.88v.62a.5.5 0 1 0 1 0v-.6c0-.428 0-.72.019-.944.018-.22.05-.332.09-.41a1 1 0 0 1 .437-.437c.078-.04.19-.072.41-.09C8.18 7 8.472 7 8.9 7h.6a.5.5 0 0 0 0-1h-.6Zm6.2 0h.02c.403 0 .735 0 1.006.022.281.023.54.072.782.196a2 2 0 0 1 .874.874c.124.243.173.501.196.782.022.27.022.603.022 1.005V9.5a.5.5 0 0 1-1 0v-.6c0-.428 0-.72-.019-.944-.018-.22-.05-.332-.09-.41a1 1 0 0 0-.437-.437c-.078-.04-.19-.072-.41-.09-.314-.018-.63-.024-.944-.019h-.6a.5.5 0 0 1 0-1h.6Zm.02 12h-.62a.5.5 0 0 1 0-1h.6c.428 0 .72 0 .944-.019.22-.018.332-.05.41-.09a1 1 0 0 0 .437-.437c.04-.078.072-.19.09-.41.019-.225.019-.516.019-.944v-.6a.5.5 0 1 1 1 0v.62c0 .403 0 .735-.022 1.006-.023.281-.072.54-.196.782a2 2 0 0 1-.874.874c-.243.124-.501.173-.782.196-.27.022-.603.022-1.005.022h-.001ZM8.9 18h-.02c-.403 0-.735 0-1.006-.022-.281-.023-.54-.072-.782-.196a2 2 0 0 1-.874-.874c-.124-.243-.173-.501-.196-.782-.02-.335-.027-.67-.022-1.006v-.62a.5.5 0 0 1 1 0v.6c0 .428 0 .72.019.944.018.22.05.332.09.41a1 1 0 0 0 .437.437c.078.04.19.072.41.09.225.019.516.019.944.019h.6a.5.5 0 0 1 0 1h-.6Z" clip-rule="evenodd"/>
  </g>
  <g id="horizontal-padding" class="sprite">
    <path fill="#000" fill-rule="evenodd" d="M7.5 16a.5.5 0 0 0 0 1h9a.5.5 0 0 0 0-1h-9ZM7 7.5a.5.5 0 0 1 .5-.5h9a.5.5 0 0 1 0 1h-9a.5.5 0 0 1-.5-.5Zm6 3.5h-2v2h2v-2Zm-2-1a1 1 0 0 0-1 1v2a1 1 0 0 0 1 1h2a1 1 0 0 0 1-1v-2a1 1 0 0 0-1-1h-2Z" clip-rule="evenodd"/>
  </g>
  <g id="reset" class="sprite">
    <path fill="#000" d="M10.553 7.214A5 5 0 0 0 8 9h1.5a.5.5 0 1 1 0 1h-3a.5.5 0 0 1-.5-.5v-3a.5.5 0 0 1 1 0v2.183a6 6 0 1 1-.98 3.816A.47.47 0 0 1 6.5 12c.28 0 .506.231.532.51.027.282.069.49.069.49a5 5 0 1 0 3.452-5.786Z"/>
  </g>
  <g id="resolve-filled" class="sprite">
    <path fill="#000" fill-rule="evenodd" d="M19.9 12a7.9 7.9 0 1 1-15.8 0 7.9 7.9 0 0 1 15.8 0Z" clip-rule="evenodd" opacity=".3"/>
    <path fill="#000" fill-rule="evenodd" d="M18.9 12a6.9 6.9 0 1 1-13.8 0 6.9 6.9 0 0 1 13.8 0Zm1 0a7.9 7.9 0 1 1-15.8 0 7.9 7.9 0 0 1 15.8 0Zm-4.468-2.748a.5.5 0 0 0-.864-.504l-3.14 5.384-2.044-2.452a.501.501 0 0 0-.866.468.5.5 0 0 0 .098.172l2.5 3a.5.5 0 0 0 .816-.068l3.5-6Z" clip-rule="evenodd"/>
  </g>
  <g id="chevron-up" class="sprite">
    <path fill="#000" fill-rule="evenodd" d="M13.854 13.854a.5.5 0 0 1-.708 0L11.5 12.207l-1.646 1.647a.5.5 0 0 1-.708-.708l2-2a.5.5 0 0 1 .708 0l2 2a.501.501 0 0 1 0 .708Z" clip-rule="evenodd"/>
  </g>
  <g id="close" class="sprite">
    <path stroke="#000" stroke-linecap="round" stroke-linejoin="round" d="m16.5 7.5-9 9m0-9 9 9"/>
  </g>
  <g id="check" class="sprite">
    <path fill="#000" d="M17.207 10.207 11 16.414l-3.708-3.707 1.415-1.414L11 13.586l4.793-4.793 1.414 1.414Z"/>
  </g>
  <g id="minus" class="sprite">
    <path stroke="#000" stroke-linecap="round" d="M6.5 12.5h11"/>
  </g>
  <g id="blend" class="sprite">
    <path fill="#000" d="M16 14a4 4 0 1 1-8 0c0-2.17 2.093-5.387 3.251-7a.913.913 0 0 1 1.498 0C13.907 8.613 16 11.83 16 14Z" opacity=".3"/>
    <path fill="#000" fill-rule="evenodd" d="M12 17a3 3 0 0 0 3-3c0-.826-.42-1.988-1.078-3.245C13.308 9.58 12.56 8.457 12 7.672c-.56.785-1.309 1.91-1.922 3.083C9.42 12.012 9 13.175 9 14a3 3 0 0 0 3 3Zm0 1a4 4 0 0 0 4-4c0-2.17-2.093-5.387-3.251-7a.913.913 0 0 0-1.498 0C10.093 8.613 8 11.83 8 14a4 4 0 0 0 4 4Z" clip-rule="evenodd"/>
  </g>
  <g id="chevron-down" class="sprite">
    <path fill="#000" fill-rule="evenodd" d="M9.146 11.146a.5.5 0 0 1 .708 0l1.646 1.647 1.646-1.647a.5.5 0 0 1 .708.708l-2 2a.499.499 0 0 1-.708 0l-2-2a.5.5 0 0 1 0-.708Z" clip-rule="evenodd"/>
  </g>
  <g id="auto-layout-vertical" class="sprite">
    <path fill="#000" fill-rule="evenodd" d="M17 10V7H7v3h10Zm1-3a1 1 0 0 0-1-1H7a1 1 0 0 0-1 1v3a1 1 0 0 0 1 1h10a1 1 0 0 0 1-1V7Zm-1 10v-3H7v3h10Zm1-3a1 1 0 0 0-1-1H7a1 1 0 0 0-1 1v3a1 1 0 0 0 1 1h10a1 1 0 0 0 1-1v-3Z" clip-rule="evenodd"/>
  </g>
  <g id="layout-grid-columns" class="sprite">
    <path fill="#000" fill-rule="evenodd" d="M6.75 18a.75.75 0 0 1-.75-.75V5.75A.75.75 0 0 1 6.75 5h.5a.75.75 0 0 1 .75.75v11.5a.75.75 0 0 1-.75.75h-.5Zm5 0a.75.75 0 0 1-.75-.75V5.75a.75.75 0 0 1 .75-.75h.5a.75.75 0 0 1 .75.75v11.5a.75.75 0 0 1-.75.75h-.5Zm4.25-.75a.75.75 0 0 0 .75.75h.5a.75.75 0 0 0 .75-.75V5.75a.75.75 0 0 0-.75-.75h-.5a.75.75 0 0 0-.75.75v11.5Z" clip-rule="evenodd"/>
  </g>
  <g id="visible" class="sprite">
    <path fill="#000" fill-rule="evenodd" d="M6 12c0-.066.054-.358.313-.825a5.898 5.898 0 0 1 1.12-1.414C8.443 8.816 9.956 8 12 8c2.045 0 3.558.816 4.566 1.76.508.477.88.98 1.121 1.415.258.467.313.76.313.825 0 .066-.055.358-.313.825-.24.435-.613.938-1.12 1.414C15.557 15.184 14.044 16 12 16c-2.045 0-3.558-.816-4.566-1.76a5.9 5.9 0 0 1-1.121-1.415C6.055 12.358 6 12.065 6 12Zm-1 0c0-1.25 2.333-5 7-5s7 3.75 7 5-2.333 5-7 5-7-3.75-7-5Zm8 0a1 1 0 1 1-2 0 1 1 0 0 1 2 0Zm1 0a2 2 0 1 1-4 0 2 2 0 0 1 4 0Z" clip-rule="evenodd"/>
  </g>
  <g id="resize-to-fit" class="sprite">
    <path fill="#000" fill-rule="evenodd" d="M6.854 6.146a.5.5 0 1 0-.708.708L8.293 9H6.5a.5.5 0 1 0 0 1h3a.5.5 0 0 0 .5-.5v-3a.5.5 0 1 0-1 0v1.793L6.854 6.146ZM9 15.706l-2.146 2.148a.5.5 0 0 1-.708-.708L8.293 15H6.5a.5.5 0 0 1 0-1h3a.5.5 0 0 1 .5.5v3a.5.5 0 1 1-1 0v-1.793Zm8.854-9.56a.5.5 0 0 0-.708 0L15 8.293V6.5a.5.5 0 1 0-1 0v3a.5.5 0 0 0 .5.5h3a.5.5 0 1 0 0-1h-1.793l2.147-2.146a.501.501 0 0 0 0-.707ZM15 15.707l2.146 2.147a.502.502 0 0 0 .817-.163.501.501 0 0 0-.109-.545L15.707 15H17.5a.5.5 0 1 0 0-1h-3a.5.5 0 0 0-.5.5v3a.5.5 0 0 0 1 0v-1.794Z" clip-rule="evenodd"/>
  </g>
  <g id="ellipses" class="sprite">
    <path fill="#000" d="M6.5 14a1.5 1.5 0 1 0 0-3 1.5 1.5 0 0 0 0 3Zm6 0a1.5 1.5 0 1 0 0-3 1.5 1.5 0 0 0 0 3Zm6 0a1.5 1.5 0 1 0 0-3 1.5 1.5 0 0 0 0 3Z"/>
  </g>
  <g id="layout-grid-uniform" class="sprite">
    <path fill="#000" d="M6 7a1 1 0 0 1 1-1h1a1 1 0 0 1 1 1v1a1 1 0 0 1-1 1H7a1 1 0 0 1-1-1V7Zm10 0a1 1 0 0 1 1-1h1a1 1 0 0 1 1 1v1a1 1 0 0 1-1 1h-1a1 1 0 0 1-1-1V7Zm-5 0a1 1 0 0 1 1-1h1a1 1 0 0 1 1 1v1a1 1 0 0 1-1 1h-1a1 1 0 0 1-1-1V7Zm-5 5a1 1 0 0 1 1-1h1a1 1 0 0 1 1 1v1a1 1 0 0 1-1 1H7a1 1 0 0 1-1-1v-1Zm10 0a1 1 0 0 1 1-1h1a1 1 0 0 1 1 1v1a1 1 0 0 1-1 1h-1a1 1 0 0 1-1-1v-1Zm-5 0a1 1 0 0 1 1-1h1a1 1 0 0 1 1 1v1a1 1 0 0 1-1 1h-1a1 1 0 0 1-1-1v-1Zm-5 5a1 1 0 0 1 1-1h1a1 1 0 0 1 1 1v1a1 1 0 0 1-1 1H7a1 1 0 0 1-1-1v-1Zm10 0a1 1 0 0 1 1-1h1a1 1 0 0 1 1 1v1a1 1 0 0 1-1 1h-1a1 1 0 0 1-1-1v-1Zm-5 0a1 1 0 0 1 1-1h1a1 1 0 0 1 1 1v1a1 1 0 0 1-1 1h-1a1 1 0 0 1-1-1v-1Z"/>
  </g>
  <g id="image" class="sprite">
    <path fill="#000" fill-rule="evenodd" d="M16 7H8a1 1 0 0 0-1 1v5.668l2.521-2.522a.5.5 0 0 1 .708 0l5.85 5.85A1 1 0 0 0 17 16V8a1 1 0 0 0-1-1ZM6 14.875V16a2 2 0 0 0 2 2h8a2 2 0 0 0 2-2V8a2 2 0 0 0-2-2H8a2 2 0 0 0-2 2v6.875ZM8 17h6.668l-4.793-4.793L7 15.082V16a1 1 0 0 0 1 1Zm7-7a1 1 0 1 1-2 0 1 1 0 0 1 2 0Zm1 0a2 2 0 1 1-4 0 2 2 0 0 1 4 0Z" clip-rule="evenodd"/>
  </g>
  <g id="corner-radius" class="sprite">
    <path fill="#000" fill-rule="evenodd" d="M10.899 9.032c-.386.032-.622.091-.807.186a2 2 0 0 0-.874.874c-.095.185-.154.42-.186.807C9 11.29 9 11.792 9 12.5v3a.5.5 0 0 1-1 0v-3.022c0-.681 0-1.223.036-1.66.036-.448.113-.83.29-1.18a3.001 3.001 0 0 1 1.312-1.312c.35-.177.732-.254 1.18-.29C11.255 8 11.796 8 12.478 8H15.5a.5.5 0 0 1 0 1h-3c-.708 0-1.21 0-1.601.032Z" clip-rule="evenodd"/>
  </g>
  <g id="theme" class="sprite">
    <path fill="#000" fill-rule="evenodd" d="M11 8v7a2 2 0 0 1-4 0V8a2 2 0 1 1 4 0ZM6 8a3 3 0 1 1 6 0v7c0 .768-.289 1.47-.764 2H16a2 2 0 0 0 0-4h-.757l-3.597 3.596a2.72 2.72 0 0 1-.28.248A3 3 0 0 0 12 15v-.171l3.89-3.89a2 2 0 0 0-2.83-2.828L12 9.171V8c0-.079-.003-.156-.009-.233l.363-.363a3 3 0 1 1 4.242 4.243l-.362.362a3 3 0 0 1-.234 5.99H9.032L9 18a3 3 0 0 1-3-3V8Zm3 8a1 1 0 1 0 0-2 1 1 0 0 0 0 2Z" clip-rule="evenodd"/>
  </g>
  <g id="angle" class="sprite">
    <path fill="#000" fill-rule="evenodd" d="M8.5 8a.5.5 0 0 1 .5.5V15h6.5a.5.5 0 0 1 0 1h-7a.5.5 0 0 1-.5-.5v-7a.5.5 0 0 1 .5-.5Z" clip-rule="evenodd"/>
    <path fill="#000" fill-rule="evenodd" d="M11.121 12.879A3 3 0 0 0 9 12v-1a4 4 0 0 1 4 4h-1a3 3 0 0 0-.879-2.121Z" clip-rule="evenodd"/>
  </g>
  <g id="auto-layout-horizontal" class="sprite">
    <path fill="#000" fill-rule="evenodd" d="M10 7H7v10h3V7ZM7 6a1 1 0 0 0-1 1v10a1 1 0 0 0 1 1h3a1 1 0 0 0 1-1V7a1 1 0 0 0-1-1H7Zm10 1h-3v10h3V7Zm-3-1a1 1 0 0 0-1 1v10a1 1 0 0 0 1 1h3a1 1 0 0 0 1-1V7a1 1 0 0 0-1-1h-3Z" clip-rule="evenodd"/>
  </g>
  <g id="hyperlink" class="sprite">
    <path fill="#000" fill-rule="evenodd" d="M15.148 12.855a.5.5 0 0 1-.003-.707l1.172-1.18a2.329 2.329 0 0 0-3.306-3.28l-1.156 1.164a.5.5 0 0 1-.71-.704L12.3 6.983a3.328 3.328 0 1 1 4.726 4.688l-1.172 1.181a.5.5 0 0 1-.707.003Zm-6.295-1.709a.5.5 0 0 1 0 .707l-1.18 1.183a2.329 2.329 0 1 0 3.298 3.29l1.175-1.179a.5.5 0 1 1 .708.706l-1.175 1.178a3.329 3.329 0 0 1-4.713-4.702l1.18-1.182a.5.5 0 0 1 .707 0m5.5-.792a.501.501 0 0 0-.707-.708l-4 4a.5.5 0 1 0 .707.708l4-4Z" clip-rule="evenodd"/>
  </g>
  <g id="spinner" class="sprite">
    <path fill="#000" fill-rule="evenodd" d="M11.165 4.53a.5.5 0 0 1-.404.58A7 7 0 1 0 19 12a.5.5 0 0 1 1 0 8 8 0 1 1-9.416-7.874.5.5 0 0 1 .58.404Z" clip-rule="evenodd"/>
  </g>
  <g id="info" class="sprite">
    <path fill="#000" d="M12 18a6 6 0 1 0 0-12 6 6 0 0 0 0 12Zm-.333-1C8.721 17 7 14.946 7 12s2.054-5 5-5 5 2.054 5 5-2.387 5-5.333 5Zm-.333-5.667h1.333v4h-1.333v-4Zm0-2a.666.666 0 1 1 1.332 0 .666.666 0 0 1-1.332 0Z"/>
  </g>
  <g id="toggle-sidebar-left" class="sprite">
    <path fill="#000" fill-rule="evenodd" d="M10 7h8a1 1 0 0 1 1 1v8a1 1 0 0 1-1 1h-8V7ZM9 7H6a1 1 0 0 0-1 1v8a1 1 0 0 0 1 1h3V7ZM4 8a2 2 0 0 1 2-2h12a2 2 0 0 1 2 2v8a2 2 0 0 1-2 2H6a2 2 0 0 1-2-2V8Z" clip-rule="evenodd"/>
  </g>
  <g id="toggle-sidebar-right" class="sprite">
    <path fill="#000" fill-rule="evenodd" d="M14 7H6a1 1 0 0 0-1 1v8a1 1 0 0 0 1 1h8V7Zm1 0h3a1 1 0 0 1 1 1v8a1 1 0 0 1-1 1h-3V7Zm5 1a2 2 0 0 0-2-2H6a2 2 0 0 0-2 2v8a2 2 0 0 0 2 2h12a2 2 0 0 0 2-2V8Z" clip-rule="evenodd"/>
  </g>
  <g id="toggle-sidebar-bottom" class="sprite">
    <path fill="#000" fill-rule="evenodd" d="M19 13V8a1 1 0 0 0-1-1H6a1 1 0 0 0-1 1v5h14Zm0 1v2a1 1 0 0 1-1 1H6a1 1 0 0 1-1-1v-2h14Zm-1 4a2 2 0 0 0 2-2V8a2 2 0 0 0-2-2H6a2 2 0 0 0-2 2v8a2 2 0 0 0 2 2h12Z" clip-rule="evenodd"/>
  </g>
  <g id="toggle-sidebar-bottom" class="sprite">
    <path fill="#000" fill-rule="evenodd" d="M5 11v5a1 1 0 0 0 1 1h12a1 1 0 0 0 1-1v-5H5Zm0-1V8a1 1 0 0 1 1-1h12a1 1 0 0 1 1 1v2H5Zm1-4a2 2 0 0 0-2 2v8a2 2 0 0 0 2 2h12a2 2 0 0 0 2-2V8a2 2 0 0 0-2-2H6Z" clip-rule="evenodd"/>
  </g>
</svg>
