<svg xmlns="http://www.w3.org/2000/svg" width="24" height="24" fill="none" viewBox="0 0 24 24">
  <path fill="#000" d="M16 14a4 4 0 1 1-8 0c0-2.17 2.093-5.387 3.251-7a.913.913 0 0 1 1.498 0C13.907 8.613 16 11.83 16 14Z" opacity=".3"/>
  <path fill="#000" fill-rule="evenodd" d="M12 17a3 3 0 0 0 3-3c0-.826-.42-1.988-1.078-3.245C13.308 9.58 12.56 8.457 12 7.672c-.56.785-1.309 1.91-1.922 3.083C9.42 12.012 9 13.175 9 14a3 3 0 0 0 3 3Zm0 1a4 4 0 0 0 4-4c0-2.17-2.093-5.387-3.251-7a.913.913 0 0 0-1.498 0C10.093 8.613 8 11.83 8 14a4 4 0 0 0 4 4Z" clip-rule="evenodd"/>
</svg>
