<svg xmlns="http://www.w3.org/2000/svg" width="24" height="24" fill="none" viewBox="0 0 24 24">
  <path fill="#000" fill-rule="evenodd" d="M12 9.838 10.66 8.5 12 7.162 13.34 8.5 12 9.838Zm-.43-3.66L9.68 8.066a.613.613 0 0 0 0 .868l1.89 1.888a.61.61 0 0 0 .86 0l1.89-1.888a.613.613 0 0 0 0-.868l-1.89-1.888a.61.61 0 0 0-.86 0ZM14.16 12l1.34-1.34L16.838 12 15.5 13.34 14.16 12Zm-.983.43 1.888 1.89c.24.24.628.24.868 0l1.888-1.89a.61.61 0 0 0 0-.86l-1.888-1.89a.613.613 0 0 0-.868 0l-1.887 1.89a.61.61 0 0 0 0 .86M10.66 15.5 12 16.838l1.34-1.338L12 14.162 10.66 15.5Zm-.98-.434 1.89-1.888a.61.61 0 0 1 .86 0l1.89 1.888c.24.24.24.628 0 .868l-1.89 1.888a.61.61 0 0 1-.86 0l-1.89-1.888a.613.613 0 0 1 0-.868ZM7.162 12 8.5 10.66 9.838 12 8.5 13.34 7.162 12Zm-.984.43 1.888 1.89c.24.24.628.24.868 0l1.888-1.89a.61.61 0 0 0 0-.86L8.934 9.68a.613.613 0 0 0-.868 0l-1.888 1.89a.61.61 0 0 0 0 .86Z" clip-rule="evenodd"/>
</svg>
