<svg xmlns="http://www.w3.org/2000/svg" width="24" height="24" fill="none" viewBox="0 0 24 24">
  <path fill="#000" fill-rule="evenodd" d="M15.148 12.855a.5.5 0 0 1-.003-.707l1.172-1.18a2.329 2.329 0 0 0-3.306-3.28l-1.156 1.164a.5.5 0 0 1-.71-.704L12.3 6.983a3.328 3.328 0 1 1 4.726 4.688l-1.172 1.181a.5.5 0 0 1-.707.003Zm-6.295-1.709a.5.5 0 0 1 0 .707l-1.18 1.183a2.329 2.329 0 1 0 3.298 3.29l1.175-1.179a.5.5 0 1 1 .708.706l-1.175 1.178a3.329 3.329 0 0 1-4.713-4.702l1.18-1.182a.5.5 0 0 1 .707 0m5.5-.792a.501.501 0 0 0-.707-.708l-4 4a.5.5 0 1 0 .707.708l4-4Z" clip-rule="evenodd"/>
</svg>
