<svg xmlns="http://www.w3.org/2000/svg" width="24" height="24" fill="none" viewBox="0 0 24 24">
  <path fill="#000" d="M9 12.025c-.57.116-1 .62-1 1.225v3.5c0 .69.56 1.25 1.25 1.25h5.5c.69 0 1.25-.56 1.25-1.25v-3.5a1.25 1.25 0 0 0-1-1.225V12H9v.025Z" opacity=".3"/>
  <path fill="#000" fill-rule="evenodd" d="M9.879 7.879A3 3 0 0 0 9 10v2.025c-.57.116-1 .62-1 1.225v3.5c0 .69.56 1.25 1.25 1.25h5.5c.69 0 1.25-.56 1.25-1.25v-3.5a1.25 1.25 0 0 0-1-1.225V10a3 3 0 0 0-5.121-2.121ZM9.25 13a.25.25 0 0 0-.25.25v3.5c0 .138.112.25.25.25h5.5a.25.25 0 0 0 .25-.25v-3.5a.25.25 0 0 0-.25-.25h-5.5Zm.75-1v-2a2 2 0 1 1 4 0v2h-4Z" clip-rule="evenodd"/>
</svg>
