<svg xmlns="http://www.w3.org/2000/svg" width="24" height="24" fill="none" viewBox="0 0 24 24">
  <path fill="#000" fill-rule="evenodd" d="M6.854 6.146a.5.5 0 1 0-.708.708L8.293 9H6.5a.5.5 0 1 0 0 1h3a.5.5 0 0 0 .5-.5v-3a.5.5 0 1 0-1 0v1.793L6.854 6.146ZM9 15.706l-2.146 2.148a.5.5 0 0 1-.708-.708L8.293 15H6.5a.5.5 0 0 1 0-1h3a.5.5 0 0 1 .5.5v3a.5.5 0 1 1-1 0v-1.793Zm8.854-9.56a.5.5 0 0 0-.708 0L15 8.293V6.5a.5.5 0 1 0-1 0v3a.5.5 0 0 0 .5.5h3a.5.5 0 1 0 0-1h-1.793l2.147-2.146a.501.501 0 0 0 0-.707ZM15 15.707l2.146 2.147a.502.502 0 0 0 .817-.163.501.501 0 0 0-.109-.545L15.707 15H17.5a.5.5 0 1 0 0-1h-3a.5.5 0 0 0-.5.5v3a.5.5 0 0 0 1 0v-1.794Z" clip-rule="evenodd"/>
</svg>
