<svg xmlns="http://www.w3.org/2000/svg" width="24" height="24" fill="none" viewBox="0 0 24 24">
  <path fill="#000" fill-rule="evenodd" d="M15.755 7.234a1 1 0 0 1-1.505-.87c.002-.52-.342-1.138-1.038-1.26a7 7 0 0 0-2.424 0c-.696.122-1.04.74-1.038 1.26a1 1 0 0 1-1.505.87c-.45-.262-1.155-.273-1.608.267A7 7 0 0 0 5.42 9.603c-.24.664.122 1.27.574 1.527a1 1 0 0 1 0 1.74c-.452.258-.815.863-.574 1.527.28.766.691 1.477 1.216 2.102.453.54 1.158.529 1.608.267a1 1 0 0 1 1.505.87c-.002.52.342 1.138 1.038 1.26.802.14 1.622.14 2.424 0 .696-.122 1.04-.74 1.038-1.26a1 1 0 0 1 1.505-.87c.45.262 1.155.273 1.608-.267a7.002 7.002 0 0 0 1.216-2.102c.241-.664-.122-1.27-.574-1.528a1 1 0 0 1 0-1.74c.452-.257.815-.863.574-1.526A7 7 0 0 0 17.362 7.5c-.453-.54-1.158-.53-1.608-.267m-1.505.869a2 2 0 0 0 2.008-.005c.112-.064.257-.052.34.046.444.53.8 1.139 1.041 1.802.044.12-.018.252-.13.316a2 2 0 0 0 0 3.476c.112.064.174.195.13.316a6 6 0 0 1-1.042 1.802c-.082.098-.227.11-.339.046a2 2 0 0 0-3.008 1.737c0 .13-.083.249-.21.27a6 6 0 0 1-2.08 0c-.127-.021-.21-.141-.21-.27a2 2 0 0 0-3.007-1.74c-.112.066-.257.054-.34-.044a6.001 6.001 0 0 1-1.04-1.802c-.045-.12.017-.252.13-.316a2 2 0 0 0 0-3.476c-.113-.064-.175-.195-.13-.316a6 6 0 0 1 1.041-1.802c.083-.098.227-.11.34-.046A2 2 0 0 0 10.75 6.36c0-.13.083-.25.21-.271a6 6 0 0 1 2.08 0c.127.022.21.14.21.27a2 2 0 0 0 1 1.743M13 12a1 1 0 1 1-2 0 1 1 0 0 1 2 0Zm1 0a2 2 0 1 1-4 0 2 2 0 0 1 4 0Z" clip-rule="evenodd"/>
</svg>
