<svg xmlns="http://www.w3.org/2000/svg" width="24" height="24" fill="none" viewBox="0 0 24 24">
  <path fill="#000" fill-rule="evenodd" d="M10 8.5a1.5 1.5 0 1 1-3 0 1.5 1.5 0 0 1 3 0Zm1 0a2.5 2.5 0 1 1-5 0 2.5 2.5 0 0 1 5 0Zm4.5 4.5a2.5 2.5 0 0 0-2.5 2.5c0-.686-.153-1.336-.428-1.918A3.5 3.5 0 0 1 19 15.5v2a.5.5 0 0 1-1 0v-2a2.5 2.5 0 0 0-2.5-2.5Zm-7 0A2.5 2.5 0 0 0 6 15.5v2a.5.5 0 0 1-1 0v-2a3.5 3.5 0 1 1 7 0v2a.5.5 0 0 1-1 0v-2A2.5 2.5 0 0 0 8.5 13ZM17 8.5a1.5 1.5 0 1 1-3 0 1.5 1.5 0 0 1 3 0Zm1 0a2.5 2.5 0 1 1-5 0 2.5 2.5 0 0 1 5 0Z" clip-rule="evenodd"/>
</svg>
