<svg xmlns="http://www.w3.org/2000/svg" width="24" height="24" fill="none" viewBox="0 0 24 24">
  <path fill="#000" fill-rule="evenodd" d="M8 6.5a.5.5 0 1 0-1 0V7h-.5a.5.5 0 1 0 0 1H7v3h-.5a.5.5 0 0 0 0 1H7v3h-.5a.5.5 0 0 0 0 1H7v.5a.5.5 0 0 0 1 0V16h3v.5a.5.5 0 0 0 1 0V16h3v.5a.5.5 0 0 0 1 0V16h.5a.5.5 0 0 0 0-1H16v-3h.5a.5.5 0 0 0 0-1H16V8h.5a.5.5 0 0 0 0-1H16v-.5a.5.5 0 0 0-1 0V7h-3v-.5a.5.5 0 0 0-1 0V7H8v-.5Zm7 8.5v-3h-3v3h3Zm-4 0v-3H8v3h3Zm-3-4V8h3v3H8Zm4 0V8h3v3h-3Z" clip-rule="evenodd"/>
</svg>
