<svg xmlns="http://www.w3.org/2000/svg" width="24" height="24" fill="none" viewBox="0 0 24 24">
  <path fill="#000" d="M15 3.5a.5.5 0 0 1-.5.5h-5a.5.5 0 0 1 0-1h5a.5.5 0 0 1 .5.5ZM12.5 13V8.5a.5.5 0 0 0-1 0V13a.5.5 0 0 0 1 0Z"/>
  <path fill="#000" fill-rule="evenodd" d="m18.715 8.65.82-.822a1 1 0 0 0 0-1.414l-.707-.707a1 1 0 0 0-1.414 0l-.775.775a8 8 0 1 0 2.075 2.167ZM19 13a7 7 0 1 1-2.384-5.263l.647.647A6.974 6.974 0 0 1 19 13Zm-1.008-5.3.13.128.53-.53a.25.25 0 0 0 0-.353l-.354-.354a.25.25 0 0 0-.354 0l-.524.524c.2.185.391.38.572.585Z" clip-rule="evenodd"/>
</svg>
